<?xml version="1.0" encoding="UTF-8"?>
<svg viewBox="0 0 72 72" version="1.1" xmlns="http://www.w3.org/2000/svg" xmlns:xlink="http://www.w3.org/1999/xlink" role="img" aria-label="Get support on our blog">
    <title>Get support on our blog</title>
    <g id="Symbols" stroke="none" stroke-width="1" fill="none" fill-rule="evenodd">
        <g id="Atoms/Icons/Website/.a-icon__website--blue-50">
            <g id=".a-icon__website--blue-50">
                <polygon id="color" fill="#2E93EE" points="72 72 0 0 0 72"></polygon>
                <g id="LineArt" fill="#1F2044">
                    <path d="M72,0 L72,72 L61,72 L0,72 L0,0 L72,0 Z M72,7 L7,7 L7,72 L72,72 L72,7 Z" id="Path-10-Copy-3"></path>
                    <path d="M66,36 L66,66 L36,66 L36,36 L66,36 Z M59,43 L43,43 L43,59 L59,59 L59,43 Z" id="Rectangle"></path>
                    <rect id="Rectangle" x="12" y="12" width="7" height="7"></rect>
                    <rect id="Rectangle" x="22" y="12" width="7" height="7"></rect>
                    <rect id="Rectangle" x="32" y="12" width="7" height="7"></rect>
                    <rect id="Rectangle-Copy-18" x="12" y="56" width="11" height="7"></rect>
                    <rect id="Rectangle-Copy-21" x="12" y="46" width="20" height="7"></rect>
                    <rect id="Rectangle-Copy-23" x="12" y="36" width="20" height="7"></rect>
                    <rect id="Rectangle-Copy-25" x="12" y="23" width="60" height="7"></rect>
                </g>
            </g>
        </g>
    </g>
</svg>