<?xml version="1.0" encoding="UTF-8"?>
<svg viewBox="0 0 72 73" version="1.1" xmlns="http://www.w3.org/2000/svg" xmlns:xlink="http://www.w3.org/1999/xlink" role="img" aria-label="Call for support">
    <title>Call for support</title>
    <g id="Symbols" stroke="none" stroke-width="1" fill="none" fill-rule="evenodd">
        <g id="Atoms/Icons/Mobile-Phone/.a-icon__mobilephone--blue-50">
            <g id="icon__mobilephone--blue-50">
                <polygon id="Rectangle" fill="#2E93EE" points="72 72 0 72 0 0"></polygon>
                <g id="LineArt" transform="translate(10.000000, 4.000000)" fill="#1F2044">
                    <path d="M38,-3.5 C46.4547295,-3.5 53.3284051,3.26929627 53.4968369,11.6836988 L53.5,12 L53.5,32.9577465 L46.5,32.9577465 L46.5,12 C46.5,7.39093272 42.831547,3.63867855 38.2551603,3.5037566 L38,3.5 L12,3.5 C7.39093272,3.5 3.63867855,7.16845296 3.5037566,11.7448397 L3.5,12 L3.5,53 C3.5,57.6090673 7.16845296,61.3613215 11.7448397,61.4962434 L12,61.5 L38.556338,61.5 C42.8607247,61.5 46.3654968,58.0764428 46.49622,53.8037626 L46.5,53.556338 L46.5,49 L53.5,49 L53.5,53.556338 C53.5,61.7036849 46.9799464,68.3281917 38.8729858,68.4967117 L38.556338,68.5 L12,68.5 C3.5452705,68.5 -3.32840515,61.7307037 -3.4968369,53.3163012 L-3.5,53 L-3.5,12 C-3.5,3.5452705 3.26929627,-3.32840515 11.6836988,-3.4968369 L12,-3.5 L38,-3.5 Z" id="Path-19"></path>
                    <rect id="Rectangle" x="17" y="49" width="19" height="7"></rect>
                    <path d="M18.5251263,11.5251263 L23.4748737,16.4748737 L20.606,19.342 L20.5696204,19.3891996 C19.5409033,20.8113368 20.5032473,23.9844279 23.2020031,26.7978415 L23.4246212,27.0251263 C26.8396457,30.4401507 30.6130884,31.4763275 32.7634375,29.301792 L32.874,29.184 L35.3112255,26.2593546 L40.6887745,30.7406454 L38.1887745,33.7406454 L38.1015295,33.8413766 C32.5329789,40.028655 24.4118144,37.9118144 18.4748737,31.9748737 C13.3568138,26.8568138 11.2007968,19.8560391 15.1499212,14.9540557 L15.3426019,14.7222302 L15.4300792,14.6201733 L18.5251263,11.5251263 Z" id="Path-29" transform="translate(26.900222, 24.550073) rotate(-360.000000) translate(-26.900222, -24.550073) "></path>
                </g>
            </g>
        </g>
    </g>
</svg>