<?xml version="1.0" encoding="UTF-8"?>
<svg viewBox="0 0 72 73" version="1.1" xmlns="http://www.w3.org/2000/svg" xmlns:xlink="http://www.w3.org/1999/xlink" role="img" aria-label="Tweet for support">
    <title>Tweet for support</title>
    <g id="Style-Guide" stroke="none" stroke-width="1" fill="none" fill-rule="evenodd">
        <g id=".a-icon__tweet--yellow-50">
            <rect id="color" fill="#FFCF00" x="0" y="0" width="42" height="72"></rect>
            <g id="LineArt" transform="translate(23.000000, 0.000000)" fill="#1F2044">
                <path d="M49,43 C49,62.8867209 39.9246272,71.8206344 19.6187688,71.997324 L19,72 L19,65 C36.0099003,65 42.209198,59.1968963 42.331483,43.4793289 L42.3333333,43 L49,43 Z" id="Path-85"></path>
                <path d="M38,43 C38,55.7374427 32.2585697,60.8944751 19.3999597,60.9983944 L19,61 L19,53.8 L19.6837058,53.7960615 C28.6396954,53.6903241 31.2247301,51.4272256 31.3455016,43.5977044 L31.35,43 L38,43 Z" id="Path-85-Copy"></path>
                <path d="M43.0868516,10.5968744 C43.1074817,11.0188734 43.1154164,11.4424588 43.1154164,11.8708036 C43.1154164,24.88138 33.2097729,39.88138 15.0965054,39.88138 C9.53588786,39.88138 4.35772143,38.2520833 0,35.4599099 C0.771250041,35.5503382 1.55360862,35.5963456 2.34866268,35.5963456 C6.96346745,35.5963456 11.2101035,34.0225751 14.5791649,31.3827021 C10.2706384,31.3017925 6.63497206,28.4540929 5.38129401,24.5434636 C5.98115516,24.6608618 6.59847258,24.7195609 7.23324627,24.7195609 C8.13145105,24.7195609 9.00109102,24.6021627 9.82788376,24.3752986 C5.32099051,23.4710151 1.92653817,19.488995 1.92653817,14.7232626 C1.92653817,14.6804281 1.92653817,14.6391801 1.9281251,14.5963456 C3.25480213,15.3340505 4.7734982,15.7766735 6.38899726,15.8290267 C3.74516481,14.0601214 2.00747182,11.0506026 2.00747182,7.63336308 C2.00747182,5.82955557 2.49307369,4.13680041 3.34049658,2.68360105 C8.19810229,8.63918011 15.4551526,12.5593282 23.6405594,12.9686354 C23.4723444,12.249968 23.385063,11.4963985 23.385063,10.7253779 C23.385063,5.29015842 27.7935663,0.88138 33.2335769,0.88138 C36.0662545,0.88138 38.6243925,2.07757249 40.4208021,3.98925943 C42.6647271,3.5498094 44.7721758,2.72802199 46.6749099,1.60004737 C45.9369855,3.90041755 44.3770291,5.82955557 42.3425794,7.04637207 C44.3373558,6.80840274 46.2353291,6.27852437 48,5.49639851 C46.6828446,7.47471686 45.0118028,9.20872003 43.0868516,10.5968744 Z" id="Path"></path>
            </g>
        </g>
    </g>
</svg>