<?xml version="1.0" encoding="UTF-8"?>
<svg viewBox="0 0 74 72" version="1.1" xmlns="http://www.w3.org/2000/svg" xmlns:xlink="http://www.w3.org/1999/xlink" role="img" aria-label="Watch support videos">
    <title>Watch support videos</title>
    <g id="Symbols" stroke="none" stroke-width="1" fill="none" fill-rule="evenodd">
        <g id="Atoms/Icons/Youtube/.a-icon__youtube--orange-50" transform="translate(1.000000, 0.000000)">
            <g id=".a-icon__youtube--orange-50" transform="translate(-0.500000, 0.000000)">
                <polygon id="Rectangle" fill="#FF9144" points="0.5 0 72.5 0 59.9580329 16.9968207 27.6168831 16.0617558 6.68130988 48.5880881 8.21976461 55.265625 30.2296434 57.2846083 19.3711445 72 0.5 72"></polygon>
                <path d="M38.0093095,12 C45.6060531,12 52.5288465,12.3066166 58.6435725,12.8135515 C64.094129,13.287896 68.418988,17.6079936 68.9043111,23.0446063 C69.2821963,27.0228015 69.5,31.3460534 69.5,35.99815 C69.5,40.2952531 69.3144469,44.3097029 68.9886546,48.0311438 L68.9031714,48.9552941 L68.8766187,49.2254758 C68.2776145,54.448669 64.1479665,58.5721612 58.9204115,59.1552687 L58.6341979,59.1835488 C52.5635475,59.6915536 45.6206088,60 38.0093095,60 L36.0715627,59.9951838 C35.7517492,59.9935853 35.4335113,59.9915924 35.1168541,59.9892103 L33.235921,59.970289 L31.3931736,59.9422765 C31.0892449,59.936864 30.7869177,59.9310832 30.486197,59.9249391 L28.7011928,59.8837584 C28.406919,59.8761825 28.1142621,59.8682538 27.8232272,59.8599776 L26.096524,59.8061909 L24.408998,59.7443124 L22.760897,59.6745922 L21.1524689,59.5972799 L19.5839617,59.5126255 L18.0556231,59.4208789 C17.8042612,59.4050106 17.5545833,59.3888573 17.3065946,59.372424 L15.8389738,59.2705074 C15.3565512,59.2354433 14.8809266,59.1993014 14.4121415,59.1621231 C8.93792559,58.7224451 4.57912703,54.3947358 4.08845184,48.9384 C3.71506146,45.0298082 3.5,40.7352731 3.5,36.1276471 C3.5,31.3914093 3.71666837,27.0011487 4.09043446,23.0912201 C4.57747635,17.6112009 8.93631804,13.2775847 14.4186679,12.8376506 L15.1266434,12.7826914 L16.5733065,12.6775554 L18.0607023,12.5790046 L19.5885709,12.4872894 L21.1566521,12.4026603 L22.7646858,12.3253679 L24.4124121,12.2556626 L26.0995709,12.193795 L27.8259021,12.1400157 L29.5911457,12.094575 C29.8885812,12.0877103 30.1876272,12.0812036 30.4882783,12.0750599 L32.3114028,12.042597 C32.6184527,12.0379266 32.9270968,12.0336298 33.2373297,12.0297117 L35.11775,12.0107902 L37.0360425,12.0012093 C37.3588994,12 37.6833236,12 38.0093095,12 Z M38.0093095,17.6470588 L37.0521754,17.6482452 L35.1661243,17.6576424 C34.5437332,17.6623149 33.9276493,17.6685136 33.3179169,17.6761967 L31.5078184,17.7036579 L29.7360942,17.7397755 L28.0030094,17.7842991 L26.3088294,17.8369784 C26.0297229,17.846424 25.7522484,17.856199 25.4764116,17.8662982 L23.8410861,17.9307414 L22.2453286,18.0027144 L20.6894043,18.0819666 L19.1735784,18.1682478 L17.6981163,18.2613074 L16.2632832,18.3608952 L14.8693444,18.4667607 C12.1436682,18.6854846 9.96922326,20.8473457 9.72372454,23.6089054 C9.36498964,27.3622222 9.15714286,31.5737346 9.15714286,36.1276471 C9.15714286,40.5515167 9.36326981,44.6676396 9.72149067,48.4178954 C9.96764307,51.1548811 12.1428236,53.3145471 14.8630207,53.5330293 L16.2575506,53.6389411 L17.6929063,53.7385679 L19.1688344,53.8316599 L20.6850814,53.9179673 L22.2413936,53.9972404 L23.8375176,54.0692294 L25.4731999,54.1336846 L27.1481868,54.1903561 C27.4306126,54.1991388 27.7146656,54.2075868 28.0003404,54.2156949 L29.733809,54.2602226 L31.5059485,54.2963422 L33.3165053,54.323804 C33.6214522,54.3276456 33.9279892,54.331116 34.236111,54.3342101 L36.1038185,54.3482168 L38.0093095,54.3529412 C42.9748073,54.3529412 47.6459409,54.2189541 51.9598016,53.9830631 L53.7865417,53.8758215 C55.2902913,53.7814102 56.747324,53.6745856 58.1547741,53.5568092 C60.7926531,53.3296343 62.9069629,51.2852263 63.2462584,48.664264 L63.2709647,48.4382271 L66.0953429,48.6889412 L63.2724292,48.4223318 C63.606199,44.9085625 63.8098235,41.1053203 63.8391754,37.0242099 L63.8428571,35.99815 C63.8428571,31.529985 63.6339784,27.3838858 63.2709647,23.5617729 C63.0273513,20.833059 60.867485,18.6755706 58.1638018,18.4402538 C57.5685529,18.3909077 56.9651551,18.3434988 56.3537559,18.2981332 L54.4957023,18.1682723 C49.4776696,17.8388882 43.9570042,17.6470588 38.0093095,17.6470588 Z" id="Fill-1" fill="#1F2044"></path>
                <polygon id="Fill-4" fill="#1F2044" points="28.5 45 46.5 36.5 28.5 28"></polygon>
            </g>
        </g>
    </g>
</svg>