<?xml version="1.0" encoding="UTF-8"?>
<svg viewBox="0 0 72 73" version="1.1" xmlns="http://www.w3.org/2000/svg" xmlns:xlink="http://www.w3.org/1999/xlink" role="img" aria-label="Find support in knowledge base answers">
    <title>Find support in knowledge base answers</title>
    <g id="Symbols" stroke="none" stroke-width="1" fill="none" fill-rule="evenodd">
        <g id="Atoms/Icons/Book/.a-icon__book--orange-50">
            <g id=".a-icon__book--orange-50">
                <rect id="color" fill="#FF9144" x="36" y="0" width="36" height="72"></rect>
                <g id="LineArt" transform="translate(0.000000, 6.000000)" fill="#1F2044">
                    <path d="M66,54.5 L9.63769531,54.5 C8.25698344,54.5 7.13769531,55.6192881 7.13769531,57 C7.13769531,58.3254834 8.16923125,59.4100387 9.47331962,59.4946823 L9.63769531,59.5 L66,59.5 L66,66.5 L9.63769531,66.5 C4.39099019,66.5 0.137695312,62.2467051 0.137695312,57 L0,57 L0,10.5 C0,4.79607553 4.54814202,0.154426556 10.2157049,0.00377424464 L10.5,0 L65.8623047,0 L65.8623047,7 L10.5,7 C8.6314366,7 7.10487355,8.4642776 7.00517886,10.3079648 L7,10.5 L6.99912358,35.8712177 C7.75407904,35.6533946 8.5476693,35.5266883 9.36721664,35.5037764 L9.63769531,35.5 L66,35.5 L66,42.5 L65.862,42.5 L65.8623047,43 L8.13774038,42.9997831 C7.5304914,43.4558841 7.13769531,44.1820708 7.13769531,45 C7.13769531,46.3254834 8.16923125,47.4100387 9.47331962,47.4946823 L9.63769531,47.5 L66,47.5 L66,54.5 Z" id="Combined-Shape"></path>
                    <polygon id="Path-22-Copy-2" points="22.5 3 22.5 14.962 26 12.9583815 29.5 14.962 29.5 3.98319328 36.5 3.98319328 36.5 27.0374168 26 21.024 15.5 27.0374168 15.5 3"></polygon>
                </g>
            </g>
        </g>
    </g>
</svg>