<?xml version="1.0" encoding="UTF-8"?>
<svg viewBox="0 0 72 72" version="1.1" xmlns="http://www.w3.org/2000/svg" xmlns:xlink="http://www.w3.org/1999/xlink" role="img" aria-label="Chat for support">
    <title>Chat for support</title>
    <g id="Symbols" stroke="none" stroke-width="1" fill="none" fill-rule="evenodd">
        <g id="Atoms/Icons/Chat/.a-icon__chat--orange-50">
            <g id=".a-icon__chat--orange-50">
                <g id="color" transform="translate(1.000000, 0.000000)" fill="#FF9144">
                    <path d="M44,0 L68,0 L68,0 C68,7.7319865 61.7319865,14 54,14 L44,14 C40.1340068,14 37,10.8659932 37,7 C37,3.13400675 40.1340068,7.10171439e-16 44,0 Z" id="Rectangle-Copy-22" transform="translate(52.500000, 7.000000) scale(-1, -1) translate(-52.500000, -7.000000) "></path>
                    <path d="M5.5,61 L24,61 L24,61 C24,67.0751322 19.0751322,72 13,72 L5.5,72 C2.46243388,72 3.71994563e-16,69.5375661 0,66.5 C-3.71994563e-16,63.4624339 2.46243388,61 5.5,61 Z" id="Rectangle-Copy-26"></path>
                    <polygon id="Rectangle-Copy-6" points="34 24 71 24 71 72 34 72"></polygon>
                </g>
                <g id="LineArt" transform="translate(0.000000, 18.000000)" fill="#1F2044">
                    <path d="M72,0 L72,54 L56.5,40 L0,40 L0,0 L72,0 Z M65,7 L7,7 L7,33 L59.1932993,33 L65,38.244 L65,7 Z" id="Rectangle"></path>
                    <rect id="Rectangle" x="22" y="17" width="7" height="7"></rect>
                    <rect id="Rectangle" x="32" y="17" width="7" height="7"></rect>
                    <rect id="Rectangle" x="42" y="17" width="7" height="7"></rect>
                </g>
            </g>
        </g>
    </g>
</svg>