<?xml version="1.0" encoding="UTF-8"?>
<svg width="72px" height="72px" viewBox="0 0 72 72" version="1.1" xmlns="http://www.w3.org/2000/svg" xmlns:xlink="http://www.w3.org/1999/xlink">
    <title>A62731E2-B166-4396-9CB2-7A8126CB32E5</title>
    <g id="Contact" stroke="none" stroke-width="1" fill="none" fill-rule="evenodd">
        <g id="Contact--xl" transform="translate(-422.000000, -1257.000000)">
            <g id=".o-support__full-xl" transform="translate(398.000000, 1021.000000)">
                <g id="Organisms-&amp;-Components/Features/5-Up-Features/.o-features__5up-single-xl" transform="translate(0.000000, 210.000000)">
                    <g id=".a-icon__book--blue-50" transform="translate(24.000000, 26.000000)">
                        <rect id="color" fill="#2E93EE" x="36" y="0" width="36" height="71.0136986"></rect>
                        <g id="LineArt" transform="translate(0.000000, 5.917808)" fill="#1F2044">
                            <path d="M66,53.7534247 L9.63769531,53.7534247 C8.25698344,53.7534247 7.13769531,54.8573801 7.13769531,56.2191781 C7.13769531,57.5265042 8.16923125,58.5962025 9.47331962,58.6796867 L9.63769531,58.6849315 L66,58.6849315 L66,65.5890411 L9.63769531,65.5890411 C4.39099019,65.5890411 0.137695312,61.3940105 0.137695312,56.2191781 L0,56.2191781 L0,10.3561644 C0,4.73037587 4.54814202,0.152311124 10.2157049,0.00372254266 L10.5,0 L65.8623047,0 L65.8623047,6.90410959 L10.5,6.90410959 C8.6314366,6.90410959 7.10487355,8.34832859 7.00517886,10.1667598 L7,10.3561644 L6.99912358,35.3798312 C7.75407904,35.164992 8.5476693,35.0400213 9.36721664,35.0174233 L9.63769531,35.0136986 L66,35.0136986 L66,41.9178082 L65.862,41.917 L65.8623047,42.4109589 L8.13875718,42.4099921 C7.53092991,42.8597987 7.13769531,43.5763868 7.13769531,44.3835616 C7.13769531,45.6908877 8.16923125,46.7605861 9.47331962,46.8440702 L9.63769531,46.8493151 L66,46.8493151 L66,53.7534247 Z" id="Combined-Shape"></path>
                            <polygon id="Path-22-Copy-2" points="22.5 2.95890411 22.5 14.7570411 26 12.7808694 29.5 14.7570411 29.5 3.92862899 36.5 3.92862899 36.5 26.6670412 26 20.736 15.5 26.6670412 15.5 2.95890411"></polygon>
                        </g>
                    </g>
                </g>
            </g>
        </g>
    </g>
</svg>