<svg width="283" height="202" viewBox="0 0 283 202" fill="none" xmlns="http://www.w3.org/2000/svg">
<path d="M283 28.3802H237.787V134.11H283V28.3802Z" fill="#191936"/>
<path d="M65.3077 9.46008H0V66.2204H65.3077V9.46008Z" fill="#191936"/>
<path d="M124.475 145.24H25.1184V202H124.475V145.24Z" fill="#191936"/>
<path d="M52.7207 41.1512H35.1658V175.011H52.7207V41.1512Z" fill="#2E93EE"/>
<path fill-rule="evenodd" clip-rule="evenodd" d="M35.1658 53.4493L35.1658 14.539L248.672 14.6631V61.9633L227.796 81.3564L219.44 47.5903L52.7207 41.1512L35.1658 53.4493Z" fill="#FFCF00"/>
<path fill-rule="evenodd" clip-rule="evenodd" d="M35.1658 175.011L108.707 116.832L141.335 157.339L131.401 188.761H49.1936C41.5378 188.761 35.2954 182.642 35.1658 175.011Z" fill="#FFCF00"/>
<path fill-rule="evenodd" clip-rule="evenodd" d="M248.672 60.5444L248.672 188.682L99.6919 188.728L248.672 60.5444Z" fill="#FF9144"/>
<path fill-rule="evenodd" clip-rule="evenodd" d="M52.4695 40.956H230.974V171.032H156.889H52.4695V40.956Z" fill="white"/>
<path fill-rule="evenodd" clip-rule="evenodd" d="M231.171 0V29.078H52.6663V0H231.171ZM227.85 3.31102H55.9873V25.7668H227.85V3.31102Z" fill="white"/>
<path d="M74.8336 13.2673H66.6667V16.5784H74.8336V13.2673Z" fill="white"/>
<path d="M96.4174 13.2673H82.417V16.5784H96.4174V13.2673Z" fill="white"/>
<path d="M199.328 2.83801H196.007V26.4881H199.328V2.83801Z" fill="white"/>
<path fill-rule="evenodd" clip-rule="evenodd" d="M142.002 47.7177C174.495 47.7177 200.835 73.9772 200.835 106.37C200.835 138.763 174.495 165.022 142.002 165.022C109.51 165.022 83.1697 138.763 83.1697 106.37C83.1697 73.9772 109.51 47.7177 142.002 47.7177ZM143.232 109.925L128.13 151.22C132.515 152.567 137.174 153.292 142.002 153.292C148.069 153.292 153.868 152.147 159.194 150.063L149.43 125.423C146.057 116.346 144.052 111.254 143.417 110.152L143.375 110.083C143.309 109.977 143.262 109.925 143.232 109.925ZM98.6983 87.9573C96.2766 93.6106 94.9362 99.8342 94.9362 106.37C94.9362 124.454 105.198 140.148 120.233 147.982L98.6983 87.9573ZM184.584 86.3548L184.595 86.4992C184.595 89.441 184.165 92.8359 183.311 96.6805L183.207 97.144L167.324 145.93C180.4 137.594 189.069 122.991 189.069 106.37C189.069 99.2106 187.46 92.4257 184.584 86.3548ZM142.002 59.4481C126.146 59.4481 112.121 67.2651 103.593 79.2443L103.2 79.8058C103.076 80.0087 102.961 80.2053 102.857 80.3958L102.781 80.5375V80.961H103.585L118.895 80.3297C119.794 80.7302 120.263 81.3272 120.304 82.1139L120.306 82.2276V82.8629C120.306 83.9656 118.106 84.5288 113.699 84.5485L113.456 84.5491H113.258V84.7608L130.379 138.362H130.582L140.853 106.074L133.602 84.7608L132.595 84.5491C128.775 84.5491 126.827 83.8067 126.754 82.3145L126.752 82.2276H126.954C126.954 81.4314 127.254 80.8205 127.853 80.4016L127.961 80.3297L141.257 80.961L154.351 80.3297C154.989 80.4625 155.444 80.9776 155.72 81.8715L155.762 82.0158V82.6511C155.762 83.8916 153.491 84.5266 148.955 84.5485L148.71 84.5491H148.508L160.595 122.112C162.255 127.548 163.524 131.584 164.4 134.221L164.551 134.671C165.262 136.788 165.685 137.878 165.82 137.94L165.832 137.943L169.058 126.335C172.415 116.346 174.093 109.522 174.093 105.862C174.093 101.503 173.151 97.423 171.271 93.6231C167.58 87.8212 165.7 83.5079 165.635 80.6871L165.633 80.5375V78.6395C167.085 73.9365 169.643 71.5438 173.3 71.4654L173.455 71.4626C165.119 63.993 154.093 59.4481 142.002 59.4481Z" fill="#1F2044"/>
<path fill-rule="evenodd" clip-rule="evenodd" d="M274.593 199.347C274.397 200.371 273.871 201.302 273.095 202H245.204C244.326 190.191 242.423 178.479 239.517 166.998C239.517 166.998 275.888 193.024 274.593 199.347Z" fill="#2E93EE"/>
<path fill-rule="evenodd" clip-rule="evenodd" d="M150.414 175.005C151.321 151.589 160.206 138.57 166.851 137.36C173.496 136.15 176.212 143.343 176.212 143.343C189.501 137.647 200.141 139.938 200.141 139.938C200.141 139.938 209.335 124.095 222.495 126.586C242.534 130.378 243.608 179.961 243.608 179.961C224.451 166.834 213.686 187.592 203.071 197.563C201.189 199.296 199.061 200.744 196.756 201.863H172.982C173.178 197.11 171.431 194.124 168.134 190.257C163.871 185.267 144.873 189.151 140.744 188.178C136.615 187.205 134.475 182.772 134.475 182.772C138.313 177.892 144.187 175.03 150.414 175.005Z" fill="#2E93EE"/>
<path fill-rule="evenodd" clip-rule="evenodd" d="M174.482 173.366C174.482 173.366 171.933 156.413 163.081 150.471C163.081 150.471 160.666 163.47 157.038 173.549C162.844 173.139 168.669 173.077 174.482 173.366Z" fill="white"/>
<path fill-rule="evenodd" clip-rule="evenodd" d="M222.516 146.412C222.516 146.412 209.385 150.454 197.542 174.585C197.542 174.585 217.317 174.302 225.701 176.194C225.701 176.194 220.009 160.634 222.516 146.412Z" fill="white"/>
<path fill-rule="evenodd" clip-rule="evenodd" d="M215.763 156.891C212.775 156.45 209.858 159.415 209.248 163.515C208.637 167.615 210.577 171.291 213.565 171.732C216.553 172.173 219.47 169.204 220.076 165.104C220.682 161.004 218.755 157.328 215.763 156.891Z" fill="#2D578A"/>
<path fill-rule="evenodd" clip-rule="evenodd" d="M167.093 169.902C164.736 169.557 163.203 166.763 163.662 163.665C164.122 160.567 166.404 158.326 168.761 158.675C169.208 158.752 169.634 158.919 170.014 159.166C170.737 160.496 171.686 161.76 172.213 164.509C172.213 164.646 172.213 164.779 172.183 164.925C171.728 168.015 169.45 170.252 167.093 169.902Z" fill="#2D578A"/>
<path fill-rule="evenodd" clip-rule="evenodd" d="M237.841 188.024C240.808 192.527 240.787 197.501 239.705 201.842H208.78C212.898 199.012 216.725 195.783 220.205 192.203C218.444 190.924 216.757 189.547 215.153 188.078C215.153 188.078 231.602 178.556 237.841 188.024Z" fill="#FF9144"/>
<path fill-rule="evenodd" clip-rule="evenodd" d="M140.803 186.544C151.129 185.783 163.202 180.793 171.728 192.203C174.549 195.979 174.942 199.335 174.565 201.842H109.664C108.904 199.052 108.799 195.63 109.731 191.413C112.468 179.001 129.937 175.924 140.803 186.544Z" fill="#FFCF00"/>
<path fill-rule="evenodd" clip-rule="evenodd" d="M234.644 201.842H229.742C230.384 200.638 230.933 199.387 231.384 198.1C233.29 198.12 234.214 199.858 234.644 201.842Z" fill="#FFCF00"/>
<path fill-rule="evenodd" clip-rule="evenodd" d="M235.785 190.012C228.848 181.034 219.069 189.417 219.069 189.417L219.566 189.525C224.999 187.837 225.04 192.282 225.04 192.282C221.611 195.773 217.894 198.972 213.928 201.846H195.122C198.018 200.536 200.668 198.856 202.645 196.694C211.379 187.234 222.729 174.526 233.052 175.025C238.485 175.287 247.595 175.832 251.314 186.727C253.062 191.588 253.266 196.866 251.899 201.846H237.423C238.422 198.349 238.735 193.833 235.785 190.012Z" fill="#FFCF00"/>
<path fill-rule="evenodd" clip-rule="evenodd" d="M159.5 197.355C161.025 198.187 161.761 199.996 161.673 201.842H156.04C153.515 199.193 156.528 195.9 159.5 197.355Z" fill="#ECA93E"/>
<path fill-rule="evenodd" clip-rule="evenodd" d="M120.475 190.17C123.48 189.671 125.114 193.837 121.086 194.964C120.346 196.299 120.969 197.975 123.209 198.86C115.653 199.276 116.589 190.96 120.475 190.17Z" fill="#ECA93E"/>
</svg>
