<?xml version="1.0" encoding="UTF-8"?>
<svg width="450px" height="401px" viewBox="0 0 450 401" version="1.1" xmlns="http://www.w3.org/2000/svg" xmlns:xlink="http://www.w3.org/1999/xlink">
    <title>BAD4782F-40B5-480F-B54B-6C419489FFBA</title>
    <g id="VPS" stroke="none" stroke-width="1" fill="none" fill-rule="evenodd">
        <g id="VPS--xl" transform="translate(-415.000000, -3288.000000)">
            <g id="Molecules/Features/Half-Cards/Illustrations/.m-card__half-illustration-xl--right-Copy-4" transform="translate(395.000000, 3209.000000)">
                <g id=".a-illustration__gator-scales-image-3" transform="translate(20.000000, 79.342995)">
                    <polygon id="Rectangle-Copy-65" fill="#2E93EE" transform="translate(225.000000, 158.631148) rotate(-90.000000) translate(-225.000000, -158.631148) " points="271.586595 -66.0011832 353.631148 -66.3688525 353.368852 383.631148 130.368852 383.631148 96.3688525 326.631148 276.368852 82.6311475 297.368852 -30.3688525"></polygon>
                    <path d="M155.000355,134.845891 L181.79918,134.631148 L181.79918,134.631148 L264.79918,302.631148 L180.704918,519.79918 L120.79918,409.631148 L120.423144,169.755972 C120.393103,150.592929 135.837904,134.999444 155.000355,134.845891 Z" id="Rectangle-Copy-71" fill="#2E93EE" transform="translate(192.584016, 327.215164) rotate(-90.000000) translate(-192.584016, -327.215164) "></path>
                    <polygon id="Rectangle-Copy-68" fill="#FFCF00" transform="translate(355.000000, 309.196721) rotate(-270.000000) translate(-355.000000, -309.196721) " points="264.803279 214.196721 445.196721 214.196721 444.803279 404.196721"></polygon>
                    <polygon id="Path-3" fill="#1F2044" points="8.81072992e-13 338 3.63797881e-12 110.262295 36 86.2622951 388 149"></polygon>
                    <g id="Inner-Site" transform="translate(34.885246, 85.295082)">
                        <polygon id="BG" fill="#FFFFFF" points="0.114754098 0.704918033 376.114754 0.704918033 376.114754 280.704918 220.062467 280.704918 0.114754098 280.704918"></polygon>
                        <g id="Small-Section-4" transform="translate(310.000000, 192.000000)">
                            <path d="M0.114754098,41.704918 L43.1147541,41.704918 L43.1147541,64.704918 L23.1147541,64.704918 C10.4122049,64.704918 0.114754098,54.4074673 0.114754098,41.704918 L0.114754098,41.704918 L0.114754098,41.704918 Z" id="Rectangle-Copy-51" fill="#FFD54C"></path>
                            <rect id="Rectangle-Copy-109" fill="#1F2044" x="0.114754098" y="-0.295081967" width="43" height="42"></rect>
                            <polygon id="Rectangle-Copy-113" fill="#3C97FF" points="0.114754098 -0.295081967 43.1147541 -0.295081967 0.114754098 41.704918"></polygon>
                        </g>
                        <g id="Small-Section-3" transform="translate(250.000000, 192.000000)">
                            <path d="M0.114754098,41.704918 L43.1147541,41.704918 L43.1147541,64.704918 L23.1147541,64.704918 C10.4122049,64.704918 0.114754098,54.4074673 0.114754098,41.704918 L0.114754098,41.704918 L0.114754098,41.704918 Z" id="Rectangle-Copy-51" fill="#FFD54C"></path>
                            <rect id="Rectangle-Copy-109" fill="#1F2044" x="0.114754098" y="-0.295081967" width="43" height="42"></rect>
                            <polygon id="Rectangle-Copy-113" fill="#3C97FF" points="0.114754098 -0.295081967 43.1147541 -0.295081967 0.114754098 41.704918"></polygon>
                        </g>
                        <g id="Small-Section-2" transform="translate(189.000000, 192.000000)">
                            <path d="M0.114754098,41.704918 L43.1147541,41.704918 L43.1147541,64.704918 L23.1147541,64.704918 C10.4122049,64.704918 0.114754098,54.4074673 0.114754098,41.704918 L0.114754098,41.704918 L0.114754098,41.704918 Z" id="Rectangle-Copy-51" fill="#FFD54C"></path>
                            <rect id="Rectangle-Copy-109" fill="#1F2044" x="0.114754098" y="-0.295081967" width="43" height="42"></rect>
                            <polygon id="Rectangle-Copy-113" fill="#3C97FF" points="0.114754098 -0.295081967 43.1147541 -0.295081967 0.114754098 41.704918"></polygon>
                        </g>
                        <g id="Small-Section-1" transform="translate(129.000000, 192.000000)">
                            <path d="M0.114754098,41.704918 L43.1147541,41.704918 L43.1147541,64.704918 L23.1147541,64.704918 C10.4122049,64.704918 0.114754098,54.4074673 0.114754098,41.704918 L0.114754098,41.704918 L0.114754098,41.704918 Z" id="Rectangle-Copy-51" fill="#FFD54C"></path>
                            <rect id="Rectangle-Copy-109" fill="#1F2044" x="0.114754098" y="-0.295081967" width="43" height="42"></rect>
                            <polygon id="Rectangle-Copy-113" fill="#3C97FF" points="0.114754098 -0.295081967 43.1147541 -0.295081967 0.114754098 41.704918"></polygon>
                        </g>
                        <rect id="Rectangle" fill="#3C97FF" x="21" y="23" width="18" height="13"></rect>
                    </g>
                    <polygon id="Rectangle-Copy-20" fill="#1F2044" transform="translate(275.000000, 203.819672) rotate(-180.000000) translate(-275.000000, -203.819672) " points="162 148.819672 388 148.819672 388 258.819672 162 258.819672"></polygon>
                    <polygon id="Rectangle-Copy-27" fill="#2E93EE" transform="translate(275.000000, 203.819672) rotate(-360.000000) translate(-275.000000, -203.819672) " points="388 148.819672 388 258.819672 162 258.819672"></polygon>
                    <polygon id="Path-18" fill="#1F2044" points="376 113 354 132 354 113"></polygon>
                    <polygon id="Path-18-Copy-3" fill="#2E93EE" transform="translate(377.000000, 122.000000) scale(-1, 1) rotate(-90.000000) translate(-377.000000, -122.000000) " points="387 111 367 133 367 111"></polygon>
                    <polygon id="Path-18" fill="#FFCF00" points="332 113 310 132 310 113"></polygon>
                    <polygon id="Path-18-Copy-3" fill="#FF9144" transform="translate(333.000000, 122.000000) scale(-1, 1) rotate(-90.000000) translate(-333.000000, -122.000000) " points="343 111 323 133 323 111"></polygon>
                    <rect id="Rectangle" fill="#1F2044" x="65.3934426" y="26.0491803" width="17.2131148" height="8.60655738"></rect>
                    <rect id="Rectangle" fill="#1F2044" x="98.5901639" y="26.0491803" width="29.5081967" height="8.60655738"></rect>
                    <rect id="Rectangle-Copy-61" fill="#1F2044" x="144" y="26.0491803" width="24" height="8.60655738"></rect>
                    <rect id="Rectangle" fill="#1F2044" transform="translate(362.934426, 30.352459) scale(1, -1) translate(-362.934426, -30.352459) " x="345.791569" y="26.352459" width="34.2857143" height="8"></rect>
                    <path d="M415,0 L415,60 L35,60 L35,0 L415,0 Z M407,8 L43,8 L43,52 L407,52 L407,8 Z" id="Path-12" fill="#1F2044"></path>
                    <g id="Group" transform="translate(57.000000, 109.000000)">
                        <rect id="Rectangle" fill="#1F2044" x="24" y="0" width="48" height="12"></rect>
                        <rect id="Rectangle-Copy-2" fill="#1F2044" x="0" y="42" width="41" height="12"></rect>
                        <rect id="Rectangle-Copy-3" fill="#CDD8DF" x="0" y="61" width="57" height="12"></rect>
                        <rect id="Rectangle-Copy-4" fill="#CDD8DF" x="0" y="82" width="41" height="12"></rect>
                        <rect id="Rectangle-Copy-5" fill="#CDD8DF" x="0" y="103" width="48" height="12"></rect>
                        <rect id="Rectangle-Copy-6" fill="#CDD8DF" x="0" y="122" width="54" height="12"></rect>
                        <rect id="Rectangle-Copy" fill="#1F2044" x="105" y="6" width="105" height="18"></rect>
                    </g>
                </g>
            </g>
        </g>
    </g>
</svg>