<?xml version="1.0" encoding="UTF-8"?>
<svg width="432px" height="406px" viewBox="0 0 432 406" version="1.1" xmlns="http://www.w3.org/2000/svg" xmlns:xlink="http://www.w3.org/1999/xlink">
    <title>a-illustration__checklist</title>
    <g id="Transfer-Domain" stroke="none" stroke-width="1" fill="none" fill-rule="evenodd">
        <g id="Transfer--xl" transform="translate(-417.000000, -2112.000000)">
            <g id=".a-illustration__checklist" transform="translate(417.000000, 2112.000000)">
                <polygon id="Rectangle-Copy-5" fill="#1F2044" points="0 79 71 46 71 406 0 406"></polygon>
                <rect id="Rectangle" fill="#2E93EE" x="71" y="46" width="361" height="360"></rect>
                <polygon id="Rectangle" fill="#FF9144" points="71 46 432 406 71 406"></polygon>
                <rect id="Rectangle-Copy-8" fill="#1F2044" x="99" y="74" width="88" height="88"></rect>
                <rect id="Rectangle-Copy-9" fill="#1F2044" x="99" y="290" width="88" height="88"></rect>
                <rect id="Rectangle-Copy-11" fill="#1F2044" x="99" y="181" width="88" height="88"></rect>
                <rect id="Rectangle-Copy-8" fill="#FFFFFF" x="106" y="74" width="81" height="81"></rect>
                <polygon id="Rectangle-Copy-8" fill="#FFCF00" points="187 74 187 155 106 155"></polygon>
                <rect id="Rectangle-Copy-10" fill="#FFFFFF" x="106" y="290" width="81" height="81"></rect>
                <polygon id="Rectangle-Copy-10" fill="#FFCF00" points="187 290 187 371 106 371"></polygon>
                <rect id="Rectangle-Copy-12" fill="#2E93EE" x="106" y="181" width="81" height="81"></rect>
                <polygon id="Rectangle-Copy-12" fill="#FFFFFF" points="187 181 187 262 106 262"></polygon>
                <polygon id="Rectangle-Copy-13" fill="#1F2044" points="320 162.8 432 118 432 406 320 406"></polygon>
                <polygon id="Rectangle-Copy-14" fill="#FFCF00" points="226 199.955556 321 162 321 406 226 406"></polygon>
                <g id="LineArt" transform="translate(110.000000, 79.000000)" fill="#1F2044">
                    <path d="M36,0 C55.882251,0 72,16.117749 72,36 C72,55.882251 55.882251,72 36,72 C16.117749,72 0,55.882251 0,36 C0,16.117749 16.117749,0 36,0 Z M36,9.33333333 C21.2724067,9.33333333 9.33333333,21.2724067 9.33333333,36 C9.33333333,50.7275933 21.2724067,62.6666667 36,62.6666667 C50.7275933,62.6666667 62.6666667,50.7275933 62.6666667,36 C62.6666667,21.2724067 50.7275933,9.33333333 36,9.33333333 Z" id="Oval" transform="translate(36.000000, 36.000000) rotate(-360.000000) translate(-36.000000, -36.000000) "></path>
                    <polygon id="Path-5" transform="translate(39.183375, 37.300244) rotate(-15.000000) translate(-39.183375, -37.300244) " points="54.8826572 24.4822863 59.67702 32.4901073 30.2335612 50.1182016 18.6897301 31.3158731 26.6436033 26.4325328 33.3573333 37.368"></polygon>
                </g>
                <g id="LineArt" transform="translate(110.000000, 185.000000)" fill="#1F2044">
                    <path d="M36,0 C55.882251,0 72,16.117749 72,36 C72,55.882251 55.882251,72 36,72 C16.117749,72 0,55.882251 0,36 C0,16.117749 16.117749,0 36,0 Z M36,9.33333333 C21.2724067,9.33333333 9.33333333,21.2724067 9.33333333,36 C9.33333333,50.7275933 21.2724067,62.6666667 36,62.6666667 C50.7275933,62.6666667 62.6666667,50.7275933 62.6666667,36 C62.6666667,21.2724067 50.7275933,9.33333333 36,9.33333333 Z" id="Oval" transform="translate(36.000000, 36.000000) rotate(-360.000000) translate(-36.000000, -36.000000) "></path>
                    <polygon id="Path-5" transform="translate(39.183375, 37.300244) rotate(-15.000000) translate(-39.183375, -37.300244) " points="54.8826572 24.4822863 59.67702 32.4901073 30.2335612 50.1182016 18.6897301 31.3158731 26.6436033 26.4325328 33.3573333 37.368"></polygon>
                </g>
                <g id="LineArt" transform="translate(110.000000, 295.000000)" fill="#1F2044">
                    <path d="M36,0 C55.882251,0 72,16.117749 72,36 C72,55.882251 55.882251,72 36,72 C16.117749,72 0,55.882251 0,36 C0,16.117749 16.117749,0 36,0 Z M36,9.33333333 C21.2724067,9.33333333 9.33333333,21.2724067 9.33333333,36 C9.33333333,50.7275933 21.2724067,62.6666667 36,62.6666667 C50.7275933,62.6666667 62.6666667,50.7275933 62.6666667,36 C62.6666667,21.2724067 50.7275933,9.33333333 36,9.33333333 Z" id="Oval" transform="translate(36.000000, 36.000000) rotate(-360.000000) translate(-36.000000, -36.000000) "></path>
                    <polygon id="Path-5" transform="translate(39.183375, 37.300244) rotate(-15.000000) translate(-39.183375, -37.300244) " points="54.8826572 24.4822863 59.67702 32.4901073 30.2335612 50.1182016 18.6897301 31.3158731 26.6436033 26.4325328 33.3573333 37.368"></polygon>
                </g>
                <g id="Group-5" transform="translate(354.000000, 105.000000)">
                    <rect id="Rectangle-Copy-3" fill="#FF9144" x="31" y="73" width="13" height="228"></rect>
                    <rect id="Rectangle-Copy-4" fill="#FF9144" x="0" y="73" width="44" height="228"></rect>
                    <rect id="Rectangle-Copy-2" fill="#FFCF00" x="13" y="73" width="18" height="228"></rect>
                    <polygon id="Rectangle" fill="#FFFFFF" points="22 0.47265625 44 73 0 73"></polygon>
                    <polygon id="Rectangle" fill="#1F2044" points="22 0 30 26 14 26"></polygon>
                </g>
                <g id="Group-4" transform="translate(265.500000, 32.000000) scale(-1, 1) translate(-265.500000, -32.000000) translate(99.000000, 0.000000)" fill="#1F2044">
                    <path d="M190,0 C177.135276,4.74074074 159.864012,15.7460317 159.864012,32 C159.864012,48.2539683 177.135276,58.5820106 190,64 L0,64 L0,0 L190,0 Z M171.249847,7.11111111 L7.11229947,7.11111111 L7.11229947,56.8888889 L171.71123,56.8888889 L171.501324,56.5443177 C167.576474,50.0115819 157.47209,44.0645138 157.392369,34.3313492 C157.392369,39.2046524 157.392369,38.427536 157.392369,32 C157.392369,22.3586961 167.358448,13.768078 171.089336,7.38262453 L171.249847,7.11111111 Z" id="Path-12"></path>
                    <path d="M187,0 C204.673112,0 219,14.326888 219,32 C219,49.673112 204.673112,64 187,64 C169.326888,64 155,49.673112 155,32 C155,14.326888 169.326888,0 187,0 Z M187,7.11111111 C173.254246,7.11111111 162.111111,18.2542462 162.111111,32 C162.111111,45.7457538 173.254246,56.8888889 187,56.8888889 C200.745754,56.8888889 211.888889,45.7457538 211.888889,32 C211.888889,18.2542462 200.745754,7.11111111 187,7.11111111 Z" id="Oval-Copy-12"></path>
                    <path d="M244,0 C261.673112,0 276,14.326888 276,32 C276,49.673112 261.673112,64 244,64 C226.326888,64 212,49.673112 212,32 C212,14.326888 226.326888,0 244,0 Z M244,7.11111111 C230.254246,7.11111111 219.111111,18.2542462 219.111111,32 C219.111111,45.7457538 230.254246,56.8888889 244,56.8888889 C257.745754,56.8888889 268.888889,45.7457538 268.888889,32 C268.888889,18.2542462 257.745754,7.11111111 244,7.11111111 Z" id="Oval-Copy-16"></path>
                    <path d="M301,0 C318.673112,0 333,14.326888 333,32 C333,49.673112 318.673112,64 301,64 C283.326888,64 269,49.673112 269,32 C269,14.326888 283.326888,0 301,0 Z M301,7.11111111 C287.254246,7.11111111 276.111111,18.2542462 276.111111,32 C276.111111,45.7457538 287.254246,56.8888889 301,56.8888889 C314.745754,56.8888889 325.888889,45.7457538 325.888889,32 C325.888889,18.2542462 314.745754,7.11111111 301,7.11111111 Z" id="Oval-Copy-17"></path>
                </g>
                <path d="M135.699275,18 L135.699,32.507 L139.943532,27.6905327 L145.196229,32.3175371 L132.386939,46.8589812 L119,32.3801059 L124.139761,27.6279639 L128.699,32.56 L128.699275,18 L135.699275,18 Z" id="Combined-Shape" fill="#1F2044" transform="translate(132.098115, 32.429491) rotate(-270.000000) translate(-132.098115, -32.429491) "></path>
                <g id="Group-Copy-2" transform="translate(246.500000, 32.500000) scale(-1, 1) rotate(-270.000000) translate(-246.500000, -32.500000) translate(233.000000, 18.000000)" fill="#1F2044">
                    <path d="M17.1293945,0 L17.1291194,14.507 L21.3736513,9.69053273 L26.6263487,14.3175371 L13.8170588,28.8589812 L0.430119378,14.3801059 L5.56988062,9.62796386 L10.1291194,14.56 L10.1293945,0 L17.1293945,0 Z" id="Combined-Shape"></path>
                </g>
            </g>
        </g>
    </g>
</svg>