<?xml version="1.0" encoding="UTF-8"?>
<svg width="450px" height="402px" viewBox="0 0 450 402" version="1.1" xmlns="http://www.w3.org/2000/svg" xmlns:xlink="http://www.w3.org/1999/xlink">
    <title>94873CB6-19FD-4340-8EC9-C94398C752E2</title>
    <g id="VPS" stroke="none" stroke-width="1" fill="none" fill-rule="evenodd">
        <g id="Slide-5" transform="translate(-20.000000, -437.000000)">
            <g id="Molecules/Features/Half-Cards/Illustrations/.m-card__half-illustration-xl--right-Copy-3" transform="translate(0.000000, 360.000000)">
                <g id=".a-illustration__gaming" transform="translate(20.000000, 77.333333)">
                    <g id="Group-12-Copy-4">
                        <polygon id="Rectangle-Copy-63" fill="#1F2044" transform="translate(225.000000, 215.577889) rotate(-90.000000) translate(-225.000000, -215.577889) " points="40.5778894 -9.42211055 409.422111 -9.42211055 409.422111 440.577889 40.5778894 440.577889"></polygon>
                        <polygon id="Rectangle-Copy-63" fill="#FF9144" transform="translate(112.000000, 295.477387) rotate(-90.000000) translate(-112.000000, -295.477387) " points="7.47738693 183.477387 216.522613 183.477387 216.522613 407.477387 7.47738693 407.477387"></polygon>
                        <polygon id="Rectangle-Copy-63" fill="#2E93EE" transform="translate(225.000000, 111.055276) rotate(-90.000000) translate(-225.000000, -111.055276) " points="145.100503 -113.944724 304.899497 -113.944724 304.899497 336.055276 230.662169 336.055276 145.100503 336.055276 145.100503 277.055276"></polygon>
                        <polygon id="Rectangle-Copy-63" fill="#1F2044" transform="translate(52.000000, 123.618090) rotate(-90.000000) translate(-52.000000, -123.618090) " points="24.8643216 95.6180905 79.1356784 95.6180905 79.1356784 151.61809"></polygon>
                        <polygon id="Rectangle-Copy-67" fill="#FF9144" transform="translate(282.000000, 123.618090) rotate(-270.000000) translate(-282.000000, -123.618090) " points="254.864322 95.6180905 309.135678 95.6180905 309.135678 151.61809"></polygon>
                        <polygon id="Rectangle-Copy-65" fill="#1F2044" transform="translate(168.000000, 123.618090) rotate(-270.000000) translate(-168.000000, -123.618090) " points="140.864322 95.6180905 195.135678 95.6180905 195.135678 151.61809"></polygon>
                        <polygon id="Rectangle-Copy-68" fill="#FFCF00" transform="translate(396.000000, 123.618090) rotate(-270.000000) translate(-396.000000, -123.618090) " points="368.864322 95.6180905 423.135678 95.6180905 423.135678 151.61809"></polygon>
                        <polygon id="Rectangle-Copy-64" fill="#FFFFFF" transform="translate(109.500000, 123.618090) rotate(-90.000000) translate(-109.500000, -123.618090) " points="82.3643216 95.1180905 136.635678 95.1180905 136.635678 152.11809"></polygon>
                        <polygon id="Rectangle-Copy-69" fill="#FFFFFF" transform="translate(338.500000, 123.618090) rotate(-90.000000) translate(-338.500000, -123.618090) " points="311.364322 95.1180905 365.635678 95.1180905 365.635678 152.11809"></polygon>
                        <polygon id="Rectangle-Copy-66" fill="#FFCF00" transform="translate(224.500000, 123.618090) scale(-1, 1) rotate(-270.000000) translate(-224.500000, -123.618090) " points="197.364322 95.1180905 251.635678 95.1180905 251.635678 152.11809"></polygon>
                        <polygon id="Rectangle-Copy-66" fill="#FFFFFF" transform="translate(224.500000, 123.618090) scale(-1, 1) rotate(-90.000000) translate(-224.500000, -123.618090) " points="197.364322 95.1180905 251.635678 95.1180905 251.635678 152.11809"></polygon>
                        <path d="M394,0 C410.568542,0 424,13.4989523 424,30.1507538 L424,63.3165829 L24,63.3165829 L24,0 L394,0 Z M31,56.281407 L417,56.281407 L417,30.1507538 C417,17.5120364 406.907469,7.24240153 394.380347,7.03827271 L394,7.03517588 L31,7.03517588 L31,56.281407 Z" id="Path-12-Copy" fill="#1F2044" fill-rule="nonzero"></path>
                        <polygon id="Rectangle-Copy-22" fill="#1F2044" transform="translate(333.000000, 31.658291) rotate(-270.000000) translate(-333.000000, -31.658291) " points="305.864322 28.1582915 360.135678 28.1582915 360.135678 35.1582915 305.864322 35.1582915"></polygon>
                    </g>
                    <polygon id="Path-3-Copy" fill="#FFCF00" transform="translate(363.000000, 328.140704) scale(-1, 1) translate(-363.000000, -328.140704) " points="363 256.281407 276 344.723618 276 400 388 400 450 336.683417"></polygon>
                    <polygon id="Path-3-Copy-2" fill="#FFCF00" transform="translate(276.500000, 288.442211) scale(-1, 1) translate(-276.500000, -288.442211) " points="233 228.140704 224 348.743719 329 348.743719 329 228.140704"></polygon>
                    <polygon id="Path-3-Copy-3" fill="#FFFFFF" transform="translate(255.500000, 352.261307) scale(-1, 1) translate(-255.500000, -352.261307) " points="229.4 347.738693 224 356.78392 287 356.78392 287 347.738693"></polygon>
                    <ellipse id="Oval-Copy-5" fill="#FFFFFF" transform="translate(348.500000, 277.889447) scale(-1, 1) translate(-348.500000, -277.889447) " cx="348.5" cy="277.889447" rx="67.5" ry="65.8291457"></ellipse>
                    <path d="M285.5,356.78392 C306.210678,356.78392 323,339.910229 323,319.095477 C323,298.280726 306.210678,281.407035 285.5,281.407035 C264.789322,281.407035 248,298.280726 248,319.095477 C248,339.910229 264.789322,356.78392 285.5,356.78392 Z" id="Oval-Copy-6" fill="#FFFFFF" transform="translate(285.500000, 319.095477) scale(-1, 1) translate(-285.500000, -319.095477) "></path>
                    <path d="M285.5,344.723618 C299.859403,344.723618 311.5,333.249509 311.5,319.095477 C311.5,304.941446 299.859403,293.467337 285.5,293.467337 C271.140597,293.467337 259.5,304.941446 259.5,319.095477 C259.5,333.249509 271.140597,344.723618 285.5,344.723618 Z" id="Oval-Copy-6" fill="#1F2044" transform="translate(285.500000, 319.095477) scale(-1, 1) translate(-285.500000, -319.095477) "></path>
                    <rect id="Rectangle-Copy-2" fill="#FFFFFF" transform="translate(347.000000, 221.608040) scale(-1, 1) translate(-347.000000, -221.608040) " x="314" y="206.030151" width="66" height="31.1557789"></rect>
                    <rect id="Rectangle" fill="#FFFFFF" x="95" y="232.160804" width="34" height="49.2462312"></rect>
                    <ellipse id="Oval" fill="#1F2044" cx="350" cy="251.758794" rx="13.5" ry="13.5678392"></ellipse>
                    <circle id="Oval-Copy-3" fill="#2E93EE" transform="translate(376.000000, 277.889447) rotate(-45.000000) translate(-376.000000, -277.889447) " cx="376" cy="277.889447" r="13.533963"></circle>
                    <ellipse id="Oval-Copy-9" fill="#FF9144" cx="325" cy="277.889447" rx="13.5" ry="13.5678392"></ellipse>
                    <path d="M358.5,18.0904523 C365.955844,18.0904523 372,24.1649808 372,31.6582915 C372,39.1516021 365.955844,45.2261307 358.5,45.2261307 C351.044156,45.2261307 345,39.1516021 345,31.6582915 C345,24.1649808 351.044156,18.0904523 358.5,18.0904523 Z M358.5,25.1256281 C354.910149,25.1256281 352,28.0504011 352,31.6582915 C352,35.2661818 354.910149,38.1909548 358.5,38.1909548 C362.089851,38.1909548 365,35.2661818 365,31.6582915 C365,28.0504011 362.089851,25.1256281 358.5,25.1256281 Z" id="Oval-Copy-10" fill="#1F2044" fill-rule="nonzero"></path>
                    <path d="M390.5,18.0904523 C397.955844,18.0904523 404,24.1649808 404,31.6582915 C404,39.1516021 397.955844,45.2261307 390.5,45.2261307 C383.044156,45.2261307 377,39.1516021 377,31.6582915 C377,24.1649808 383.044156,18.0904523 390.5,18.0904523 Z M390.5,25.1256281 C386.910149,25.1256281 384,28.0504011 384,31.6582915 C384,35.2661818 386.910149,38.1909548 390.5,38.1909548 C394.089851,38.1909548 397,35.2661818 397,31.6582915 C397,28.0504011 394.089851,25.1256281 390.5,25.1256281 Z" id="Oval-Copy-11" fill="#1F2044" fill-rule="nonzero"></path>
                    <ellipse id="Oval-Copy-8" fill="#FFCF00" cx="350" cy="304.020101" rx="13.5" ry="13.5678392"></ellipse>
                    <rect id="Rectangle-Copy-6" fill="#FF9144" x="314" y="181.909548" width="66" height="15.0753769"></rect>
                    <rect id="Rectangle-Copy-3" fill="#1F2044" x="95" y="312.562814" width="34" height="49.2462312"></rect>
                    <polygon id="Rectangle-Copy-4" fill="#FFFFFF" transform="translate(152.000000, 296.984925) rotate(-90.000000) translate(-152.000000, -296.984925) " points="136.422111 273.984925 167.577889 273.984925 167.577889 319.984925 136.422111 319.984925"></polygon>
                    <polygon id="Rectangle-Copy-5" fill="#1F2044" transform="translate(72.000000, 296.984925) rotate(-90.000000) translate(-72.000000, -296.984925) " points="56.4221106 273.984925 87.5778894 273.984925 87.5778894 319.984925 56.4221106 319.984925"></polygon>
                    <path d="M53.1876643,12.241417 L65.9969542,26.8559337 L60.7442567,31.5061894 L56.4997248,26.663417 L56.5,45.5794598 L49.5,45.5794598 L49.4997248,26.611417 L44.9404861,31.5690727 L39.8007248,26.7930505 L53.1876643,12.241417 Z" id="Combined-Shape" fill="#1F2044" fill-rule="nonzero"></path>
                    <path d="M85.8170588,12.241417 L98.6263487,26.8559337 L93.3736513,31.5061894 L89.1291194,26.663417 L89.1293945,45.5794598 L82.1293945,45.5794598 L82.1291194,26.611417 L77.5698806,31.5690727 L72.4301194,26.7930505 L85.8170588,12.241417 Z" id="Combined-Shape" fill="#1F2044" fill-rule="nonzero"></path>
                    <path d="M121.129395,13.2145101 L121.129119,27.7945101 L125.373651,22.9537389 L130.626349,27.6039945 L117.817059,42.2185113 L104.430119,27.6668778 L109.569881,22.8908556 L114.129119,27.8485101 L114.129395,13.2145101 L121.129395,13.2145101 Z" id="Combined-Shape" fill="#1F2044" fill-rule="nonzero"></path>
                    <path d="M186.699275,16.080402 L186.699,30.660402 L190.943532,25.8196309 L196.196229,30.4698865 L183.386939,45.0844032 L170,30.5327698 L175.139761,25.7567476 L179.699,30.714402 L179.699275,16.080402 L186.699275,16.080402 Z" id="Combined-Shape" fill="#1F2044" fill-rule="nonzero" transform="translate(183.098115, 30.582403) rotate(-270.000000) translate(-183.098115, -30.582403) "></path>
                    <g id="Group-Copy-3" transform="translate(263.342535, 30.653266) rotate(-270.000000) translate(-263.342535, -30.653266) translate(249.842535, 16.080402)" fill="#1F2044" fill-rule="nonzero">
                        <path d="M17.1293945,0 L17.1291194,14.58 L21.3736513,9.73922887 L26.6263487,14.3894845 L13.8170588,29.0040012 L0.430119378,14.4523678 L5.56988062,9.67634559 L10.1291194,14.634 L10.1293945,0 L17.1293945,0 Z" id="Combined-Shape"></path>
                    </g>
                    <g id="Group-Copy-2" transform="translate(223.185070, 30.653266) scale(-1, 1) rotate(-270.000000) translate(-223.185070, -30.653266) translate(209.685070, 16.080402)" fill="#1F2044" fill-rule="nonzero">
                        <path d="M17.1293945,0 L17.1291194,14.58 L21.3736513,9.73922887 L26.6263487,14.3894845 L13.8170588,29.0040012 L0.430119378,14.4523678 L5.56988062,9.67634559 L10.1291194,14.634 L10.1293945,0 L17.1293945,0 Z" id="Combined-Shape"></path>
                    </g>
                    <g id="Group-Copy-4" transform="translate(303.500000, 30.653266) scale(-1, 1) rotate(-270.000000) translate(-303.500000, -30.653266) translate(290.000000, 16.080402)" fill="#1F2044" fill-rule="nonzero">
                        <path d="M17.1293945,0 L17.1291194,14.58 L21.3736513,9.73922887 L26.6263487,14.3894845 L13.8170588,29.0040012 L0.430119378,14.4523678 L5.56988062,9.67634559 L10.1291194,14.634 L10.1293945,0 L17.1293945,0 Z" id="Combined-Shape"></path>
                    </g>
                    <g id="Combined-Shape-2" transform="translate(135.430119, 13.214510)" fill="#1F2044" fill-rule="nonzero">
                        <path d="M16.6992752,-3.03498153e-13 L16.699,14.58 L20.9435319,9.73922887 L26.1962294,14.3894845 L13.3869394,29.0040012 L8.70414851e-14,14.4523678 L5.13976124,9.67634559 L9.699,14.632 L9.69927515,-3.03498153e-13 L16.6992752,-3.03498153e-13 Z" id="Combined-Shape"></path>
                    </g>
                </g>
            </g>
        </g>
    </g>
</svg>