<?xml version="1.0" encoding="UTF-8"?>
<svg width="450px" height="401px" viewBox="0 0 450 401" version="1.1" xmlns="http://www.w3.org/2000/svg" xmlns:xlink="http://www.w3.org/1999/xlink">
    <title>3F3785CE-018F-4CED-89CD-441E04F673C1</title>
    <g id="VPS" stroke="none" stroke-width="1" fill="none" fill-rule="evenodd">
        <g id="Slide-4" transform="translate(-19.000000, -437.000000)">
            <g id="Molecules/Features/Half-Cards/Illustrations/.m-card__half-illustration-xl--right-Copy-2" transform="translate(-1.000000, 360.000000)">
                <g id=".a-illustration__testenvironment" transform="translate(20.000000, 77.333333)">
                    <polygon id="Rectangle-Copy-65" fill="#FFCF00" transform="translate(225.000000, 211.000000) rotate(-90.000000) translate(-225.000000, -211.000000) " points="45 -14 405 -14 405 436 217 436 110 109"></polygon>
                    <polygon id="Rectangle-Copy-65" fill="#2E93EE" transform="translate(80.000000, 190.000000) rotate(-90.000000) translate(-80.000000, -190.000000) " points="-79 110 239 110 239 270 134 270 -11 233"></polygon>
                    <path d="M288,0 C270,4.66666667 261,15 261,31 C261,47 270,57.6666667 288,63 L25,63 L25,0 L288,0 Z M262.171,7 L32,7 L32,56 L262.818,56 L262.523648,55.6608127 C257.019809,49.230151 254.115147,41.1577583 254.003355,31.5766744 L254,31 C254,21.5093414 256.714069,13.5529518 261.945914,7.26727103 L262.171,7 Z" id="Path-12" fill="#1F2044"></path>
                    <rect id="Rectangle" fill="#FFFFFF" x="243" y="7" width="35" height="24"></rect>
                    <rect id="Rectangle" fill="#FFCF00" x="243" y="31" width="35" height="25"></rect>
                    <path d="M285.5,0 C302.89697,0 317,14.1030304 317,31.5 C317,48.8969696 302.89697,63 285.5,63 C268.10303,63 254,48.8969696 254,31.5 C254,14.1030304 268.10303,0 285.5,0 Z M285.5,7 C271.969024,7 261,17.9690236 261,31.5 C261,45.0309764 271.969024,56 285.5,56 C299.030976,56 310,45.0309764 310,31.5 C310,17.9690236 299.030976,7 285.5,7 Z" id="Oval-Copy-12" fill="#1F2044"></path>
                    <path d="M341.5,0 C358.89697,0 373,14.1030304 373,31.5 C373,48.8969696 358.89697,63 341.5,63 C324.10303,63 310,48.8969696 310,31.5 C310,14.1030304 324.10303,0 341.5,0 Z M341.5,7 C327.969024,7 317,17.9690236 317,31.5 C317,45.0309764 327.969024,56 341.5,56 C355.030976,56 366,45.0309764 366,31.5 C366,17.9690236 355.030976,7 341.5,7 Z" id="Oval-Copy-16" fill="#1F2044"></path>
                    <path d="M397.675,0 C415.07197,0 429.175,14.1030304 429.175,31.5 C429.175,48.8969696 415.07197,63 397.675,63 C380.27803,63 366.175,48.8969696 366.175,31.5 C366.175,14.1030304 380.27803,0 397.675,0 Z M397.675,7 C384.144024,7 373.175,17.9690236 373.175,31.5 C373.175,45.0309764 384.144024,56 397.675,56 C411.205976,56 422.175,45.0309764 422.175,31.5 C422.175,17.9690236 411.205976,7 397.675,7 Z" id="Oval-Copy-17" fill="#1F2044"></path>
                    <rect id="Rectangle" fill="#1F2044" x="25" y="82" width="135" height="318"></rect>
                    <polygon id="Rectangle-Copy-10" fill="#FFFFFF" transform="translate(91.000000, 344.000000) rotate(-180.000000) translate(-91.000000, -344.000000) " points="56 326 126 326 126 362 56 362"></polygon>
                    <polygon id="Rectangle-Copy-16" fill="#FFFFFF" transform="translate(91.000000, 299.000000) rotate(-180.000000) translate(-91.000000, -299.000000) " points="56 281 126 281 126 317 56 317"></polygon>
                    <polygon id="Rectangle-Copy-26" fill="#2E93EE" transform="translate(91.000000, 299.000000) rotate(-360.000000) translate(-91.000000, -299.000000) " points="126 281 126 317 56 317"></polygon>
                    <polygon id="Rectangle-Copy-20" fill="#2E93EE" transform="translate(91.000000, 204.000000) rotate(-180.000000) translate(-91.000000, -204.000000) " points="56 136 126 136 126 272 56 272"></polygon>
                    <polygon id="Rectangle-Copy-44" fill="#FFFFFF" transform="translate(91.000000, 122.500000) rotate(-180.000000) translate(-91.000000, -122.500000) " points="56 118 126 118 126 127 56 127"></polygon>
                    <polygon id="Rectangle-Copy-28" fill="#2E93EE" transform="translate(91.000000, 344.000000) rotate(-180.000000) translate(-91.000000, -344.000000) " points="126 326 126 362 56 362"></polygon>
                    <rect id="Rectangle-Copy" fill="#2E93EE" x="160" y="82" width="134" height="318"></rect>
                    <rect id="Rectangle-Copy" fill="#FF9144" x="160" y="281" width="134" height="119"></rect>
                    <polygon id="Rectangle-Copy-3" fill="#FFFFFF" points="160 82 294 82 294 210 262 210 160 263"></polygon>
                    <rect id="Rectangle-Copy-2" fill="#1F2044" x="294" y="82" width="135" height="318"></rect>
                    <polygon id="Rectangle-Copy-21" fill="#FFFFFF" transform="translate(361.500000, 86.500000) rotate(-180.000000) translate(-361.500000, -86.500000) " points="294 82 429 82 429 91 294 91"></polygon>
                    <polygon id="Rectangle-Copy-22" fill="#FF9144" transform="translate(328.000000, 106.000000) rotate(-180.000000) translate(-328.000000, -106.000000) " points="294 100 362 100 362 112 294 112"></polygon>
                    <polygon id="Rectangle-Copy-29" fill="#FF9144" transform="translate(360.000000, 311.000000) rotate(-180.000000) translate(-360.000000, -311.000000) " points="348 305 372 305 372 317 348 317"></polygon>
                    <polygon id="Rectangle-Copy-32" fill="#FF9144" transform="translate(412.000000, 180.000000) rotate(-180.000000) translate(-412.000000, -180.000000) " points="395 174 429 174 429 186 395 186"></polygon>
                    <polygon id="Rectangle-Copy-38" fill="#FF9144" transform="translate(311.000000, 287.000000) rotate(-180.000000) translate(-311.000000, -287.000000) " points="294 281 328 281 328 293 294 293"></polygon>
                    <polygon id="Rectangle-Copy-35" fill="#FF9144" transform="translate(375.000000, 229.000000) rotate(-180.000000) translate(-375.000000, -229.000000) " points="358 223 392 223 392 235 358 235"></polygon>
                    <polygon id="Rectangle-Copy-25" fill="#FFFFFF" transform="translate(304.000000, 131.000000) rotate(-180.000000) translate(-304.000000, -131.000000) " points="294 125 314 125 314 137 294 137"></polygon>
                    <polygon id="Rectangle-Copy-23" fill="#FFCF00" transform="translate(412.000000, 118.500000) rotate(-180.000000) translate(-412.000000, -118.500000) " points="395 112 429 112 429 125 395 125"></polygon>
                    <polygon id="Rectangle-Copy-27" fill="#FFFFFF" transform="translate(384.000000, 287.000000) rotate(-180.000000) translate(-384.000000, -287.000000) " points="372 281 396 281 396 293 372 293"></polygon>
                    <polygon id="Rectangle-Copy-33" fill="#FFCF00" transform="translate(316.000000, 180.000000) rotate(-180.000000) translate(-316.000000, -180.000000) " points="294 174 338 174 338 186 294 186"></polygon>
                    <polygon id="Rectangle-Copy-39" fill="#FFCF00" transform="translate(350.000000, 275.000000) rotate(-180.000000) translate(-350.000000, -275.000000) " points="328 269 372 269 372 281 328 281"></polygon>
                    <polygon id="Rectangle-Copy-31" fill="#FFCF00" transform="translate(378.000000, 155.000000) rotate(-180.000000) translate(-378.000000, -155.000000) " points="361 149 395 149 395 161 361 161"></polygon>
                    <polygon id="Rectangle-Copy-40" fill="#FFCF00" transform="translate(412.000000, 335.000000) rotate(-180.000000) translate(-412.000000, -335.000000) " points="395 329 429 329 429 341 395 341"></polygon>
                    <polygon id="Rectangle-Copy-41" fill="#1F2044" transform="translate(433.000000, 394.000000) rotate(-180.000000) translate(-433.000000, -394.000000) " points="416 388 450 388 450 400 416 400"></polygon>
                    <polygon id="Rectangle-Copy-42" fill="#1F2044" transform="translate(428.000000, 323.000000) rotate(-180.000000) translate(-428.000000, -323.000000) " points="416 317 440 317 440 329 416 329"></polygon>
                    <polygon id="Rectangle-Copy-43" fill="#1F2044" transform="translate(294.000000, 155.000000) rotate(-180.000000) translate(-294.000000, -155.000000) " points="282 149 306 149 306 161 282 161"></polygon>
                    <polygon id="Rectangle-Copy-30" fill="#FFFFFF" transform="translate(366.500000, 167.500000) rotate(-180.000000) translate(-366.500000, -167.500000) " points="338 161 395 161 395 174 338 174"></polygon>
                    <polygon id="Rectangle-Copy-24" fill="#FFFFFF" transform="translate(378.500000, 118.500000) rotate(-180.000000) translate(-378.500000, -118.500000) " points="362 112 395 112 395 125 362 125"></polygon>
                    <polygon id="Rectangle-Copy-34" fill="#FFFFFF" transform="translate(341.500000, 216.500000) rotate(-180.000000) translate(-341.500000, -216.500000) " points="325 210 358 210 358 223 325 223"></polygon>
                    <rect id="Rectangle" fill="#1F2044" x="59" y="28" width="19" height="7"></rect>
                    <rect id="Rectangle" fill="#1F2044" x="91" y="28" width="32" height="7"></rect>
                    <rect id="Rectangle" fill="#1F2044" x="149" y="28" width="48" height="7"></rect>
                </g>
            </g>
        </g>
    </g>
</svg>