<?xml version="1.0" encoding="UTF-8"?>
<svg width="526px" height="395px" viewBox="0 0 526 395" version="1.1" xmlns="http://www.w3.org/2000/svg" xmlns:xlink="http://www.w3.org/1999/xlink">
    <!-- Generator: Sketch 61.2 (89653) - https://sketch.com -->
    <title>Group 7</title>
    <desc>Created with Sketch.</desc>
    <defs>
        <polygon id="path-1" points="0 255.542533 525.832554 255.542533 525.832554 0.323413901 0 0.323413901"></polygon>
    </defs>
    <g id="Prototype-3" stroke="none" stroke-width="1" fill="none" fill-rule="evenodd">
        <g id="Group-7">
            <ellipse id="Oval-Copy-4" fill="#C8E3FF" opacity="0.705891927" cx="263" cy="197.5" rx="216" ry="197.5"></ellipse>
            <g id="Group-137" transform="translate(0.000000, 70.000000)">
                <polygon id="Fill-1" fill="#041C69" points="91.4782609 138.21172 91.4782609 202.968986 91.4782609 255.542533 96.4499055 255.542533 96.4499055 138.21172"></polygon>
                <polygon id="Fill-2" fill="#041C69" points="91.4782609 123.296786 91.4782609 138.21172 96.7124754 138.21172 113.054206 138.21172 129.994519 138.21172 135.228733 138.21172 135.228733 123.296786"></polygon>
                <polygon id="Fill-3" fill="#5CA5FF" points="96.4499055 138.21172 96.4499055 255.542533 113.353497 255.542533 113.353497 202.968986 113.353497 138.21172"></polygon>
                <polygon id="Fill-4" fill="#041C69" points="130.257089 138.21172 130.257089 202.968986 130.257089 255.542533 135.228733 255.542533 135.228733 138.21172"></polygon>
                <g id="Group-136">
                    <path d="M131.60124,6.08546529 L131.60124,68.0670562 C131.598966,71.2469892 134.171634,73.8270122 137.34811,73.8297453 L137.35266,73.8297453 L148.614338,73.8297453 C145.441048,73.8220015 142.87202,71.2442561 142.87202,68.0670562 L142.87202,6.08546529 C142.87202,2.90826534 145.441048,0.330975409 148.614338,0.323687209 L137.35266,0.323687209 C134.176184,0.323687209 131.60124,2.90143265 131.60124,6.08091016 L131.60124,6.08546529 Z" id="Fill-5" fill="#041C69"></path>
                    <polygon id="Fill-7" fill="#5CA5FF" points="135.532636 138.093363 135.532636 255.519484 152.054315 255.519484 152.054315 202.903231 152.054315 138.093363"></polygon>
                    <path d="M135.532636,123.129503 L135.532636,138.093545 L303.30161,138.093545 C302.919851,133.788496 302.569488,128.618429 302.428432,123.129503 L241.110301,123.129503 C241.094375,123.152278 241.062979,123.157744 241.040228,123.141802 C241.035678,123.138613 241.031583,123.134513 241.028398,123.129503 L135.532636,123.129503 Z" id="Fill-9" fill="#5CA5FF"></path>
                    <path d="M267.692275,128.072087 C267.143524,126.383958 266.487389,124.73318 265.7266,123.12932 L302.428296,123.12932 C302.569351,128.595471 302.919714,133.788769 303.301929,138.093363 L271.391566,138.093363 C270.603931,134.604592 269.360368,131.234711 267.692275,128.072087" id="Fill-11" fill="#E5F4FF"></path>
                    <path d="M160.890751,15.8336158 L214.150526,15.8336158 L214.150526,35.297211 L160.87255,35.297211 L160.890751,15.8336158 Z M160.890751,43.6198805 L182.363017,43.6198805 L182.363017,54.3654213 L160.87255,54.3654213 L160.890751,43.6198805 Z M192.69646,43.6198805 L214.168726,43.6198805 L214.168726,65.110962 L192.678259,65.110962 L192.69646,43.6198805 Z M142.872065,6.08564749 L142.872065,68.0672384 C142.87434,71.25036 145.452924,73.8294719 148.632584,73.8294719 L232.537775,73.8294719 L232.537775,0.323413901 L148.614384,0.323413901 C145.441548,0.333435177 142.87434,2.90981408 142.872065,6.08564749 L142.872065,6.08564749 Z" id="Fill-13" fill="#5CA5FF"></path>
                    <mask id="mask-2" fill="white">
                        <use xlink:href="#path-1"></use>
                    </mask>
                    <g id="Clip-16"></g>
                    <polygon id="Fill-15" fill="#E5F4FF" mask="url(#mask-2)" points="160.876827 54.3654213 182.344543 54.3654213 182.344543 48.9903733 160.876827 48.9903733"></polygon>
                    <polygon id="Fill-17" fill="#03359F" mask="url(#mask-2)" points="160.876827 48.9903733 182.344543 48.9903733 182.344543 43.6198805 160.876827 43.6198805"></polygon>
                    <polygon id="Fill-18" fill="#E5F4FF" mask="url(#mask-2)" points="160.876827 35.297211 201.44617 35.297211 201.44617 15.8518363 160.876827 15.8518363"></polygon>
                    <polygon id="Fill-19" fill="#041C69" mask="url(#mask-2)" points="179.49204 123.129138 187.11813 123.129138 187.11813 73.8294719 179.49204 73.8294719"></polygon>
                    <path d="M187.117811,73.8296086 L187.117811,123.129275 L193.610908,123.129275 C194.153289,114.872199 200.679602,108.270456 208.92224,107.641849 C209.596576,106.807805 210.415152,106.101305 211.338382,105.555601 L211.338382,73.8296086 L187.117811,73.8296086 Z" id="Fill-20" fill="#9ECDFF" mask="url(#mask-2)"></path>
                    <path d="M187.117811,73.8296086 L187.117811,91.1983016 C195.632095,90.2727001 203.870183,87.6270833 211.333832,83.4227026 L211.333832,73.8296086 L187.117811,73.8296086 Z" id="Fill-21" fill="#041C69" mask="url(#mask-2)"></path>
                    <path d="M199.95849,50.0744476 C199.95849,48.1626615 201.506914,46.6125523 203.416622,46.6125523 C205.32633,46.6125523 206.874753,48.1626615 206.874753,50.0744476 C206.874753,51.9862337 205.32633,53.5363454 203.416622,53.5363454 C201.509189,53.5386204 199.960766,51.9930664 199.95849,50.0840134 L199.95849,50.0744476 Z M192.678214,43.619835 L192.678214,65.1109164 L194.707591,65.1109164 C194.707591,60.2956934 198.606634,56.3924065 203.416622,56.3924065 C208.22661,56.3924065 212.125653,60.2956934 212.125653,65.1109164 L214.15048,65.1109164 L214.15048,43.619835 L192.678214,43.619835 Z" id="Fill-22" fill="#E5F4FF" mask="url(#mask-2)"></path>
                    <path d="M193.610908,123.129503 L241.028261,123.129503 C233.884489,116.724996 220.870995,118.788468 213.759074,120.50575 C207.59814,121.990721 206.679005,116.520016 208.194213,113.249891 C207.328315,111.394133 207.612246,109.205395 208.92224,107.632966 C200.676417,108.261573 194.149194,114.868327 193.610908,123.129503" id="Fill-23" fill="#03359F" mask="url(#mask-2)"></path>
                    <path d="M194.707545,65.1108253 L212.125608,65.1108253 C212.125608,60.2960578 208.226564,56.3923154 203.416576,56.3923154 C198.606589,56.3923154 194.707545,60.2960578 194.707545,65.1108253" id="Fill-24" fill="#03359F" mask="url(#mask-2)"></path>
                    <path d="M199.225958,250.226838 L199.225958,252.781808 C199.225958,254.291377 200.448135,255.514885 201.956062,255.514885 L234.985768,255.514885 C236.248896,255.51625 237.348218,254.649865 237.643069,253.419981 L238.908017,242.510456 L221.712913,236.133281 L200.522757,247.899169 C199.716467,248.397045 199.225503,249.278006 199.225958,250.226838" id="Fill-25" fill="#03359F" mask="url(#mask-2)"></path>
                    <path d="M203.416667,46.6171986 C201.50696,46.6171986 199.958536,48.1668522 199.958536,50.0790938 C199.958536,51.99088 201.50696,53.5409891 203.416667,53.5409891 C205.326375,53.5409891 206.874799,51.99088 206.874799,50.0790938 L206.874799,50.0745387 C206.874799,48.1650302 205.32865,46.6171986 203.421218,46.6171986 L203.416667,46.6171986 Z" id="Fill-26" fill="#03359F" mask="url(#mask-2)"></path>
                    <polygon id="Fill-27" fill="#03359F" mask="url(#mask-2)" points="201.446625 35.297211 214.150708 35.297211 214.150708 15.8518363 201.446625 15.8518363"></polygon>
                    <path d="M213.759211,120.505842 C220.871131,118.788104 233.884626,116.725088 241.023847,123.129594 L241.110301,123.129594 C241.269557,122.970164 241.324159,121.763056 241.328709,120.177873 C241.328709,119.444497 241.328709,118.62002 241.296858,117.772766 C236.272102,115.183178 230.7127,113.804341 225.06184,113.746036 C219.057432,113.760612 213.159043,115.329853 207.939539,118.301161 C207.520924,117.164202 207.438565,115.930674 207.70293,114.748163 C207.029505,117.941306 208.47646,121.781277 213.759211,120.505842" id="Fill-28" fill="#041C69" mask="url(#mask-2)"></path>
                    <path d="M207.848399,114.165153 C207.793797,114.346902 207.748296,114.534118 207.707344,114.724978 C207.748296,114.534118 207.793797,114.346902 207.848399,114.165153" id="Fill-29" fill="#041C69" mask="url(#mask-2)"></path>
                    <path d="M208.048607,113.586424 C207.977169,113.764074 207.914832,113.944912 207.86205,114.128484 C207.914832,113.944912 207.977169,113.764074 208.048607,113.586424" id="Fill-30" fill="#041C69" mask="url(#mask-2)"></path>
                    <path d="M207.862187,114.128666 L207.862187,114.165107 L207.862187,114.128666 Z" id="Fill-31" fill="#041C69" mask="url(#mask-2)"></path>
                    <path d="M241.296858,117.522326 L241.296858,117.772857 C241.305958,117.690865 241.296858,117.608417 241.296858,117.522326" id="Fill-32" fill="#041C69" mask="url(#mask-2)"></path>
                    <path d="M208.922422,107.628274 C207.612428,109.200704 207.328497,111.389897 208.194395,113.244744 C208.410073,112.761445 208.702194,112.315043 209.058928,111.924213 C211.597924,109.191138 216.553062,106.712694 224.807076,106.712694 C226.753185,106.724538 228.695199,106.896721 230.613097,107.227423 C229.316298,107.031553 220.42526,101.183228 212.931125,104.681108 C212.382829,104.935284 211.851369,105.222713 211.338564,105.542483 C210.414879,106.087276 209.596758,106.794231 208.922422,107.628274" id="Fill-33" fill="#9ECDFF" mask="url(#mask-2)"></path>
                    <path d="M221.717327,236.155783 L238.912431,242.532958 C238.912431,242.532958 260.129887,202.571299 264.634559,183.771841 C267.293225,183.912139 269.957806,183.874331 272.611467,183.657963 C280.792678,183.098138 288.836019,181.253768 296.444818,178.191813 C298.002342,177.126369 299.845617,176.557889 301.732574,176.561078 L354.227465,176.561078 L354.227465,166.016418 L321.834784,166.016418 L321.834784,159.92166 C309.044247,154.769358 304.64423,149.877153 304.64423,149.877153 C297.491358,149.535519 290.083676,150.47843 283.258417,151.940625 C281.352349,152.351042 279.490874,152.796989 277.698105,153.270722 C270.398718,155.165198 263.278152,157.691926 256.416946,160.82312 C253.069839,162.324944 249.967076,164.321 247.211946,166.744783 C243.682832,169.926993 240.85854,173.814337 238.921531,178.155372 C235.281393,185.981532 232.237327,194.681366 229.752932,202.907923 C226.471803,213.836124 223.789021,224.935143 221.717327,236.155783" id="Fill-34" fill="#5CA5FF" mask="url(#mask-2)"></path>
                    <path d="M294.988899,150.123085 C296.297529,151.658617 297.693522,153.117168 299.170053,154.491905 C304.630261,160.363006 310.482238,165.74762 317.762515,168.503471 C318.645249,168.837362 319.513877,169.20496 320.369764,169.605811 C327.681892,173.035821 335.990508,173.518208 344.294574,173.203905 C347.620296,173.192517 350.940557,172.931964 354.227147,172.424978 L354.227147,166.016372 L321.83492,166.016372 L321.83492,159.921615 C309.044384,154.769312 304.639816,149.877108 304.639816,149.877108 C301.421024,149.736354 298.196316,149.818802 294.988899,150.123085" id="Fill-35" fill="#041C69" mask="url(#mask-2)"></path>
                    <path d="M294.988899,150.11862 L294.811443,150.11862 L294.988899,150.11862 Z" id="Fill-36" fill="#041C69" mask="url(#mask-2)"></path>
                    <path d="M232.542188,17.291347 L232.542188,73.829563 L251.689316,73.829563 C254.865792,73.829563 257.440735,71.2518176 257.440735,68.0714291 L257.440735,68.0673295 L257.440735,17.291347 L232.542188,17.291347 Z" id="Fill-37" fill="#03359F" mask="url(#mask-2)"></path>
                    <path d="M232.542188,0.323505004 L232.542188,17.291347 L257.440737,17.291347 L257.440737,6.08528308 C257.443465,2.90580557 254.870342,0.325782566 251.693867,0.323505004 L251.689316,0.323505004 L232.542188,0.323505004 Z" id="Fill-38" fill="#9ECDFF" mask="url(#mask-2)"></path>
                    <path d="M241.27397,116.684274 C241.242119,115.481265 241.201168,114.274612 241.160216,113.240143 C241.091963,111.500085 241.028261,110.234216 241.028261,110.234216 C241.028261,110.234216 243.489905,109.887571 247.252898,109.163306 L248.545147,108.908675 C248.545147,108.971991 248.840908,110.307098 249.182171,112.238016 C249.377829,113.340356 249.587592,114.634467 249.764593,115.995994 C249.928854,117.262775 250.064905,118.588316 250.133157,119.867851 C250.199135,120.954248 250.199135,122.043379 250.133157,123.12932 L241.110164,123.12932 C241.26942,122.970347 241.324022,121.762783 241.328572,120.178055 C241.333123,119.12992 241.310372,117.909147 241.27397,116.684274" id="Fill-39" fill="#5CA5FF" mask="url(#mask-2)"></path>
                    <path d="M242.188646,251.40657 L242.188646,252.773108 C242.188646,254.282221 243.410823,255.506184 244.91875,255.506184 L273.46153,255.506184 C274.725568,255.507094 275.824435,254.640709 276.119286,253.41037 L276.838214,244.755632 L259.64766,239.071291 L243.494546,249.092567 C242.68871,249.585887 242.195016,250.460926 242.188646,251.40657" id="Fill-40" fill="#03359F" mask="url(#mask-2)"></path>
                    <path d="M302.473979,112.434296 C302.342024,116.036945 302.346575,119.649615 302.428023,123.129275 C302.569533,128.595425 302.919441,133.788724 303.301656,138.093317 C303.930035,145.148751 304.644412,149.876971 304.644412,149.876971 C304.644412,149.876971 309.043974,154.769176 321.834966,159.921478 L321.834966,113.805389 C321.834966,106.484391 327.762931,100.549518 335.075514,100.549518 L367.650203,100.549518 C367.650203,92.7101477 365.625831,88.7380784 365.625831,88.7380784 C361.776384,91.5303703 356.589187,93.5027395 349.759377,93.5027395 C330.685052,93.5027395 315.828737,73.8296086 315.828737,73.8296086 C306.273374,77.0181964 294.315064,87.8776152 283.267699,95.5388806 C281.374827,96.8557673 279.504706,98.0760854 277.680087,99.1469954 C276.824654,99.6480592 275.979687,100.115415 275.145185,100.549518 C267.077729,104.713359 255.889308,107.436868 248.56353,108.908629 C248.56353,108.971945 248.859291,110.307053 249.200554,112.23797 C249.396211,113.340311 249.605519,114.634422 249.782976,115.995949 C249.946782,117.262729 250.083287,118.58827 250.15154,119.867805 C250.217517,120.954203 250.217517,122.043333 250.15154,123.129275 L270.731517,123.129275 C271.428149,123.024963 272.096569,122.91564 272.793201,122.797206 L272.793201,122.21415 C272.791836,114.012647 279.431903,107.363075 287.624035,107.361708 C292.563248,107.361253 297.178033,109.821476 299.934983,113.923822 C300.835462,113.427313 301.672694,112.92625 302.473979,112.434296" id="Fill-41" fill="#0069FF" mask="url(#mask-2)"></path>
                    <path d="M249.773739,116.091743 C256.093929,118.643069 262.796334,120.127584 269.880954,119.859287 C270.945694,119.859287 271.933082,119.859287 272.984172,119.80417 C272.834016,120.598584 272.768038,121.406208 272.788514,122.213831 L272.788514,122.797343 C272.110538,122.915321 271.423462,123.025099 270.727286,123.129412 L250.137753,123.129412 C250.20373,122.043014 250.20373,120.954339 250.137753,119.867942 C250.06495,118.620293 249.932995,117.331193 249.773739,116.091743" id="Fill-42" fill="#03359F" mask="url(#mask-2)"></path>
                    <path d="M302.469111,112.506814 L315.054889,102.772966 C315.59818,102.226351 316.127365,101.671992 316.6429,101.10989 C316.081863,105.26462 315.523557,109.418894 314.968891,113.573169 C314.584401,122.115395 316.481824,130.606149 320.4655,138.170846 C320.874561,139.42806 321.334128,140.652933 321.830552,141.860042 L321.830552,159.907904 C309.039561,154.755601 304.639998,149.863852 304.639998,149.863852 C304.639998,149.863852 303.925166,145.135632 303.297242,138.079743 C302.915028,133.774694 302.565119,128.605082 302.423609,123.115701 C302.346256,119.667926 302.342161,116.087142 302.469111,112.506814" id="Fill-43" fill="#03359F" mask="url(#mask-2)"></path>
                    <path d="M259.638605,239.080128 L276.829159,244.764924 C283.654418,224.941019 288.632308,211.216426 291.721875,202.903322 C294.22447,196.166292 295.484868,192.982715 295.484868,192.982715 C295.343358,192.865192 295.207763,192.740837 295.079903,192.608739 C291.406093,188.932753 291.404273,182.97146 295.075808,179.293652 C295.495789,178.873214 295.953991,178.493772 296.444955,178.160337 C288.8357,181.221836 280.792815,183.066207 272.611148,183.626487 C272.611148,183.626487 260.689695,215.972432 259.638605,239.080128" id="Fill-44" fill="#5CA5FF" mask="url(#mask-2)"></path>
                    <path d="M290.484046,203.714317 L291.799501,202.698524 C294.251589,196.102702 295.484686,192.982441 295.484686,192.982441 C295.343631,192.865375 295.208036,192.740564 295.080176,192.608921 C291.405911,188.932935 291.404091,182.971642 295.076081,179.293834 C295.495607,178.873396 295.953809,178.493954 296.445228,178.160063 C288.835973,181.222019 280.792633,183.066389 272.611421,183.626214 C269.267499,192.986085 266.398615,202.50903 264.01569,212.159519 C273.354465,211.340508 282.394748,208.456202 290.484046,203.714317" id="Fill-45" fill="#03359F" mask="url(#mask-2)"></path>
                    <path d="M272.78856,122.214014 L272.78856,122.79707 C285.010324,120.733598 293.773958,117.330919 299.921241,113.923685 C295.348772,107.118328 286.131487,105.312676 279.333984,109.889666 C275.236098,112.649617 272.779004,117.269881 272.779004,122.214014 L272.78856,122.214014 Z" id="Fill-46" fill="#5CA5FF" mask="url(#mask-2)"></path>
                    <path d="M298.720087,112.379589 C299.157358,112.869721 299.561869,113.388549 299.930433,113.932887 C293.782694,117.33101 285.019516,120.742344 272.797296,122.806271 L272.797296,122.222759 C272.797751,121.416047 272.863274,120.60979 272.993408,119.813098 C282.000931,119.204533 290.773665,116.669606 298.720087,112.379589" id="Fill-47" fill="#03359F" mask="url(#mask-2)"></path>
                    <path d="M297.737204,18.197908 C298.438385,18.5878268 299.177789,18.9057745 299.944038,19.1449186 C303.270214,20.1834872 308.134349,20.3383615 313.95402,19.0264853 C313.95402,19.0264853 319.691789,32.6649862 313.958116,40.777209 C310.500439,45.6603034 304.402752,46.4396853 300.116489,46.2939213 C300.116489,46.2939213 301.764107,56.6522764 302.391576,59.0159309 C303.019955,61.3804965 304.016443,63.9172458 307.224315,64.2588802 C310.431731,64.6005146 315.833242,63.7491617 315.833242,63.7491617 C324.105456,62.7374684 324.441714,56.6522764 324.105456,54.3564932 C323.768744,52.06071 321.065941,46.2757008 321.348052,40.3626926 C321.587391,36.3642035 322.113391,32.3880346 322.922411,28.4647051 C325.961927,26.1329364 329.338155,27.2484866 330.689557,30.8880318 C332.040958,34.5280325 327.245076,39.1282536 327.245076,39.1282536 C327.245076,39.1282536 333.897429,52.5982148 343.521045,53.1038337 C343.521045,53.1038337 350.346304,47.4550228 351.465647,32.6057696 C351.565751,31.2938935 351.620353,29.9136905 351.620353,28.4560504 C351.620353,18.8902871 347.388692,12.2940101 342.674712,8.03086823 C338.52905,4.31798554 334.047584,2.36383676 331.70379,1.73522946 C326.617152,0.386912349 319.186719,1.23462118 314.122377,2.60115879 C309.058034,3.9676964 302.979003,3.44340147 300.112394,2.43261915 C297.245785,1.42138132 293.69665,-0.27358083 292.513605,5.64352702 C291.494366,10.7457229 293.378138,15.74224 297.737204,18.197908" id="Fill-48" fill="#041C69" mask="url(#mask-2)"></path>
                    <path d="M295.844241,44.1892712 C297.606523,39.6505443 298.5839,34.8444315 298.733601,29.97728 L297.737113,18.1977258 C298.438294,18.5881001 299.177698,18.9055923 299.943947,19.1451919 C303.270123,20.1837605 308.134258,20.3386348 313.953929,19.0267587 C313.953929,19.0267587 319.691698,32.664804 313.95848,40.7774823 C310.500348,45.6601212 304.403116,46.4395031 300.116853,46.2937391 C299.029362,46.2513764 297.944601,46.1497971 296.86803,45.9885457 C296.147737,45.8778562 295.653589,45.2036976 295.763703,44.4826213 C295.779173,44.381953 295.806474,44.2835623 295.844241,44.1892712" id="Fill-49" fill="#C2E2FF" mask="url(#mask-2)"></path>
                    <path d="M241.155757,113.240371 C241.087504,111.500313 241.023802,110.233988 241.023802,110.233988 C237.67442,108.846953 234.181252,107.839359 230.608456,107.227606 C228.690558,106.896448 226.748544,106.724264 224.802435,106.712876 C216.548421,106.712876 211.606933,109.190865 209.054286,111.92394 C208.697553,112.315225 208.405432,112.761172 208.189753,113.244926 C206.674546,116.515506 207.593681,121.986212 213.754615,120.501241 C220.866535,118.783959 233.88003,116.720487 241.023802,123.124993 L241.105705,123.124993 C241.264961,122.965564 241.319563,121.758456 241.324113,120.173272 C241.324113,119.125593 241.324113,117.895709 241.269511,116.679491 C241.214909,115.463272 241.201259,114.27484 241.155757,113.240371" id="Fill-50" fill="#C2E2FF" mask="url(#mask-2)"></path>
                    <path d="M315.810354,63.7580898 L315.810354,73.8294719 C326.953728,73.7565899 333.874541,70.1853717 340.458642,66.126755 C342.588578,64.8148788 344.553797,63.5394437 346.496721,62.3460009 L343.498612,53.1127618 C333.874541,52.6071429 327.222188,39.1376372 327.222188,39.1376372 C327.222188,39.1376372 332.018071,34.5369605 330.666669,30.8974154 C329.315268,27.2578702 325.93904,26.1418645 322.899524,28.4740887 C322.090958,32.3969626 321.564503,36.3735871 321.325164,40.3720761 C321.043053,46.2937391 323.745856,52.0650829 324.082569,54.3654213 C324.419282,56.6657596 324.082569,62.7286314 315.810354,63.7580898" id="Fill-51" fill="#C2E2FF" mask="url(#mask-2)"></path>
                    <path d="M296.449459,178.155326 C292.152276,181.076528 291.034298,186.932597 293.952324,191.234002 C294.285397,191.7255 294.664426,192.184657 295.084407,192.604639 C295.212722,192.735827 295.347862,192.860637 295.489373,192.977704 C297.206608,194.517792 299.431643,195.367778 301.73676,195.364599 L327.367885,195.364599 C322.170677,195.36049 317.961767,191.139255 317.966317,185.936391 C317.970868,180.74036 322.177503,176.529146 327.367885,176.524578 L301.73676,176.524578 C299.850259,176.521403 298.006984,177.089882 296.449459,178.155326" id="Fill-52" fill="#041C69" mask="url(#mask-2)"></path>
                    <path d="M305.672433,29.8406221 C304.011619,29.8378932 302.662948,31.1839327 302.660669,32.847009 C302.657943,34.5100853 304.002519,35.8602245 305.663332,35.8625062 C307.3246,35.8652351 308.673272,34.5191955 308.676002,32.8561193 L308.676002,32.847009 C308.676002,31.1866658 307.331426,29.8406221 305.672433,29.8406221" id="Fill-53" fill="#041C69" mask="url(#mask-2)"></path>
                    <path d="M310.29104,244.578301 C308.101497,247.745479 308.892317,252.089703 312.056052,254.281629 C315.219788,256.472644 319.559288,255.681874 321.748376,252.514696 C322.554211,251.348128 322.986023,249.963825 322.986023,248.545815 C322.985568,247.893977 322.895474,247.245782 322.717563,246.618997 C322.239794,247.01757 321.717435,247.360116 321.161403,247.639345 C321.056749,247.694007 320.956646,247.744113 320.847442,247.789664 C320.758713,247.833393 320.66771,247.873023 320.574431,247.908097 L320.465227,247.953649 C320.382414,247.99009 320.296871,248.022431 320.210417,248.049306 L320.155815,248.049306 C320.051161,248.085747 319.941957,248.122188 319.837303,248.149519 C319.732649,248.17685 319.632545,248.213291 319.527891,248.240622 L319.450538,248.240622 L319.163878,248.308948 L318.890867,248.36361 C318.781663,248.36361 318.667909,248.404606 318.558704,248.418271 L318.408549,248.418271 C318.193326,248.445602 317.979012,248.463823 317.766974,248.472933 C317.218224,248.497075 316.668108,248.467467 316.124362,248.386386 C315.703926,248.323525 315.28804,248.227412 314.882165,248.099413 C314.608699,248.012865 314.339784,247.912197 314.076784,247.798774 C313.545324,247.571929 313.04071,247.287689 312.570677,246.951521 C312.086083,246.630385 311.636526,246.259142 311.228376,245.844626 C310.875737,245.453796 310.56223,245.029714 310.29104,244.578301" id="Fill-54" fill="#03359F" mask="url(#mask-2)"></path>
                    <path d="M311.765433,234.028585 C308.809185,236.735696 308.190817,241.162822 310.291177,244.578255 C310.561912,245.029668 310.875874,245.45375 311.228057,245.84458 C311.630748,246.285972 312.079395,246.682723 312.566263,247.028913 C313.622358,247.779142 314.83953,248.27064 316.119493,248.463777 C316.663694,248.544858 317.213355,248.574467 317.762561,248.550325 C317.977784,248.550325 318.191642,248.532104 318.404135,248.495663 L318.554291,248.495663 C318.668045,248.495663 318.777249,248.463777 318.885998,248.441457 L319.159464,248.386796 L319.446125,248.318013 L319.523478,248.318013 L319.832434,248.226911 L320.151402,248.126698 L320.206004,248.126698 C320.292002,248.099823 320.37891,248.063382 320.460358,248.03104 L320.570017,247.985945 L320.842573,247.867056 L321.15699,247.716737 C321.713021,247.437507 322.235381,247.095417 322.713149,246.696844 L323.00891,246.436746 C328.518715,241.330451 335.976903,238.556379 344.03526,238.556379 C351.957111,238.556379 359.6874,241.344572 366.39026,246.619407 L366.535865,246.733285 C370.144152,249.59527 375.386862,248.986706 378.245735,245.374036 C378.248011,245.371303 378.250286,245.369025 378.252561,245.366747 C378.370865,245.216428 378.48462,245.061099 378.588819,244.911235 C378.693928,244.760916 378.743979,244.683479 378.816327,244.56459 C381.032261,240.959208 380.208225,236.264696 376.896609,233.632289 C375.452839,232.484397 373.974033,231.421231 372.46019,230.443701 C366.119069,226.272573 358.950272,223.526288 351.447492,222.394795 C350.397767,222.233543 349.335756,222.11101 348.26237,222.02583 C347.948408,221.998499 347.638997,221.975723 347.32458,221.957503 C347.06067,221.957503 346.797215,221.921062 346.533305,221.911951 L346.078287,221.889631 C345.759775,221.889631 345.441263,221.8664 345.118201,221.861845 C344.795139,221.85729 344.385168,221.861845 344.017059,221.861845 L342.874966,221.861845 C342.497301,221.861845 342.19244,221.861845 341.855727,221.893731 L341.646419,221.893731 C341.295601,221.893731 340.945692,221.930172 340.599879,221.952948 L339.744447,222.016719 L339.289429,222.057715 C338.77071,222.103267 338.25199,222.157928 337.73782,222.226255 C337.718254,222.2217 337.697779,222.2217 337.678668,222.226255 C337.328305,222.267707 336.972936,222.317358 336.627578,222.367464 C336.281765,222.41757 335.895,222.477242 335.530531,222.540559 L334.438945,222.740984 C334.074931,222.809311 333.715467,222.886748 333.350998,222.964185 C325.303562,224.671902 317.854019,228.490463 311.765433,234.028585" id="Fill-55" fill="#03359F" mask="url(#mask-2)"></path>
                    <path d="M311.433043,246.036032 C311.782041,246.394976 312.16289,246.721123 312.570586,247.010829 C313.274953,247.511437 314.053487,247.899078 314.877524,248.15872 C315.283854,248.285353 315.699285,248.381011 316.119721,248.445693 C316.664831,248.526775 317.216312,248.555472 317.766883,248.531785 C317.976191,248.531785 318.1946,248.50491 318.403908,248.477124 L318.558613,248.477124 C318.674188,248.477124 318.782937,248.459359 318.886226,248.422918 C318.97996,248.409252 319.072328,248.391032 319.163787,248.368256 C319.258885,248.350036 319.353074,248.32726 319.445897,248.299929 L319.5278,248.299929 L319.837667,248.208827 L320.155724,248.108614 L320.210326,248.108614 L320.460586,248.012956 L320.57434,247.967405 L320.847351,247.848516 L321.161312,247.698197 C321.716434,247.417146 322.238338,247.075056 322.717472,246.678305 L323.013233,246.418663 C328.518942,241.330587 335.976676,238.556516 344.035032,238.556516 C351.952333,238.556516 359.687627,241.344253 366.390032,246.619088 L366.531088,246.732966 C369.505991,249.097076 373.701705,249.147638 376.732575,246.855955 C375.611868,245.373717 374.36148,243.994425 372.996883,242.733566 C369.437738,238.846678 364.929427,235.953262 359.915136,234.338015 C355.106058,231.798532 349.707733,230.589602 344.276646,230.835579 C333.278878,230.835579 323.513752,235.44081 315.56915,242.738121 C314.286456,243.925187 313.100681,245.213832 312.024565,246.591757 C311.833458,246.414107 311.629155,246.231902 311.433043,246.036032" id="Fill-56" fill="#041C69" mask="url(#mask-2)"></path>
                    <path d="M334.266129,65.0427718 C338.461389,65.0368501 342.606596,64.1331132 346.424192,62.3916888 C344.526769,63.5714663 342.56064,64.833236 340.45846,66.1268916 C333.874814,70.1804977 326.954001,73.7567266 315.810172,73.8296086 L315.810172,63.7582264 C317.673013,63.596064 319.466237,62.9697342 321.024671,61.9361763 C325.154863,63.9395204 329.676825,65.0004091 334.266129,65.0427718" id="Fill-57" fill="#041C69" mask="url(#mask-2)"></path>
                    <path d="M327.367976,176.524546 C322.170768,176.529101 317.961858,180.750335 317.966405,185.952744 C317.970959,191.148776 322.177594,195.360444 327.367976,195.364599 L376.600848,195.364599 C376.982607,195.365911 377.364367,195.341768 377.742941,195.291662 C382.894192,194.626158 386.531601,189.906137 385.86682,184.748824 C385.319434,180.504359 381.982338,177.163174 377.742941,176.615648 C377.364367,176.566453 376.982607,176.541855 376.600848,176.542766 L327.367976,176.542766 L327.367976,176.524546 Z" id="Fill-58" fill="#03359F" mask="url(#mask-2)"></path>
                    <path d="M321.83492,159.921478 L321.83492,166.016236 L332.755335,166.016236 L332.755335,113.805389 C332.755335,106.484391 338.683301,100.549518 345.996339,100.549518 L335.075924,100.549518 C327.762885,100.549518 321.83492,106.484391 321.83492,113.805389 L321.83492,159.921478 Z" id="Fill-59" fill="#041C69" mask="url(#mask-2)"></path>
                    <path d="M315.810354,73.8296086 C315.810354,73.8296086 330.666669,93.5027395 349.740995,93.5027395 C356.566254,93.5027395 361.758002,91.5303703 365.607448,88.7380784 C372.514611,83.7274405 375.104114,76.0657196 375.104114,72.3765236 C375.104114,66.632055 371.854835,59.872249 369.830008,57.8452182 C367.805637,55.8186429 364.429408,54.4288741 358.349922,56.3925887 C354.254766,57.7181302 350.514979,59.8499288 346.519472,62.3461376 C344.599754,63.5391249 342.610874,64.8150155 340.481393,66.1268916 C333.874541,70.1804977 326.953728,73.7567266 315.810354,73.8296086" id="Fill-60" fill="#5CA5FF" mask="url(#mask-2)"></path>
                    <path d="M326.280212,73.2055109 C333.454469,80.2058275 343.040774,84.1801744 353.058435,84.3063514 C360.734577,84.3063514 367.769144,81.9012452 373.930078,77.8335182 C372.26426,82.1968728 369.37399,85.9858261 365.607812,88.742588 C361.758366,91.5348798 356.570713,93.5072491 349.741359,93.5072491 C330.667033,93.5072491 315.810263,73.8341182 315.810263,73.8341182 C319.157826,73.8332071 322.494013,73.446477 325.752847,72.6816715 C325.929848,72.8502111 326.09866,73.0274055 326.280212,73.2055109" id="Fill-61" fill="#03359F" mask="url(#mask-2)"></path>
                    <path d="M332.741548,113.805298 L332.741548,166.016145 L354.227465,166.016145 L354.227465,125.252328 C354.227465,121.468385 357.291552,118.401419 361.070925,118.401419 C364.850299,118.401419 367.914386,121.468385 367.914386,125.252328 L367.914386,166.016145 L386.010424,166.016145 L386.010424,113.805298 C386.010424,106.484756 380.082458,100.549427 372.769875,100.549427 L345.983007,100.549427 C338.669514,100.549427 332.741548,106.484756 332.741548,113.805298" id="Fill-62" fill="#03359F" mask="url(#mask-2)"></path>
                    <path d="M333.28766,202.903368 L333.28766,222.996026 L333.360463,222.996026 C333.719926,222.914489 334.08394,222.841607 334.447954,222.772825 C334.811968,222.704953 335.175982,222.636171 335.539996,222.572855 C335.90401,222.508627 336.268023,222.449411 336.636587,222.399304 C337.005151,222.349198 337.337314,222.299092 337.687677,222.258095 C337.707243,222.253085 337.727264,222.253085 337.74683,222.258095 L337.74683,195.382856 L333.269459,195.382856 L333.28766,202.903368 Z" id="Fill-63" fill="#041C69" mask="url(#mask-2)"></path>
                    <path d="M337.764939,195.364726 L337.764939,222.239966 C338.279109,222.171639 338.798284,222.116978 339.316548,222.071426 L339.771566,222.03043 L340.626998,221.966658 C340.977816,221.943883 341.323175,221.921107 341.673538,221.907897 L341.882846,221.907897 C342.224109,221.907897 342.560822,221.880111 342.902085,221.875556 C343.243348,221.871001 343.661963,221.875556 344.044178,221.875556 L345.14532,221.875556 C345.509789,221.875556 345.786894,221.875556 346.105406,221.902887 L346.560424,221.925662 C346.824334,221.925662 347.088244,221.952993 347.352154,221.971214 C347.666116,221.971214 347.975528,222.01221 348.289489,222.03954 C349.35423,222.124721 350.41624,222.24771 351.474611,222.408506 L351.474611,195.364726 L337.764939,195.364726 Z" id="Fill-64" fill="#03359F" mask="url(#mask-2)"></path>
                    <path d="M337.764939,207.895785 L337.764939,195.364635 L351.44731,195.364635 L351.44731,203.026812 C346.561789,203.525142 341.86874,205.195507 337.764939,207.895785" id="Fill-65" fill="#041C69" mask="url(#mask-2)"></path>
                    <path d="M351.447446,202.903368 L351.447446,222.408415 C358.950226,223.540363 366.119024,226.286193 372.460145,230.457321 L372.460145,202.903368 L351.447446,202.903368 Z" id="Fill-66" fill="#C2E2FF" mask="url(#mask-2)"></path>
                    <polygon id="Fill-67" fill="#041C69" mask="url(#mask-2)" points="354.227329 176.524318 367.914249 176.524318 367.914249 166.016099 354.227329 166.016099"></polygon>
                    <path d="M357.667533,131.173945 C357.667533,129.292223 359.191385,127.766711 361.070607,127.766711 C362.950738,127.766711 364.474591,129.292223 364.474591,131.173945 C364.474591,133.055667 362.950738,134.581179 361.070607,134.581179 C359.194571,134.581179 357.672538,133.061589 357.667533,131.183055 L357.667533,131.173945 Z M354.227147,125.252282 L354.227147,166.016099 L367.914522,166.016099 L367.914522,125.252282 C367.914522,121.46834 364.850436,118.401374 361.070607,118.401374 C357.291688,118.401374 354.227147,121.46834 354.227147,125.252282 L354.227147,125.252282 Z" id="Fill-68" fill="#041C69" mask="url(#mask-2)"></path>
                    <path d="M361.070789,127.775822 C362.95092,127.775822 364.474318,129.301333 364.474318,131.1826 C364.474318,133.064778 362.95092,134.590289 361.070789,134.590289 C359.191112,134.590289 357.667715,133.064778 357.667715,131.1826 C357.667715,129.301333 359.191112,127.775822 361.070789,127.775822" id="Fill-69" fill="#03359F" mask="url(#mask-2)"></path>
                    <path d="M366.390169,246.623689 C366.212257,247.248652 366.122163,247.895935 366.121708,248.545952 C366.219992,252.398677 369.419674,255.441956 373.26821,255.344021 C376.978876,255.249274 379.964245,252.260201 380.058924,248.545952 C380.063439,247.125664 379.629807,245.738172 378.816691,244.573882 C378.743888,244.692316 378.671086,244.806194 378.589183,244.920072 C378.507279,245.03395 378.370774,245.229365 378.25247,245.375584 C375.398146,248.991443 370.155437,249.605929 366.543965,246.748044 C366.541234,246.746222 366.538504,246.7444 366.535774,246.742122 L366.390169,246.623689 Z" id="Fill-70" fill="#03359F" mask="url(#mask-2)"></path>
                    <path d="M372.460008,202.903368 L372.460008,230.457321 C373.976581,231.441228 375.455387,232.503939 376.896427,233.645909 C377.200379,233.89553 377.486585,234.16656 377.75186,234.457177 L377.75186,195.364635 L377.75186,195.291753 C377.373285,195.341404 376.991526,195.366002 376.609766,195.364635 L372.469564,195.364635 L372.460008,202.903368 Z" id="Fill-71" fill="#041C69" mask="url(#mask-2)"></path>
                    <path d="M372.460008,166.01619 L372.460008,176.524409 L376.601121,176.524409 C376.982425,176.523498 377.364185,176.548096 377.742759,176.597291 L377.742759,176.524409 L377.742759,166.01619 L372.460008,166.01619 Z" id="Fill-72" fill="#041C69" mask="url(#mask-2)"></path>
                    <path d="M377.751814,176.524546 L377.751814,176.597428 C382.90352,177.262931 386.540473,181.983408 385.875693,187.140721 C385.328762,191.384731 381.99121,194.725916 377.751814,195.273442 L377.751814,195.346324 L377.751814,234.457086 C380.366344,237.20246 380.803615,241.367211 378.816555,244.596339 C380.815446,247.480189 380.359063,251.401696 377.751814,253.747586 L377.751814,255.542761 L394.273947,255.542761 L394.273947,138.093408 L386.010378,138.093408 L386.010378,166.016327 L377.751814,166.016327 L377.751814,176.524546 Z" id="Fill-73" fill="#5CA5FF" mask="url(#mask-2)"></path>
                    <path d="M96.5922102,138.093363 L96.5922102,182.154635 C102.173907,180.677408 107.530826,178.45314 112.517816,175.541048 L113.122989,175.085536 L113.122989,138.093363 L96.5922102,138.093363 Z" id="Fill-74" fill="#03359F" mask="url(#mask-2)"></path>
                    <path d="M377.738482,176.606857 C379.081693,176.766286 380.373942,177.21861 381.523771,177.932398 C385.948359,176.640109 390.220062,174.873176 394.264256,172.662118 L394.264256,138.093272 L386.010697,138.093272 L386.010697,166.01619 L377.751678,166.01619 L377.751678,176.524409 L377.738482,176.606857 Z" id="Fill-75" fill="#03359F" mask="url(#mask-2)"></path>
                    <path d="M382.779664,178.843514 C382.528495,178.620769 382.26231,178.415788 381.983384,178.228117 C382.260945,178.416699 382.52713,178.622591 382.779664,178.843514" id="Fill-76" fill="#041C69" mask="url(#mask-2)"></path>
                    <polygon id="Fill-77" fill="#5CA5FF" mask="url(#mask-2)" points="386.01056 123.129503 386.01056 138.093545 394.273674 138.093545 411.400526 138.093545 416.692377 138.093545 433.214055 138.093545 433.214055 123.129503"></polygon>
                    <polygon id="Fill-78" fill="#041C69" mask="url(#mask-2)" points="411.400435 202.903368 411.400435 255.519621 416.692286 255.519621 416.692286 138.093499 411.400435 138.093499"></polygon>
                    <polygon id="Fill-79" fill="#5CA5FF" mask="url(#mask-2)" points="416.69224 138.093363 416.69224 255.519484 433.214374 255.519484 433.214374 202.903231 433.214374 138.093363"></polygon>
                    <path d="M135.532636,138.093363 L135.532636,179.275796 C141.326372,177.811323 146.886228,175.540593 152.049764,172.530111 L152.049764,138.093363 L135.532636,138.093363 Z" id="Fill-80" fill="#03359F" mask="url(#mask-2)"></path>
                    <path d="M416.687781,138.093363 L416.687781,171.837276 C422.471961,170.447507 428.033638,168.253759 433.209459,165.319347 L433.209459,138.093363 L416.687781,138.093363 Z" id="Fill-81" fill="#03359F" mask="url(#mask-2)"></path>
                    <path d="M452.338205,202.903368 L452.338205,248.846362 C452.338205,252.531914 455.323118,255.520076 459.004208,255.520076 L499.045731,255.520076 C502.727276,255.520076 505.712189,252.531914 505.712189,248.846362 L505.712189,189.060342 L452.338205,189.060342 L452.338205,202.903368 Z" id="Fill-82" fill="#9ECDFF" mask="url(#mask-2)"></path>
                    <path d="M452.502193,204.771242 C455.448885,213.879216 460.703425,222.067053 467.754373,228.535331 C474.218349,235.595776 482.400015,240.857857 491.501726,243.808211 C495.981371,246.174599 500.764058,247.912379 505.716466,248.974179 C505.644574,252.603703 502.685596,255.508962 499.059563,255.510784 L459.018041,255.510784 C455.336496,255.510784 452.352037,252.523077 452.352037,248.83707 L452.352037,204.442818 L452.502193,204.771242 Z" id="Fill-83" fill="#5CA5FF" mask="url(#mask-2)"></path>
                    <path d="M462.398819,153.571451 C460.658833,153.756389 458.979364,154.315759 457.475532,155.211296 C459.504909,164.285561 466.516726,169.664709 473.696899,168.284506 C475.392748,167.973391 477.01807,167.356171 478.492781,166.462456 C475.944684,158.673191 469.733698,152.892737 462.398819,153.571451" id="Fill-84" fill="#5CA5FF" mask="url(#mask-2)"></path>
                    <path d="M464.765,133.136976 C463.016824,133.123767 461.286393,133.487721 459.691557,134.203331 C460.697146,143.391019 467.058287,149.471656 474.347665,148.920486 C476.06672,148.805241 477.750284,148.37797 479.316453,147.659172 C477.668836,139.710478 472.12718,133.292306 464.765,133.136976" id="Fill-85" fill="#5CA5FF" mask="url(#mask-2)"></path>
                    <path d="M464.218888,113.673154 C464.218888,122.887717 469.847452,129.616092 477.15048,129.8894 C478.870901,129.96957 480.591321,129.736803 482.228473,129.201576 C481.473144,121.152669 476.672712,114.169662 469.378785,113.189855 C467.643804,112.98123 465.884707,113.146126 464.218888,113.673154" id="Fill-86" fill="#5CA5FF" mask="url(#mask-2)"></path>
                    <path d="M470.99396,93.8174532 C469.95197,102.9687 474.820655,110.265555 482.04633,111.359241 C483.747184,111.631637 485.483075,111.592919 487.17028,111.245363 C487.306785,103.178236 483.315828,95.7032751 476.172056,93.9358864 C474.473932,93.5272917 472.70892,93.4867511 470.99396,93.8174532" id="Fill-87" fill="#5CA5FF" mask="url(#mask-2)"></path>
                    <path d="M479.32114,147.659126 L479.32114,147.659126 C480.714403,148.664898 482.291038,149.387341 483.961862,149.78637 C486.964976,150.457795 490.102775,150.158979 492.925702,148.934561 C496.597237,147.318403 499.635388,144.537954 501.571031,141.022308 C500.200974,140.02428 498.678031,139.255375 497.06181,138.744746 C495.724059,138.30381 494.325791,138.074687 492.917057,138.065577 C487.306694,138.029136 481.914284,141.522917 479.302484,147.63134 L479.32114,147.659126 Z" id="Fill-88" fill="#5CA5FF" mask="url(#mask-2)"></path>
                    <path d="M479.944104,74.8224893 C477.883331,83.8188619 481.905684,91.6126814 488.967097,93.4985033 C490.62609,93.9599375 492.354246,94.1143562 494.067841,93.9540158 C494.562445,90.4529465 494.17295,86.8840057 492.935303,83.5728851 C491.479248,79.8559028 488.840148,76.8814059 485.086255,75.4784273 C483.438637,74.8940047 481.685456,74.6703481 479.944104,74.8224893" id="Fill-89" fill="#5CA5FF" mask="url(#mask-2)"></path>
                    <path d="M492.935212,132.540483 C497.721994,132.012088 502.194814,129.183355 505.093275,125.142959 C503.842432,123.996434 502.415043,123.0599 500.866164,122.368888 C498.39724,121.235117 495.64484,120.871618 492.966608,121.325764 C488.726302,122.040919 484.749451,124.755774 482.23275,129.197021 C483.507709,130.352656 484.996525,131.247283 486.614567,131.829883 C488.642124,132.534561 490.802091,132.777805 492.935212,132.540483" id="Fill-90" fill="#5CA5FF" mask="url(#mask-2)"></path>
                    <path d="M478.492872,166.453482 C479.988969,167.306202 481.638862,167.854183 483.347907,168.065997 C486.719585,168.423574 490.109919,167.592264 492.935121,165.715552 C496.041069,163.66529 498.460851,160.72769 499.878685,157.284015 C498.404884,156.438584 496.803223,155.838218 495.137405,155.507516 C494.411197,155.358108 493.674979,155.26655 492.935121,155.234208 C486.57853,154.965001 480.613253,159.251374 478.492872,166.453482" id="Fill-91" fill="#5CA5FF" mask="url(#mask-2)"></path>
                    <path d="M492.935212,106.220832 C490.64784,107.416097 488.673065,109.132468 487.169688,111.23147 C488.305866,112.522392 489.685024,113.576448 491.228897,114.333966 C491.782653,114.598618 492.35279,114.828197 492.935212,115.021334 C499.132093,117.067041 505.962358,114.602262 510.334619,109.76062 C509.218461,108.482452 507.903461,107.393321 506.440126,106.535135 C502.303108,104.07309 497.181889,103.953746 492.935212,106.220832" id="Fill-92" fill="#5CA5FF" mask="url(#mask-2)"></path>
                    <path d="M491.010262,56.8751131 C488.817078,63.0928593 489.758964,69.0372979 492.934985,72.9137095 C494.236789,74.5162026 495.931274,75.7529192 497.853722,76.5036038 C499.447192,77.1426879 501.143042,77.4884219 502.858912,77.5234964 C504.802291,69.6526953 502.604102,61.4302385 496.033653,58.104997 C494.460203,57.344291 492.743878,56.9252195 490.996611,56.8751131 L491.010262,56.8751131 Z" id="Fill-93" fill="#5CA5FF" mask="url(#mask-2)"></path>
                    <path d="M494.077215,93.9495518 L494.077215,93.9495518 C495.062327,95.3579966 496.31499,96.5591831 497.762855,97.4843291 C503.987492,101.369851 511.922993,99.7983328 517.269447,95.0564473 C516.304355,93.6598458 515.119035,92.4295065 513.761263,91.412347 C507.964343,86.997975 499.646626,87.8593492 494.077215,93.9495518" id="Fill-94" fill="#5CA5FF" mask="url(#mask-2)"></path>
                    <path d="M502.881617,77.5190779 L502.881617,77.5190779 C503.702014,79.0318351 504.811801,80.3678533 506.149097,81.4501511 C511.90006,86.0052765 519.967517,85.3265628 525.83269,81.1813987 C525.031405,79.683218 523.9926,78.3253351 522.757228,77.159223 C517.496773,72.0984788 509.106709,72.0529275 502.881617,77.5190779" id="Fill-95" fill="#5CA5FF" mask="url(#mask-2)"></path>
                    <path d="M508.47378,68.9599974 C510.306135,68.5104065 512.069327,67.8143833 513.716034,66.8919705 C520.927604,62.8383644 525.477777,55.2399598 525.718936,47.5235774 C523.785567,47.6839178 521.89406,48.1754158 520.126773,48.9766624 C512.132119,52.4886641 507.227033,61.4303751 508.46468,68.9599974 L508.47378,68.9599974 Z" id="Fill-96" fill="#5CA5FF" mask="url(#mask-2)"></path>
                    <path d="M238.912431,29.61287 L251.070493,29.61287 C251.698872,29.61287 252.208036,29.1031515 252.208036,28.4740887 C252.208036,27.8450259 251.698872,27.3353073 251.070493,27.3353073 L238.912431,27.3353073 C238.284507,27.3353073 237.774887,27.8450259 237.774887,28.4740887 C237.774887,29.1031515 238.284507,29.61287 238.912431,29.61287" id="Fill-97" fill="#E5F4FF" mask="url(#mask-2)"></path>
                    <path d="M238.912431,38.2129012 L251.070493,38.2129012 C251.698872,38.2129012 252.208036,37.7031826 252.208036,37.0741198 C252.208036,36.445057 251.698872,35.9353385 251.070493,35.9353385 L238.912431,35.9353385 C238.284507,35.9353385 237.774887,36.445057 237.774887,37.0741198 C237.774887,37.7031826 238.284507,38.2129012 238.912431,38.2129012" id="Fill-98" fill="#E5F4FF" mask="url(#mask-2)"></path>
                    <path d="M238.912431,46.8173508 L251.070493,46.8173508 C251.698872,46.8173508 252.208036,46.3076322 252.208036,45.6785694 C252.208036,45.0499621 251.698872,44.5397881 251.070493,44.5397881 L238.912431,44.5397881 C238.284507,44.5397881 237.774887,45.0499621 237.774887,45.6785694 C237.774887,46.3076322 238.284507,46.8173508 238.912431,46.8173508" id="Fill-99" fill="#E5F4FF" mask="url(#mask-2)"></path>
                    <path d="M160.876963,64.2046743 L182.34468,64.2046743 C182.973059,64.2046743 183.482223,63.6945002 183.482223,63.0658929 C183.482223,62.4368301 182.973059,61.9271116 182.34468,61.9271116 L160.876963,61.9271116 C160.24904,61.9271116 159.73942,62.4368301 159.73942,63.0658929 C159.73942,63.6945002 160.24904,64.2046743 160.876963,64.2046743" id="Fill-100" fill="#03359F" mask="url(#mask-2)"></path>
                    <path d="M170.291271,30.4327015 L191.758988,30.4327015 C192.387367,30.4327015 192.896531,29.9229829 192.896531,29.2939201 C192.896531,28.6648573 192.387367,28.1551388 191.758988,28.1551388 L170.291271,28.1551388 C169.663348,28.1551388 169.153728,28.6648573 169.153728,29.2939201 C169.153728,29.9229829 169.663348,30.4327015 170.291271,30.4327015" id="Fill-101" fill="#03359F" mask="url(#mask-2)"></path>
                    <path d="M170.291271,24.055526 L191.758988,24.055526 C192.387367,24.055526 192.896531,23.5458074 192.896531,22.9167446 C192.896531,22.2876818 192.387367,21.7779633 191.758988,21.7779633 L170.291271,21.7779633 C169.663348,21.7779633 169.153728,22.2876818 169.153728,22.9167446 C169.153728,23.5458074 169.663348,24.055526 170.291271,24.055526" id="Fill-102" fill="#03359F" mask="url(#mask-2)"></path>
                    <path d="M201.064274,8.66817582 L214.796696,8.66817582 C215.425075,8.66817582 215.934239,8.15845729 215.934239,7.52939448 C215.934239,6.90078717 215.425075,6.39061313 214.796696,6.39061313 L201.064274,6.39061313 C200.435895,6.39061313 199.92673,6.90078717 199.92673,7.52939448 C199.92673,8.15845729 200.435895,8.66817582 201.064274,8.66817582" id="Fill-103" fill="#03359F" mask="url(#mask-2)"></path>
                    <path d="M160.876963,8.66817582 L174.609386,8.66817582 C175.237765,8.66817582 175.746929,8.15845729 175.746929,7.52939448 C175.746929,6.90078717 175.237765,6.39061313 174.609386,6.39061313 L160.876963,6.39061313 C160.24904,6.39061313 159.73942,6.90078717 159.73942,7.52939448 C159.73942,8.15845729 160.24904,8.66817582 160.876963,8.66817582" id="Fill-104" fill="#03359F" mask="url(#mask-2)"></path>
                    <path d="M181.093473,8.66817582 L194.834996,8.66817582 C195.463375,8.66817582 195.972539,8.15845729 195.972539,7.52939448 C195.972539,6.90078717 195.463375,6.39061313 194.834996,6.39061313 L181.093473,6.39061313 C180.465094,6.39061313 179.95593,6.90078717 179.95593,7.52939448 C179.95593,8.15845729 180.465094,8.66817582 181.093473,8.66817582" id="Fill-105" fill="#03359F" mask="url(#mask-2)"></path>
                    <path d="M479.129623,180.137079 L479.230182,180.137079 C479.853556,180.084239 480.315853,179.535802 480.263526,178.91175 C480.263071,178.908562 480.263071,178.905373 480.262616,178.90264 C476.869097,140.061541 487.263058,101.26645 509.615783,69.3382094 C509.976611,68.8225692 509.851481,68.1115142 509.336402,67.7502927 C508.820867,67.3895268 508.11104,67.5152483 507.750212,68.0308885 C485.09763,100.399609 474.56762,139.72674 478.010281,179.09851 C478.061698,179.681111 478.545836,180.129791 479.129623,180.137079" id="Fill-106" fill="#9ECDFF" mask="url(#mask-2)"></path>
                    <path d="M31.0424178,191.451919 L50.6946151,191.451919 C52.9251099,191.448275 55.1260285,191.963004 57.1240095,192.955111 C57.6791306,186.942345 60.9006531,180.656272 63.8901168,177.198932 C64.2937171,176.728387 64.7268936,176.283807 65.1869161,175.868835 C68.4675908,172.944445 71.9484732,169.036147 70.4150649,164.162163 C68.8816566,159.288179 63.5898054,160.736709 56.8145978,161.606282 C55.9045631,161.725171 54.953577,161.829939 53.9889403,161.907376 C45.8577811,162.558759 47.9417604,154.582734 52.9469507,149.153025 C53.5416583,148.509841 54.0922292,147.826117 54.5941133,147.107318 C58.0749957,142.133121 58.3480061,136.63053 55.9591652,134.011333 C54.7815804,132.61382 52.9965476,131.879534 51.1769334,132.043974 C49.5343209,132.157852 47.6596497,132.863897 45.484667,134.098336 C43.8593452,135.041702 42.2913555,136.080271 40.7888884,137.209486 C40.4066739,137.491904 40.015359,137.783432 39.6149438,138.088625 C31.6930926,144.146487 28.5671237,138.088625 24.1898573,134.540183 C19.8125908,130.99174 13.1420372,128.486421 9.59745242,131.615792 C6.55338668,134.307871 7.50892301,138.380154 11.5403763,144.770994 C12.1983313,145.818673 12.9404645,146.930124 13.7654109,148.105346 C19.6032829,156.450336 12.5141133,157.702995 5.5386981,159.579707 C5.17513927,159.675365 4.81795069,159.794253 4.46940744,159.935007 C-1.36846453,162.267231 -0.726890138,169.199676 2.08966696,174.402085 C7.09485727,183.68543 8.96952855,193.611049 8.96952855,193.611049 C11.2573555,192.197138 13.8932708,191.449186 16.581968,191.451919 L31.0424178,191.451919 Z" id="Fill-107" fill="#5CA5FF" mask="url(#mask-2)"></path>
                    <path d="M4.4603526,159.939744 C4.80889585,159.798535 5.16608443,159.680102 5.52964325,159.584444 L7.21320727,159.128932 C8.65470208,160.932306 10.2290619,162.625446 11.9226363,164.194231 C17.0766173,169.828921 23.6038405,174.02738 30.8650066,176.379192 C37.8381467,180.061099 45.6671744,181.813001 53.5430689,181.453146 C56.1157367,181.449046 58.6856744,181.280051 61.2374114,180.947527 C59.2216848,184.368881 57.5153699,188.723126 57.1422557,192.946182 C55.1442747,191.953621 52.9433561,191.439347 50.7128612,191.442536 L16.5865637,191.442536 C13.8978664,191.439803 11.2614962,192.187754 8.97412422,193.601665 C8.97412422,193.601665 7.10855329,183.685613 2.08971246,174.402267 C-0.726844637,169.199858 -1.36841903,162.266958 4.4603526,159.939744" id="Fill-108" fill="#041C69" mask="url(#mask-2)"></path>
                    <path d="M11.5313215,144.775686 C-5.33161972,146.970801 4.20099273,159.602619 4.4603526,159.939699 C4.80889585,159.79849 5.16608443,159.680056 5.52964325,159.584399 C12.5050585,157.707687 19.594228,156.455028 13.7563561,148.109582 C12.9341398,146.93436 12.1924616,145.823365 11.5313215,144.775686" id="Fill-109" fill="#9ECDFF" mask="url(#mask-2)"></path>
                    <path d="M28.9128458,122.856377 C21.9328804,123.826619 24.1806659,134.544829 24.1806659,134.544829 C28.5579324,138.093272 31.6839012,144.151588 39.6057524,138.093272 C40.0061676,137.787623 40.3974825,137.49655 40.7796971,137.214133 C40.147223,129.834374 35.8882611,121.886136 28.9128458,122.856377" id="Fill-110" fill="#9ECDFF" mask="url(#mask-2)"></path>
                    <path d="M52.9469962,149.152888 C47.9418059,154.578043 45.8578266,162.554067 53.9889858,161.907239 C54.9536225,161.829802 55.9000585,161.72549 56.8146433,161.606601 C68.3402315,147.57226 54.5941588,147.116747 54.5941588,147.116747 C54.0918197,147.832358 53.5412488,148.512438 52.9469962,149.152888" id="Fill-111" fill="#9ECDFF" mask="url(#mask-2)"></path>
                    <path d="M57.1239185,192.955065 C57.7568476,193.262536 58.3652057,193.616925 58.9439877,194.016409 C71.4342126,185.170356 63.6989185,177.517745 63.8900258,177.198886 C60.9005621,180.651671 57.6790396,186.9423 57.1239185,192.955065" id="Fill-112" fill="#9ECDFF" mask="url(#mask-2)"></path>
                    <path d="M20.9591434,164.567341 C21.2835708,164.029381 21.9820223,163.855831 22.5198528,164.180156 C25.0379185,165.739831 27.4212991,167.507219 29.6454237,169.464101 C29.8469964,164.669832 30.4312386,159.898794 31.3926901,155.197904 C31.545576,154.587517 32.1634894,154.21673 32.7727576,154.369782 C33.3583649,154.516913 33.7273839,155.095869 33.6131746,155.689858 C31.861358,163.674537 31.6019981,173.745919 31.7430535,181.449092 C34.8690223,179.44757 38.2316002,177.84371 41.7534341,176.674865 C42.3526919,176.486283 42.9915362,176.819262 43.1799133,177.419628 C43.3651054,178.009061 43.0470483,178.638579 42.4632611,178.838549 C38.6843424,180.100775 35.1015362,181.888206 31.8204064,184.149825 C31.9569116,188.436198 32.1889704,191.319593 32.1889704,191.351934 C32.2390223,191.977808 31.7726296,192.526245 31.1469808,192.576807 L31.0559773,192.576807 C30.4635448,192.576352 29.9703061,192.120384 29.9229843,191.529129 C29.9229843,191.497243 29.6636244,188.295445 29.5271192,183.608221 C29.4315656,180.31441 29.4042645,176.442553 29.5271192,172.406712 C27.0063234,170.050346 24.263024,167.944056 21.3368078,166.116084 C20.8108078,165.789026 20.6429064,165.100747 20.9591434,164.567341" id="Fill-113" fill="#9ECDFF" mask="url(#mask-2)"></path>
                    <path d="M2.08970955,205.959857 L2.08970955,223.934382 C2.08970955,241.376868 16.2129945,255.517343 33.6360619,255.519621 C51.0595844,255.517343 65.1824131,241.376868 65.1824131,223.934382 L65.1824131,205.959857 C65.1846865,201.188818 62.8413474,196.722974 58.9168232,194.016318 C58.3375862,193.616834 57.729228,193.262445 57.096754,192.954974 C55.098773,191.962868 52.8978543,191.448594 50.6673595,191.451768 L16.5410619,191.451768 C8.55095813,191.469092 2.08470727,197.961057 2.08970955,205.959857" id="Fill-114" fill="#9ECDFF" mask="url(#mask-2)"></path>
                    <path d="M5.49324187,196.62185 L4.58320727,203.513754 C4.30564671,209.651786 5.66933356,215.752921 8.53275744,221.188096 C10.362382,226.845107 13.6266761,231.929993 18.0062176,235.946247 C22.0181052,240.331011 27.0979183,243.598858 32.7487782,245.430018 C38.1775896,248.296559 44.2720913,249.661274 50.4034495,249.383867 C51.0768751,249.383867 51.7412003,249.383867 52.4055256,249.334216 C46.9835394,253.360036 40.4094495,255.528731 33.6588128,255.520102 C16.2334702,255.529642 2.09972284,241.39691 2.08969399,223.952602 L2.08969399,223.934382 L2.08969399,205.959857 C2.08425225,202.542146 3.2900481,199.232848 5.49324187,196.62185" id="Fill-115" fill="#5CA5FF" mask="url(#mask-2)"></path>
                    <path d="M152.049673,111.090443 L152.049673,111.732716 L156.026525,111.732716 C158.648789,111.651179 160.708653,109.457431 160.62766,106.831856 C160.549852,104.321527 158.53458,102.304062 156.026525,102.226169 L152.008722,102.226169 C152.043758,102.410652 152.060594,102.598323 152.058774,102.786449 L152.058774,104.503732 L156.026525,104.503732 C157.392487,104.562493 158.452222,105.718128 158.393525,107.085577 C158.338467,108.370578 157.310128,109.400036 156.026525,109.455153 L152.058774,109.455153 L152.049673,111.090443 Z" id="Fill-116" fill="#5CA5FF" mask="url(#mask-2)"></path>
                    <path d="M126.850906,102.786267 L126.850906,111.090261 C126.850906,117.739377 132.235126,123.129457 138.877013,123.129457 L140.028207,123.129457 C146.41756,123.129457 151.692576,118.128841 152.040667,111.741644 L152.040667,111.099371 L152.040667,102.786267 C152.042939,101.21156 150.769801,99.9324812 149.196806,99.9302036 L149.187706,99.9302036 L129.703865,99.9302036 C128.12814,99.9302036 126.850906,101.208827 126.850906,102.786267" id="Fill-117" fill="#5CA5FF" mask="url(#mask-2)"></path>
                    <path d="M129.703865,99.9303858 L130.736754,99.9303858 C131.478887,105.463952 133.978752,110.61261 137.866875,114.61611 C140.591064,117.29589 143.887664,119.320644 147.508692,120.537773 C145.382851,122.231369 142.745116,123.151959 140.028207,123.147873 L138.877013,123.147873 C132.235126,123.147873 126.850906,117.75778 126.850906,111.108663 L126.850906,102.786449 C126.850906,101.20901 128.12814,99.9303858 129.703865,99.9303858" id="Fill-118" fill="#041C69" mask="url(#mask-2)"></path>
                    <path d="M144.555675,96.4366502 C145.309639,96.4366502 145.920727,95.8244414 145.920727,95.0701126 C145.932557,93.6530131 145.401552,92.2855645 144.43737,91.2479069 C143.90045,90.578759 143.550087,90.1369119 143.550087,89.1302292 C143.550087,88.1235464 143.90045,87.6862544 144.43737,87.0161955 C145.402462,85.9799045 145.933467,84.6120003 145.920727,83.1949008 C145.920727,82.439661 145.309639,81.8283632 144.555675,81.8283632 C143.801711,81.8283632 143.190623,82.439661 143.190623,83.1949008 C143.190623,84.2015835 142.83571,84.6429752 142.303339,85.3130341 C140.324924,87.4739856 140.324924,90.7905724 142.303339,92.9519793 C142.83571,93.6211273 143.190623,94.0634299 143.190623,95.0701126 C143.190623,95.8244414 143.801711,96.4366502 144.555675,96.4366502" id="Fill-119" fill="#9ECDFF" mask="url(#mask-2)"></path>
                    <path d="M136.720186,96.4366502 C137.47415,96.4366502 138.085238,95.8244414 138.085238,95.0701126 C138.099343,93.6521021 137.566518,92.2828314 136.597331,91.2479069 C136.064961,90.578759 135.710048,90.1369119 135.710048,89.1302292 C135.710048,88.1235464 136.060411,87.6862544 136.597331,87.0212061 C137.566063,85.9849151 138.098888,84.6142779 138.085238,83.1949008 C138.085238,82.439661 137.47415,81.8283632 136.720186,81.8283632 C135.966222,81.8283632 135.355134,82.439661 135.355134,83.1949008 C135.355134,84.2015835 135.000221,84.6429752 134.445099,85.3130341 C132.461679,87.4739856 132.461679,90.795583 134.445099,92.956079 C134.97747,93.6211273 135.355134,94.0634299 135.355134,95.0701126 C135.355134,95.8244414 135.966222,96.4366502 136.720186,96.4366502" id="Fill-120" fill="#9ECDFF" mask="url(#mask-2)"></path>
                    <g id="Group-134" mask="url(#mask-2)" fill="#041C69">
                        <g transform="translate(458.202422, 61.494192)">
                            <path d="M10.7759472,101.369897 C13.2207552,101.378551 15.6314369,100.793673 17.8009593,99.6662797 C18.8493192,101.319335 19.685641,103.0972 20.290359,104.959335 C18.8151929,105.853051 17.1903261,106.47027 15.4944766,106.781386 C9.3285372,107.965263 3.29091263,104.166744 0.424303633,97.3249452 C3.28044723,99.8689828 6.95334689,101.303847 10.7759472,101.369897" id="Fill-121"></path>
                            <path d="M13.9610683,82.2610546 C15.8562154,82.2642431 17.7354369,81.914865 19.5031791,81.2315962 C20.2234715,82.8099472 20.763577,84.4648242 21.1139403,86.164797 C19.5477708,86.8835958 17.8642067,87.311322 16.1451514,87.4265667 C10.0979715,87.8820793 4.69691609,83.7824664 2.4536808,77.1228731 C5.43768426,80.3228487 9.58926211,82.1763292 13.9610683,82.2610546" id="Fill-122"></path>
                            <path d="M18.8160574,63.9902645 C20.2980488,63.9902645 21.7718498,63.7770846 23.1933239,63.3571021 C23.6096647,64.7773902 23.8885903,66.2341193 24.0260055,67.7072468 C22.3888533,68.242474 20.6679779,68.4752409 18.9480125,68.3950707 C13.4468533,68.185535 8.8921301,64.3227887 6.98105744,58.4926837 C9.96597093,61.8174697 14.3386872,63.9902645 18.8160574,63.9902645" id="Fill-123"></path>
                            <path d="M25.1774268,45.8747587 C26.3436362,45.8756697 27.5071154,45.7444821 28.6442036,45.4830179 C28.8835427,46.8882741 28.9918369,48.3126618 28.9672659,49.7370495 C27.2805168,50.085061 25.5446258,50.1237796 23.8437711,49.8509276 C19.0114874,49.1180079 15.2348438,45.6105614 13.5744856,40.6313539 C16.5639493,43.8928236 20.7564787,45.7877558 25.1774268,45.8747587" id="Fill-124"></path>
                            <path d="M24.8814836,80.6302741 C27.6320631,82.8303997 31.0346825,84.0534508 34.5551514,84.1058348 C36.8898452,84.1144895 39.1940528,83.5829064 41.2894074,82.552537 C39.5102898,84.6720369 37.2620493,86.347412 34.7235078,87.4447417 C31.9005804,88.6696149 28.7623261,88.9679756 25.759667,88.2965501 C24.0888434,87.8979766 22.5117535,87.1750782 21.1184905,86.1693066 C21.9871185,84.0880698 23.2666272,82.2036144 24.8814836,80.6302741" id="Fill-125"></path>
                            <path d="M34.5777202,27.950067 C35.0645888,27.950067 35.5473621,27.9227363 36.0205801,27.877185 C36.1279642,29.4081627 36.0838275,30.9464285 35.8886251,32.4687514 C34.1745749,32.6286363 32.4459642,32.4746731 30.7878811,32.0132389 C25.7826908,30.674032 22.3200092,26.3739937 21.4418258,20.78941 C24.3307306,25.0575624 29.3727773,27.950067 34.5777202,27.950067" id="Fill-126"></path>
                            <path d="M27.5342799,63.3479463 C30.4918924,66.3707275 34.5160654,68.1107854 38.7413561,68.1950552 C40.2297176,68.1968772 41.710799,67.9800533 43.1368232,67.552327 C40.7097609,69.4709458 37.8022003,70.6839757 34.7326536,71.060229 C32.5981675,71.2993731 30.4372903,71.0579515 28.4079131,70.3541846 C26.7894166,69.7715841 25.301055,68.8769574 24.0260965,67.7213221 C24.9452315,66.0787439 26.1305516,64.6010613 27.5342799,63.3479463" id="Fill-127"></path>
                            <path d="M31.5427548,102.039363 C34.2637583,102.04984 36.9365299,101.322842 39.278049,99.9348954 C38.0267514,101.621658 36.4860628,103.073377 34.727876,104.221268 C31.9031285,106.09798 28.5123396,106.92929 25.1411164,106.571713 C23.4320715,106.3599 21.7821787,105.811918 20.2860818,104.959199 C20.8630438,102.958588 21.8021995,101.080965 23.0571372,99.4201663 C25.5729279,101.096452 28.5205299,102.006566 31.5427548,102.039363" id="Fill-128"></path>
                            <path d="M33.6676856,45.3325165 C36.6389486,49.1907077 41.4029798,51.7506882 46.2716649,51.7506882 C46.880023,51.7488661 47.4879261,51.7124251 48.0917341,51.6418207 C44.0966822,54.1239085 39.2416476,55.0349336 34.7192306,53.541308 C34.1363535,53.3477151 33.5662168,53.1181368 33.0129157,52.8530285 C31.469042,52.0964222 30.0903396,51.0419107 28.9541614,49.7509882 C30.2241147,47.9858771 31.8248656,46.4849633 33.6676856,45.3325165" id="Fill-129"></path>
                            <path d="M45.3301431,11.5427332 C45.2587054,13.0559459 45.038932,14.5586817 44.6749182,16.0295317 C42.9585929,15.9940017 41.2631984,15.6487232 39.6697279,15.0091836 C37.7472798,14.2589545 36.0523403,13.0217824 34.7509908,11.4192893 C32.8744995,9.04743555 31.7947434,6.14308762 31.6659735,3.12030643 C34.3273697,8.00795595 39.7284251,11.4516307 45.3301431,11.5427332" id="Fill-130"></path>
                            <path d="M35.8747926,32.4553593 C36.85854,31.3730616 37.9765175,30.4210404 39.200969,29.6216159 C42.1813324,33.3613738 46.8452597,35.8256966 51.6365919,35.8256966 C53.8361455,35.8302517 56.0097631,35.3546966 58.0068341,34.4322838 C52.7058825,38.4954556 45.3659984,39.6524574 39.5331317,36.0083571 C38.0848116,35.0832112 36.832604,33.8820246 35.8470365,32.4735798 C35.8470365,32.4735798 35.8747926,32.4599145 35.8747926,32.4553593" id="Fill-131"></path>
                            <path d="M53.7662093,19.4550315 C57.6343114,19.4746186 61.3622682,18.0069572 64.1815554,15.3554187 L64.5496644,15.692498 C65.7854913,16.8581546 66.8238408,18.216493 67.6260363,19.7142182 C61.7604083,23.8598378 53.6934066,24.5431066 47.9415329,19.9834261 C46.8053547,19.0596467 45.8343478,17.9491071 45.0708287,16.6991807 C47.6316661,18.4611032 50.6584412,19.4204126 53.7662093,19.4550315" id="Fill-132"></path>
                            <path d="M55.0534988,1.61265103 C57.3517912,1.61811718 59.6286978,1.17399246 61.7559036,0.305330053 C59.9786061,2.34648173 57.8659607,4.06923014 55.5085161,5.39796021 C53.8627185,6.3203731 52.0995265,7.01594074 50.2667168,7.46598713 C49.9340991,5.31141283 50.0455784,3.11174279 50.5943292,1.00180872 C52.0476545,1.40265975 53.5464815,1.60809591 55.0534988,1.61265103" id="Fill-133"></path>
                        </g>
                    </g>
                    <path d="M452.338205,185.671283 L452.338205,189.060296 L505.729935,189.060296 L505.729935,185.671283 C505.729935,181.985731 502.745476,178.998452 499.063931,178.998452 L459.022409,178.998452 C455.341319,178.988003 452.348215,181.96751 452.338205,185.653062 L452.338205,185.671283 Z" id="Fill-135" fill="#5CA5FF" mask="url(#mask-2)"></path>
                </g>
            </g>
        </g>
    </g>
</svg>