<svg xmlns="http://www.w3.org/2000/svg" width="226" height="40" aria-hidden="true" tabindex="-1" viewBox="0 0 219 39">
  <g fill="none" fill-rule="evenodd">
    <path fill="currentColor" fill-rule="nonzero" d="M88.4 26.2c.3 1.7 1.8 2.3 3.4 2.3 1.7 0 3-.7 3-1.6 0-1.3-1-2-2.4-2.3l-4-.8c-3.5-.6-5.6-1.7-5.6-4.7 0-4 3.5-6.7 8.4-6.7 4.8 0 8 2.3 8.8 5.6l-5.6 1.2c-.2-1.2-1.4-2.3-3.3-2.3-1.7 0-2.5.7-2.6 1.5-.1.5.1 1 1.9 1.3l4.5 1c3.7.7 5.4 3 5.4 5.8 0 4.3-3.7 6.6-8.8 6.6-4.6 0-8.5-1.7-9.2-5.7l6.1-1.2Zm56.5-8.9.1 2.4a13 13 0 0 1-13.5 13.6 13.6 13.6 0 1 1-.1-27.3c5.8 0 11 2.7 12.7 7.9l-6.1 1.8c-1.6-3-4-3.8-6.6-3.8a7.5 7.5 0 0 0-7.4 7.8c0 4.4 3.3 7.8 7.6 7.8 3.4 0 6-1.8 7-4.7h-8v-5.5h14.3Zm-86 15h-6.4V22h-11v10.3h-6.4V6.2h6.4v10.1h11V6.2h6.4zM82 22.5c0 6.2-5 10.3-10.7 10.3-6 0-10.8-4-10.8-10.3 0-6.2 4.9-10.3 10.8-10.3C77 12.2 82 16.3 82 22.5Zm-6 0c0-3-2.3-5-4.7-5a4.9 4.9 0 0 0-4.8 5c0 3 2.2 5 4.8 5 2.4 0 4.7-2 4.7-5Zm41.7 8.9c-1.6 1-3.5 1.5-5.3 1.5-4.9 0-7.8-2.7-7.8-7.8v-7.4H101v-5h3.5V7.5l6.2-1.3v6.5h5.8v5h-5.8v6.8c0 2 1 2.8 2.6 2.8 1 0 2-.3 2.9-.8l1.4 5Zm47-11.5v12.4h-6v-1.4a8.6 8.6 0 0 1-5.8 2c-4.4 0-7.3-2.6-7.3-6.4 0-3.9 3-6.3 8.1-6.3h5v-.4A2.6 2.6 0 0 0 156 17c-1.9 0-3 .8-3.3 2.5l-5.9-1.2c.9-3.8 4.3-6.2 9-6.2 5.5 0 9 2.8 9 7.8Zm-6 4.7V24h-4.2c-1.6 0-2.6.8-2.6 2 0 1.3 1.1 2 2.8 2 2.1.1 4-1.3 4-3.5Zm23.6 6.8a9.9 9.9 0 0 1-5.3 1.5c-4.9 0-7.8-2.7-7.8-7.8v-7.4h-3.5v-5h3.5V7.5l6.2-1.3v6.5h5.8v5h-5.8v6.8c0 2 1 2.8 2.6 2.8 1 0 2-.3 2.9-.8l1.4 5Z" class="header__logoPath"/>
    <path fill="currentColor" fill-rule="nonzero" d="M202.8 22.5c0 6.2-4.9 10.3-10.6 10.3-6 0-10.9-4-10.9-10.3 0-6.2 5-10.3 10.9-10.3 5.7 0 10.6 4.1 10.6 10.3Zm-6 0c0-3-2.2-5-4.6-5a4.9 4.9 0 0 0-4.9 5c0 3 2.3 5 4.9 5 2.4 0 4.7-2 4.7-5Zm22-9.9-.3 6.2h-1.1c-4.4 0-6.8 2.3-6.8 7.4v6.1h-6.2V14.1l6.2-1.4v3.8a7.6 7.6 0 0 1 8.2-3.9Z" class="header__logoPath"/>
    <path fill="#2E93EE" d="M21.2 28.4C20 29.4 19 31 17.9 32c.5 2.7-.5 4 .7 5 .5.3 3.1 1 4.7.2 0-1.5-.8-1.9-1.6-2.4-.8-1.8-.5-4.6-.6-6.4"/>
    <path fill="#2E578B" d="M21.8 37.6c-.2-.8-.8-1.5-1.6-1.8.7.4 1 1 1 1.8h.6Zm1.2-.3c0-.8-.7-1.5-1.4-1.8.7.6 1 1.3.9 2l.6-.2Z"/>
    <path fill="#2E93EE" d="M19.9 14.1c-.6.9-.8 2.6 3.6 5.1 0 0-1.8 3.3-2.4 3.9-.6.6-1 2.2-.4 3l1 1.1s1.5.3 2.1 0c.8-1 1-2.2.5-3.3 0 0 3.8-4 3.5-5.1-.2-1.2-6.1-7.3-8-4.7Z"/>
    <path fill="#2E578B" d="m24.3 24-2 1.4c.4 0 .7-.2 1-.4 0 0 .6.9.1 1.6 0 0 1-.6.3-1.8l.6-.8Z"/>
    <path fill="#2E93EE" d="M8.5 23.2c0 .3 0 .6-.2.8-.3.4-.4.4.2.7.5.3 1 .4 1.5.5 1 .2.7 0 .3-.8l-.6-1c-.9-1.3-1.1-1.2-1.2-.2m-3.2-.4c-.3.6.2.7.8 1H7c.7.2.5 0 .2-.5l-.6-1.1c-1.3-1.8-.7-.3-1.2.6m-2.9-.3v.4c0 .5 0 .4.6.5h.8c.8-.1.5-.4.1-.9l-.5-.4c-1.6-1.2-1-.4-1 .4m10.7-18s-4.6 2.3-4.5 3c0 .8 1.3.7 1.8 1.7 0 0-2.8 2-2.6 2.9.1.9 2 .5 2.4 1.2 0 0-.5 1.8 0 2.4.3.7.3.1.8 1 0 0-.2-6.6 2.1-12.2Z"/>
    <path fill="#2E93EE" d="M12.2 6.6c1.7 1.6 3.7 2.5 5.5 3.7 1.3.8 2.4 1.8 3.3 3 1.2 1.4.5 3.2.8 5a20.1 20.1 0 0 1 0 5.3c-.3 2.7-.4 5-2.3 7-2.4 2.5-5 3.1-8 .9-1-.7-2-1.5-2.9-2.5-.6-.7-1.3-1.1-2-1.8a9.6 9.6 0 0 0-3-2.1c-1-.5-1.9.1-2.4.4-.3.1-.7.4-1 .1a.3.3 0 0 1-.2-.4l.8-1c1.8-1.7 4.6-1.7 6.7-.6.8.5 1.7 1 2.6 1 .6 0 1.3-.1 1.8-.5.4-.4.7-.9.8-1.4.1-.8 0-1.5-.2-2.2-.3-1-1-2-1.4-3-1.3-3.5-1.7-7.5.4-10.8l.3-.4.4.3Z"/>
    <path fill="#FFCF00" d="M4 25.2c1.6.8 3.2 2.5 4.8 4.4 2 2.4 7.2 6 11.4.4 4-5.4 2.1-12.8 1.9-13.7-.2-.2-3.7-4.8-7-5.4-.8.7-1 2 .1 4.3 2 4 3.5 9.5 0 13-.4.5-1 1-1.8 1.2-2.4.8-3.7-.7-5.3-2.2a7.4 7.4 0 0 0-4-2Z"/>
    <path fill="#ECA93F" d="M20.7 29.3c-1.5-.2-3-.8-4.1-1.7a5.7 5.7 0 0 0 3.6 2.4l.5-.7Zm-6.9.3a9.5 9.5 0 0 0 2.5 3.3l1-.4a7.9 7.9 0 0 1-3.5-2.9Zm-5.2-.3.2.3.1.1.1-1-.4.6Zm1.7 1.7.5.5c-.1-.6-.2-1.3 0-1.6a6 6 0 0 0-.5 1.1Z"/>
    <path fill="#FF9144" d="m7 27.5.3.4.1-.8-.5.4Z"/>
    <path fill="#ECA93F" d="M17.7 24.7c1.5-.5 3.2-.5 4.7 0l.2-.7c-3.2-.8-5 .7-5 .7Zm5-4.9-.1-.8c-3.3-.1-5 1.5-5 1.5a8 8 0 0 1 5-.7Zm-1.4-4.4-.4-.5c-3.5 0-4.5 1.7-4.5 1.7 1.5-1 3.2-1.4 5-1.2Z"/>
    <path fill="#ECA93F" d="M22.6 19.2c0-.8-.2-1.5-.4-2.3l-.2-.2-7.6-4.6v.7c1.6 2.1 5 5.7 8.2 6.4Z"/>
    <path fill="#2E93EE" d="M11.4 27.9c.5-.7 1.2-1 2-1 2.3.3 1.6 3 1 4.6a13 13 0 0 0-.6 3.5c0 1.5.6 2-.1 2.6a6.1 6.1 0 0 1-4 1.1c-1.2-.3-1.3-2.9.7-3.5a8 8 0 0 0 .5-3.8c0-.9 0-2.7.5-3.6"/>
    <path fill="#2E578B" d="m11 38.7.4-.1c-.1-.8.1-1.6.7-2.1-.9.5-1.1 1.3-1.2 2.2Zm-1.3 0c-.2-.8 0-1.7.6-2.3-.7.4-1.1 1.2-1.1 2 .1.1.3.3.5.3Zm1.2-14.1s-.3 1.5.7 2c.9.4 2 .4 2.5-.2.7-.9 1.7-2.7-1.2-4.5-1.7-1-1.9 2.7-1.9 2.7Zm.2-7.2.8 1.5s2.3-3 1.9-3.4c-.5-.5-2.3 1.2-2.7 1.9Z"/>
    <path fill="#2E93EE" d="M13.4 13c2.5 2.5-2.7 5.8-2.7 5.8.6.4 1.3 1.6 1.8 2.5.6 1 .8.8 1.4 1.5.7.8-1.2 1.9-1.2 1.9S6.4 21.3 6.4 19c0-.3 1.5-2.8 3-4.3.7-.7 2.8-2.9 4-1.7Z"/>
    <path fill="#2E93EE" d="M11 23.5s-.5 2.3.9 3c0 0 1.1 0 1.7-.4 0 0 1.4-2.1.3-3.3-1-1.1-3 .7-3 .7Z"/>
    <path fill="#2E578B" d="m11 23.6 2 1.1-.9-.1s-.4.9.1 1.4c0 0-.8-.1-.5-1.5l-.8-.8Z"/>
    <path fill="#2E93EE" d="M12.6 6s1-5.7 3.2-5.8c1.6 0 2.4 1.9 2.4 1.9a5 5 0 0 1 2.6.8s.4-.8 1.2-.5c.7.2 1.5 1.8 1.2 4.5.7.1 1.3.5 1.7 1.2l-.8.5c-.5 0-2.6-.7-3.2-.2-.5.4-.8 1-.7 1.8 0 0-2.3-.3-3.3-1.6s-2-3.9-4.3-2.7Z"/>
    <path fill="#F1F1F2" fill-rule="nonzero" d="M20.5 6.3S21 4.4 22.2 4c0 1 .1 1.8.3 2.7a17 17 0 0 0-2-.3Zm-5-3.8S17 3 18 6c-1-.2-2.2-.3-3.2-.3.5-1 .8-2.2.8-3.3Z"/>
    <path fill="#2E578B" d="M16 3.8c.4 0 .7.3.7.8s-.3.9-.6.9c-.4 0-.6-.4-.6-.9 0-.4.2-.8.6-.8M21.4 6c.3 0 .5-.2.5-.6 0-.4-.2-.7-.5-.7h-.2l-.3.7c0 .4.2.7.5.7Z"/>
    <path fill="#FF9144" d="M15.6 7.3S14 6 13.1 7c-1 1.2 0 3 0 3s.1-.8.5-1c0 0 .1 2.4 4 5.1 4 2.7 5.8 2.4 6.6 2.2.9-.2 1.8-.9 1.4-1.6a17 17 0 0 0-2.5-2.5s-.9 0-2.6-.5c-1.7-.6-4-1.8-5.5-3.9l.6-.4"/>
    <path fill="#FF6B17" d="M14.7 10.5c2.2-.5 4.5 0 6.1 1.7l-.4-.3s2 0 2.3.2c1.2.8 2 2.1 2.1 3.6 0 .7-1.6 1-5.2-.7-2.3-1.2-5-4.5-5-4.5Z"/>
    <path fill="#FF9144" d="M19 11h.2-.1Z"/>
    <path fill="#EBEEF2" d="M23 12s-.6 2-1.3 1.8c-.3 0-.2-.6-.3-1l-.4-1.1 2 .4Zm3.7-.7s-.2 2-1 2c-.2 0-.2-.6-.4-1l-.6-1h2Z"/>
    <path fill="#FFCF00" d="M27.5 9.5c0-1.5-2-2.1-3.4-1.1-1.2-.3-2.5-1-3.6.1-.5.4-.6 1-.4 1.6 0 0-2.4-.4-3.2-1.6-.8-1.2-1.9-2.8-3-3-.7 0-1.7-.1-2.3 1-.6 1.2-.9 3.4 3.6 6.7 4.4 3.4 6.4 4.3 7.4 4.3 1.2 0 1.3-.4 2.7-.6.7-.1 1.3-1.4.5-2.5a9.2 9.2 0 0 0-2.4-2s1.7 1.4 2 2c.4.8-.6 1.2-1.4 1.4-.9.2-2 .5-6-2.2-3.9-2.7-4.3-5.4-4.3-5.4-.5-.1-.6 1-.6 1s-.6-1.3.2-2c1-1 2 .2 2 .2h-.1c-.6-.3-.7.2-.7.2 1.5 2 3.6 3.6 6 4.5 1.7.6 2.6 0 2.6 0l2.4-.2c.6-.2 2.1-.5 2-2.4Z"/>
    <path fill="#ECA93F" d="M21.8 9.3c.4-.1.7.4.2.7-.1.2 0 .4.3.5-.3.1-.7 0-.8-.3-.2-.4 0-.7.3-.9m4.5-.2c-.3 0-.6.4-.1.6 0 .1 0 .3-.3.4.8.2.8-.8.4-1"/>
  </g>
</svg>