<?xml version="1.0" encoding="UTF-8"?>
<svg width="219px" height="39px" viewBox="0 0 219 39" version="1.1" xmlns="http://www.w3.org/2000/svg" xmlns:xlink="http://www.w3.org/1999/xlink" role="img" aria-label="HostGator Logo">
    <title>HostGator Logo</title>
    <g id="Symbols" stroke="none" stroke-width="1" fill="none" fill-rule="evenodd">
        <g id="Organisms-&amp;-Components/Navigation/FOS/.o-nav__fos-xl--lightbg" transform="translate(-20.000000, -31.000000)">
            <g id=".o-nav__fos-xl--lightbg">
                <g id="Atoms/Logos/Default/.a-logo__default--blue-80" transform="translate(20.000000, 31.000000)">
                    <g id=".a-logo__default--blue-80">
                        <path d="M88.4000204,26.1972414 C88.6681837,27.8693103 90.1877755,28.4924138 91.8459184,28.4924138 C93.5040612,28.4924138 94.7733673,27.7886207 94.8091224,26.9368966 C94.8672245,25.6458621 93.8571429,24.8793103 92.4269388,24.6013793 C91.4392041,24.4131034 88.476,23.8258621 88.476,23.8258621 C84.8736735,23.1668966 82.8222245,22.1224138 82.8222245,19.0517241 C82.8222245,15.0531034 86.2681224,12.4486207 91.1889184,12.4486207 C96.0292653,12.4486207 99.2338163,14.6631034 100.015959,18.0431034 L94.3621837,19.1682759 C94.17,17.9624138 93.0213673,16.8775862 91.1084694,16.8775862 C89.4458571,16.8775862 88.6100816,17.5768966 88.4581224,18.3927586 C88.3553265,18.9262069 88.6100816,19.37 90.3754898,19.7375862 C91.5151837,19.9841379 94.9432041,20.67 94.9432041,20.67 C98.6215102,21.4455172 100.306469,23.66 100.306469,26.5334483 C100.306469,30.8458621 96.5879388,33.1006897 91.4749592,33.1006897 C86.9072449,33.1006897 82.9831224,31.4286207 82.3350612,27.43 L88.4000204,26.1972414 Z" id="Path" fill="#1F2044" fill-rule="nonzero"></path>
                        <path d="M144.884143,17.3303448 C144.98552,18.119765 145.037764,18.9147531 145.040571,19.7106897 C145.040571,27.6317241 139.400204,33.3293103 131.54302,33.3293103 C123.685837,33.3293103 117.500204,27.3448276 117.500204,19.6703448 C117.500204,11.9958621 123.605388,6.01586207 131.426816,6.01586207 C137.23702,6.01586207 142.318714,8.74586207 144.146694,13.8606897 L137.961061,15.6537931 C136.441469,12.6862069 133.938612,11.9062069 131.426816,11.9062069 C127.185367,11.9062069 123.958469,15.2637931 123.958469,19.6703448 C123.958469,24.0768966 127.261347,27.4748276 131.619,27.4748276 C135.042551,27.4748276 137.532,25.6817241 138.506327,22.7948276 L130.528469,22.7948276 L130.528469,17.3303448 L144.884143,17.3303448 Z" id="Path" fill="#1F2044" fill-rule="nonzero"></path>
                        <polygon id="Path" fill="#1F2044" fill-rule="nonzero" points="58.8707755 32.2982759 52.4929592 32.2982759 52.4929592 21.9655172 41.5206122 21.9655172 41.5206122 32.2982759 35.1025714 32.2982759 35.1025714 6.15482759 41.5206122 6.15482759 41.5206122 16.3396552 52.4929592 16.3396552 52.4929592 6.15482759 58.8707755 6.15482759"></polygon>
                        <path d="M81.9775102,22.5034483 C81.9775102,28.7075862 77.0611837,32.8451724 71.2777959,32.8451724 C65.3647959,32.8451724 60.4618776,28.7075862 60.4618776,22.5034483 C60.4618776,16.2993103 65.3782041,12.1931034 71.2777959,12.1931034 C77.0745918,12.2065517 81.9775102,16.3396552 81.9775102,22.5034483 Z M75.9795918,22.5034483 C75.9795918,19.4596552 73.6867959,17.4334483 71.2733265,17.4334483 C69.9586351,17.4482719 68.7056238,17.9949678 67.7985046,18.9495329 C66.8913854,19.9040979 66.4070391,21.1856301 66.4553265,22.5034483 C66.4553265,25.5875862 68.7481224,27.577931 71.2777959,27.577931 C73.6912653,27.577931 75.9795918,25.5875862 75.9795918,22.5034483 Z" id="Shape" fill="#1F2044" fill-rule="nonzero"></path>
                        <path d="M117.701327,31.442069 C116.083261,32.3855012 114.245419,32.8834505 112.373816,32.8855172 C107.511122,32.8855172 104.583673,30.2317241 104.583673,25.1034483 L104.583673,17.6665517 L101.052857,17.6665517 L101.052857,12.7355172 L104.583673,12.7355172 L104.583673,7.49965517 L110.809531,6.15482759 L110.809531,12.7131034 L116.566102,12.7131034 L116.566102,17.6441379 L110.840816,17.6441379 L110.840816,24.457931 C110.840816,26.4841379 111.810673,27.3044828 113.446469,27.3044828 C114.440126,27.2695972 115.411939,27.0025084 116.284531,26.5244828 L117.701327,31.442069 Z" id="Path" fill="#1F2044" fill-rule="nonzero"></path>
                        <path d="M164.728224,19.89 L164.728224,32.2982759 L158.739245,32.2982759 L158.739245,30.8548276 C157.109644,32.2302174 155.030944,32.9533937 152.902224,32.8855172 C148.549041,32.8855172 145.630531,30.3482759 145.630531,26.4841379 C145.630531,22.62 148.549041,20.1724138 153.746939,20.1724138 L158.725837,20.1724138 L158.725837,19.7824138 C158.766447,19.0410882 158.490233,18.3175212 157.966385,17.7929622 C157.442538,17.2684033 156.72068,16.992543 155.981633,17.0344828 C154.113429,17.0344828 153.022898,17.7741379 152.71451,19.4910345 L146.841735,18.2806897 C147.695388,14.4972414 151.118939,12.1168966 155.78051,12.1168966 C161.268918,12.1258621 164.728224,14.8962069 164.728224,19.89 Z M158.739245,24.5744828 L158.739245,24.1262069 L154.457571,24.1262069 C152.902224,24.1262069 151.932367,24.9465517 151.932367,26.1568966 C151.932367,27.3672414 153.018429,28.1831034 154.654224,28.1831034 C156.795061,28.2010345 158.739245,26.7575862 158.739245,24.5744828 L158.739245,24.5744828 Z" id="Shape" fill="#1F2044" fill-rule="nonzero"></path>
                        <path d="M182.310796,31.442069 C180.693713,32.3839509 178.857728,32.8818147 176.987755,32.8855172 C172.125061,32.8855172 169.21102,30.2317241 169.21102,25.0810345 L169.21102,17.6665517 L165.671265,17.6665517 L165.671265,12.7355172 L169.21102,12.7355172 L169.21102,7.49965517 L175.432408,6.15482759 L175.432408,12.7131034 L181.18898,12.7131034 L181.18898,17.6441379 L175.423469,17.6441379 L175.423469,24.457931 C175.423469,26.4841379 176.397796,27.3044828 178.029122,27.3044828 C179.024276,27.2701261 179.99766,27.0030262 180.871653,26.5244828 L182.310796,31.442069 Z" id="Path" fill="#1F2044" fill-rule="nonzero"></path>
                        <path d="M202.847633,22.5034483 C202.847633,28.7075862 197.931306,32.8451724 192.152388,32.8451724 C186.239388,32.8451724 181.336469,28.7075862 181.336469,22.5034483 C181.336469,16.2993103 186.252796,12.1931034 192.152388,12.1931034 C197.949184,12.2065517 202.847633,16.3396552 202.847633,22.5034483 Z M196.858653,22.5034483 C196.858653,19.4596552 194.561388,17.4334483 192.152388,17.4334483 C190.836137,17.4458699 189.580806,17.9915142 188.671746,18.9463495 C187.762687,19.9011848 187.27713,21.1840913 187.325449,22.5034483 C187.325449,25.5875862 189.622714,27.577931 192.152388,27.577931 C194.561388,27.577931 196.858653,25.5875862 196.858653,22.5034483 L196.858653,22.5034483 Z" id="Shape" fill="#1F2044" fill-rule="nonzero"></path>
                        <path d="M218.758653,12.5965517 L218.48602,18.8275862 L217.355265,18.8275862 C213.002082,18.8275862 210.628837,21.0689655 210.628837,26.1658621 L210.628837,32.2982759 L204.40298,32.2982759 L204.40298,14.057931 L210.628837,12.7131034 L210.628837,16.4562069 C212.027755,14.1162069 214.168592,12.4217241 217.355265,12.4217241 C217.828818,12.4156038 218.300982,12.4744239 218.758653,12.5965517 L218.758653,12.5965517 Z" id="Path" fill="#1F2044" fill-rule="nonzero"></path>
                        <g id="Snappy-Default">
                            <g id="Back_Leg" transform="translate(17.877551, 28.241379)">
                                <path d="M3.27606122,0.179310345 C2.18553061,1.23724138 1.09946939,2.68965517 0,3.73862069 C0.522918367,6.49551724 -0.500571429,7.70586207 0.732979592,8.69655172 C1.17991837,9.05068966 3.86155102,9.80827586 5.4034898,8.92965517 C5.43477551,7.49965517 4.65710204,7.0737931 3.82579592,6.54034483 C2.98108163,4.74724138 3.285,1.96793103 3.26712245,0.179310345" id="Path" fill="#2E93EE"></path>
                                <path d="M3.90177551,9.33310345 C3.72264094,8.51405705 3.14489431,7.84024886 2.36430612,7.54 C2.98357375,7.91965941 3.34951669,8.60571121 3.3207551,9.33310345 C3.51740816,9.34206897 3.70959184,9.34206897 3.90177551,9.33310345 Z" id="Path" fill="#2E578B"></path>
                                <path d="M5.20236735,9.03724138 C5.0280029,8.2187201 4.45291091,7.54408563 3.67383673,7.24413793 C4.46938776,7.85827586 4.72414286,8.51724138 4.61240816,9.23448276 C4.81487403,9.18772588 5.01242421,9.12167882 5.20236735,9.03724138 L5.20236735,9.03724138 Z" id="Path" fill="#2E578B"></path>
                            </g>
                            <g id="Back_Arm" transform="translate(19.218367, 13.448276)">
                                <path d="M0.661469388,0.699310345 C0.0983265306,1.51965517 -0.151959184,3.24103448 4.32636735,5.76482759 C4.32636735,5.76482759 2.4447551,9.0237931 1.85032653,9.62 C1.25589796,10.2162069 0.893877551,11.8031034 1.47489796,12.6010345 C1.77564912,13.0206942 2.12025943,13.4069107 2.50285714,13.7531034 C2.50285714,13.7531034 3.98669388,14.0310345 4.62134694,13.6724138 C5.40642116,12.8017657 5.5834614,11.5392438 5.06828571,10.4851724 C5.06828571,10.4851724 8.84491837,6.52241379 8.60357143,5.33 C8.36222449,4.13758621 2.4447551,-1.90068966 0.661469388,0.699310345 Z" id="Path" fill="#2E93EE"></path>
                                <path d="M5.04593878,10.4851724 C5.04593878,10.4851724 3.51740816,11.7493103 3.13304082,11.9644828 C3.44445343,11.869956 3.74429285,11.7406393 4.02691837,11.5789655 C4.02691837,11.5789655 4.70626531,12.4127586 4.21016327,13.1165517 C4.21016327,13.1165517 5.10404082,12.592069 4.50961224,11.3862069 C4.71558864,11.125833 4.90373405,10.8517567 5.0727551,10.5658621 L5.04593878,10.4851724 Z" id="Path" fill="#2E578B"></path>
                            </g>
                            <g id="Body" transform="translate(0.000000, 4.482759)">
                                <g id="Tail_Spines" transform="translate(2.234694, 16.586207)" fill="#2E93EE">
                                    <path d="M6.28842857,2.12931034 C6.27755977,2.42263364 6.18800599,2.70758523 6.02920408,2.95413793 C5.76997959,3.36206897 5.6224898,3.31724138 6.26608163,3.66689655 C6.74533378,3.91035238 7.26209085,4.07099601 7.79461224,4.14206897 C8.6884898,4.29 8.48736735,4.19137931 8.08959184,3.33965517 C7.91471633,2.95615556 7.70684814,2.58867308 7.46834694,2.24137931 C6.57446939,1.00862069 6.32418367,1.0937931 6.28842857,2.12034483" id="Path"></path>
                                    <path d="M3.07940816,1.70344828 C2.74867347,2.31758621 3.25371429,2.4162069 3.90177551,2.64482759 C4.1446689,2.72960351 4.39670414,2.78527733 4.65263265,2.81068966 C5.38114286,2.89137931 5.19342857,2.7837931 4.87163265,2.19206897 C4.67782675,1.82715484 4.46293,1.4739093 4.22804082,1.13413793 C2.94532653,-0.712758621 3.55763265,0.806896552 3.07940816,1.70344828" id="Path"></path>
                                    <path d="M0.308387755,1.43 C0.319247415,1.57024861 0.319247415,1.7111307 0.308387755,1.85137931 C0.263693878,2.36241379 0.205591837,2.27724138 0.83577551,2.33551724 C1.11645888,2.36723795 1.39980643,2.36723795 1.6804898,2.33551724 C2.48497959,2.21448276 2.19,1.93206897 1.76987755,1.46137931 C1.62634735,1.29736127 1.46772795,1.14727265 1.29612245,1.01310345 C-0.294979592,-0.215172414 0.303918367,0.65 0.326265306,1.43448276" id="Path"></path>
                                </g>
                                <path d="M13.2025714,0 C13.2025714,0 8.63932653,2.35793103 8.67955102,3.10655172 C8.71977551,3.85517241 9.96673469,3.75206897 10.4673061,4.7562069 C10.4673061,4.7562069 7.67393878,6.69275862 7.85271429,7.58034483 C8.0314898,8.46793103 9.83265306,8.14517241 10.2795918,8.84896552 C10.2795918,8.84896552 9.83265306,10.6151724 10.2393673,11.2606897 C10.6460816,11.9062069 10.5835102,11.3503448 11.1332449,12.1572779 C11.1734694,12.1751724 10.8516735,5.58551724 13.2025714,0 Z" id="Path" fill="#2E93EE"></path>
                                <path d="M12.2461224,2.14275862 C13.855102,3.67586207 15.8842041,4.63965517 17.7345306,5.82758621 C19.0081637,6.59129257 20.1307984,7.58356459 21.0463469,8.75482759 C22.1547551,10.2431034 21.4932857,11.9958621 21.7703878,13.8203448 C21.8553061,14.4389655 21.8955306,15.0665517 21.9223469,15.6941379 C21.9700532,16.8351518 21.9371956,17.9781215 21.8240204,19.1144828 C21.542449,21.8310345 21.403898,24.0455172 19.491,26.0806897 C17.1043469,28.6268966 14.4763469,29.2186207 11.4952653,27.0041379 C10.4445755,26.3153999 9.48756407,25.4926504 8.64826531,24.5565517 C8.03595918,23.8393103 7.27616327,23.382069 6.61916327,22.7141379 C5.78488777,21.8271222 4.78986612,21.1075288 3.6872449,20.5937931 C2.53414286,20.1455172 1.73859184,20.7551724 1.17097959,21.0151724 C0.880469388,21.1496552 0.47822449,21.4096552 0.151959184,21.1496552 C0.0262653779,21.0551851 -0.0197075748,20.8873429 0.0402244898,20.7417241 C0.210322107,20.3331971 0.468233659,19.9673671 0.79555102,19.6703448 C2.55202041,18.0565517 5.39008163,18.0206897 7.49963265,19.1548276 C8.29965306,19.6031034 9.17118367,20.0737931 10.0963469,20.132069 C10.7488928,20.2082321 11.4048675,20.0211715 11.9198571,19.612069 C12.3193459,19.2440589 12.5824913,18.7509632 12.6662449,18.2134483 C12.8153115,17.465762 12.7612841,16.6916339 12.5098163,15.972069 C12.1656735,14.932069 11.548898,13.9906897 11.1466531,12.9641379 C9.80583673,9.47206897 9.35889796,5.49137931 11.5354898,2.22793103 L11.8394082,1.77965517 L12.2461224,2.14275862 Z" id="Path" fill="#2E93EE"></path>
                                <path d="M4.06267347,20.7462069 C5.60014286,21.5172414 7.23593878,23.2431034 8.80469388,25.1034483 C10.8561429,27.5465517 15.9557143,31.1462069 20.206102,25.4889655 C24.1883265,20.1634483 22.3156531,12.6996552 22.0832449,11.8524138 L22.0564286,11.7627586 C21.9223469,11.5924138 18.3736531,7.04689655 15.1199388,6.38344828 C14.2528776,7.13655172 14.0830408,8.46793103 15.2361429,10.7631034 C17.1803265,14.6227586 18.7356735,20.2486207 15.2808367,23.7048276 C14.7664217,24.2324943 14.1357149,24.6317039 13.439449,24.8703448 C10.9857551,25.6817241 9.68516327,24.1889655 8.14769388,22.7455172 C7.02863444,21.6660697 5.59963193,20.9666804 4.06267347,20.7462069 L4.06267347,20.7462069 Z" id="Path" fill="#FFCF00"></path>
                                <path d="M20.6843265,24.8075862 C19.1883328,24.6373409 17.7683927,24.0555647 16.5814286,23.1265517 C17.4293285,24.3668029 18.7326924,25.219506 20.206102,25.497931 C20.3759388,25.2737931 20.5591837,25.0406897 20.6843265,24.8075862 Z" id="Path" fill="#ECA93F"></path>
                                <path d="M13.7746531,25.1527586 C14.3583228,26.3938197 15.2030279,27.4933864 16.2506939,28.3758621 C16.5853643,28.2970227 16.9116561,28.1859318 17.2250204,28.0441379 C15.819743,27.4362335 14.620976,26.4316767 13.7746531,25.1527586 L13.7746531,25.1527586 Z" id="Path" fill="#ECA93F"></path>
                                <path d="M8.55440816,24.8165517 L8.80469388,25.1124138 L8.92089796,25.2513793 C8.84122478,24.8871068 8.88039601,24.5067949 9.03263265,24.1665517 C8.85834678,24.3717996 8.69855063,24.5889936 8.55440816,24.8165517 L8.55440816,24.8165517 Z" id="Path" fill="#ECA93F"></path>
                                <path d="M10.2795918,26.5424138 C10.4583673,26.6858621 10.6416122,26.8293103 10.8337959,26.9906897 C10.7041837,26.372069 10.6460816,25.7265517 10.8561429,25.367931 C10.62124,25.7368317 10.4278733,26.130736 10.2795918,26.5424138 Z" id="Path" fill="#ECA93F"></path>
                                <path d="M6.90967347,23.027931 L7.30744898,23.4358621 C7.30088365,23.147811 7.33092123,22.860094 7.39683673,22.5796552 C7.22328706,22.716399 7.06042391,22.8662617 6.90967347,23.027931 Z" id="Path" fill="#FF9144"></path>
                                <path d="M17.680898,20.1724138 C19.2358941,19.7018571 20.8947385,19.7018571 22.4497347,20.1724138 C22.4899592,19.9482759 22.5257143,19.7241379 22.557,19.5089655 C19.432898,18.7648276 17.680898,20.1724138 17.680898,20.1724138 Z" id="Path" fill="#ECA93F"></path>
                                <path d="M22.6508571,15.2682759 C22.6285102,14.9993103 22.6016939,14.7437931 22.5748776,14.4972414 L22.5748776,14.4972414 C19.2630612,14.4165517 17.5557551,16.0303448 17.5557551,16.0303448 C19.1262562,15.2271893 20.9150572,14.9596402 22.6508571,15.2682759 Z" id="Path" fill="#ECA93F"></path>
                                <path d="M21.3457959,10.92 C21.2161837,10.772069 21.0731633,10.6106897 20.8988571,10.4403448 C17.381449,10.4403448 16.4294694,12.0810345 16.4294694,12.0810345 C17.8938097,11.1561748 19.6238726,10.7476049 21.3457959,10.92 Z" id="Path" fill="#ECA93F"></path>
                                <path d="M22.6061633,14.7617241 C22.5195467,13.9647735 22.3897425,13.1731426 22.2173265,12.3903448 L21.9625714,12.2334483 C20.8407551,11.4982759 15.8976122,8.51724138 14.4495306,7.62068966 C14.4244633,7.84112448 14.4244633,8.06370311 14.4495306,8.28413793 C15.9691224,10.417931 19.3792653,14.0310345 22.6061633,14.7617241 Z" id="Path" fill="#ECA93F"></path>
                            </g>
                            <g id="Front_Leg" transform="translate(8.491837, 26.448276)">
                                <path d="M2.90510204,1.42103448 C3.35928465,0.751227171 4.13845284,0.379329528 4.94314286,0.448275862 C7.20465306,0.744137931 6.48955102,3.42931034 5.9487551,5.00724138 C5.5730813,6.14167214 5.35647732,7.32297979 5.30516327,8.51724138 C5.30516327,10.0772414 5.89959184,10.547931 5.17555102,11.1575862 C4.02300289,11.9674153 2.62856016,12.3566225 1.22461224,12.2603448 C-0.0312857143,11.9734483 -0.0625714286,9.38241379 1.93971429,8.72344828 C2.49391837,7.51310345 2.47157143,6.27586207 2.42687755,4.98482759 C2.39559184,4.08827586 2.31961224,2.29517241 2.90510204,1.39862069" id="Path" fill="#2E93EE"></path>
                                <path d="M2.41793878,12.2468966 C2.59671429,12.22 2.7754898,12.1886207 2.94979592,12.1482759 C2.79263642,11.3865262 3.02774481,10.5965568 3.5755102,10.0458621 C2.75314286,10.5165517 2.48497959,11.3189655 2.41793878,12.2468966 Z" id="Path" fill="#2E578B"></path>
                                <path d="M1.20673469,12.2648276 C1.0199755,11.4328776 1.24462077,10.5616506 1.81010204,9.92482759 C1.1148415,10.356126 0.686858961,11.1132512 0.674877551,11.9331034 C0.812437303,12.0976435 0.998762864,12.2138565 1.20673469,12.2648276 L1.20673469,12.2648276 Z" id="Path" fill="#2E578B"></path>
                            </g>
                            <g id="Front_Arm" transform="translate(6.257143, 12.551724)">
                                <path d="M4.60346939,12.0362069 C4.60346939,12.0362069 4.3442449,13.537931 5.36326531,14.04 C6.22138776,14.4882759 7.27616327,14.4882759 7.80355102,13.8472414 C8.53206122,12.9506897 9.59130612,11.1575862 6.69067347,9.39586207 C4.90291837,8.30655172 4.79118367,12.0048276 4.79118367,12.0048276 L4.60346939,12.0362069 Z" id="Path" fill="#2E578B"></path>
                                <path d="M4.8537551,4.83689655 C5.23365306,5.6662069 5.57779592,6.30724138 5.59567347,6.36551724 C5.61355102,6.4237931 7.9555102,3.42931034 7.5175102,2.94517241 C7.0795102,2.46103448 5.22471429,4.18689655 4.8537551,4.83689655 Z" id="Path" fill="#2E578B"></path>
                                <path d="M7.15102041,0.542413793 C9.68516327,2.99448276 4.42469388,6.24 4.42469388,6.24 C4.99677551,6.60310345 5.72081633,7.84482759 6.26161224,8.75034483 C6.80240816,9.65586207 7.01693878,9.50793103 7.67840816,10.2610345 C8.33987755,11.0141379 6.45379592,12.1393103 6.45379592,12.1393103 C6.45379592,12.1393103 0.125142857,8.71 0.142982603,6.51344828 C0.142982603,6.24 1.61344898,3.79689655 3.09728571,2.28172414 C3.84367347,1.51965517 5.93981633,-0.627586207 7.15102041,0.542413793 Z" id="Path" fill="#2E93EE"></path>
                                <path d="M4.69285714,10.92 C4.69285714,10.92 4.24591837,13.2555172 5.61355102,13.9368966 C5.61355102,13.9368966 6.74430612,14.0086207 7.31638776,13.5962069 C7.31638776,13.5962069 8.74212245,11.3996552 7.67840816,10.2610345 C6.61469388,9.12241379 4.69285714,10.92 4.69285714,10.92 Z" id="Path" fill="#2E93EE"></path>
                                <path d="M4.66604082,11.0858621 C4.66604082,11.0858621 6.49402041,12.0675862 6.81134694,12.1572414 C6.4931383,12.201168 6.16904118,12.1529524 5.8772449,12.0182759 C5.8772449,12.0182759 5.43030612,12.9148276 5.95322449,13.4706897 C5.95322449,13.4706897 5.11297959,13.3227586 5.41242857,11.9151724 L4.64816327,11.1262069 L4.66604082,11.0858621 Z" id="Path" fill="#2E578B"></path>
                            </g>
                            <g id="Head-2" transform="translate(11.173469, 0.000000)">
                                <path d="M1.38997959,5.92172414 C1.38997959,5.92172414 2.34195918,0.29137931 4.6705102,0.197241379 C6.2035102,0.13 6.97671429,2.08896552 6.97671429,2.08896552 C7.91569548,2.09312799 8.8338491,2.3669092 9.62259184,2.87793103 C9.62259184,2.87793103 10.0695306,2.10241379 10.7801633,2.35344828 C11.4907959,2.60448276 12.2997551,4.2362069 12.0092449,6.91689655 C12.7124137,7.02521625 13.3278826,7.44941066 13.6807959,8.06896552 C13.4924794,8.34004574 13.2048697,8.52537567 12.8807755,8.58448276 C12.3980816,8.62482759 10.3153469,7.86275862 9.75220408,8.36034483 C9.17861063,8.76297443 8.88794282,9.46126757 9.00581633,10.1534483 C9.00581633,10.1534483 6.70408163,9.92034483 5.68059184,8.60689655 C4.65710204,7.29344828 3.77663265,4.74724138 1.38997959,5.92172414 Z" id="Path" fill="#2E93EE"></path>
                                <path d="M9.31420408,6.32965517 C9.31420408,6.32965517 9.88628571,4.43793103 10.9857551,3.90896552 C11.0247869,4.82464313 11.1248264,5.73667789 11.2852041,6.63896552 C10.6347767,6.49741738 9.97665343,6.39413766 9.31420408,6.32965517 L9.31420408,6.32965517 Z" id="Path" fill="#F1F1F2" fill-rule="nonzero"></path>
                                <path d="M4.33530612,2.45206897 C4.33530612,2.45206897 5.75210204,3.13793103 6.70408163,6.08310345 C5.64371191,5.90206919 4.57063744,5.80613295 3.49506122,5.7962069 C4.02227318,4.75903993 4.30948019,3.6159686 4.33530612,2.45206897 Z" id="Path" fill="#F1F1F2" fill-rule="nonzero"></path>
                                <path d="M4.91632653,3.76103448 C5.26046939,3.76103448 5.54204082,4.14655172 5.54204082,4.6262069 C5.54204082,5.10586207 5.26046939,5.48689655 4.91632653,5.48689655 C4.57218367,5.48689655 4.29061224,5.10137931 4.29061224,4.6262069 C4.29061224,4.15103448 4.56771429,3.76103448 4.91632653,3.76103448" id="Path" fill="#2E578B"></path>
                                <path d="M10.2080816,6.0562069 C10.4807143,6.0562069 10.6997143,5.76482759 10.6997143,5.40172414 C10.6997143,5.03862069 10.4807143,4.74724138 10.2080816,4.74724138 C10.1557232,4.75016149 10.1042857,4.76230064 10.0561224,4.78310345 C9.90592196,4.95746999 9.791958,5.16017068 9.72091837,5.37931034 C9.71871552,5.3941712 9.71871552,5.40927708 9.72091837,5.42413793 C9.71644898,5.76482759 9.93544898,6.0562069 10.2080816,6.0562069 Z" id="Path" fill="#2E578B"></path>
                                <path d="M4.46938776,7.32482759 C4.46938776,7.32482759 2.77102041,5.98 1.90842857,6.93931034 C0.880469388,8.09586207 1.90842857,9.89344828 1.90842857,9.89344828 C1.90842857,9.89344828 2.03357143,9.12241379 2.41793878,8.86689655 C2.41793878,8.86689655 2.56989796,11.3010345 6.52083673,14.0086207 C10.4717755,16.7162069 12.1924898,16.4203448 13.0550816,16.1917241 C13.9176735,15.9631034 14.7936735,15.3444828 14.4629388,14.6496552 C14.1322041,13.9548276 11.9019796,12.0675862 11.9019796,12.0675862 C11.9019796,12.0675862 11.0572653,12.1706897 9.33655102,11.5655172 C7.61583673,10.9603448 5.31410204,9.77241379 3.83026531,7.71034483 C4.04979908,7.59299226 4.26312563,7.46431415 4.46938776,7.32482759" id="Path" fill="#FF9144"></path>
                                <path d="M3.47718367,10.4896552 C5.68975729,9.95730475 8.02051434,10.5868883 9.66728571,12.1617241 L9.22034694,11.9196552 C9.22034694,11.9196552 11.249449,11.8210345 11.5310204,12.1034483 C12.7350374,12.9195397 13.5070342,14.2375081 13.6316327,15.6896552 C13.6897347,16.3844828 12.0494694,16.7789655 8.3935102,14.9544828 C6.12306122,13.8068966 3.47718367,10.4896552 3.47718367,10.4896552 Z" id="Path" fill="#FF6B17"></path>
                                <path d="M7.9197551,10.9513793 L8.00467347,10.9962069 L7.9197551,10.9513793 Z" id="Path" fill="#FF9144"></path>
                                <path d="M11.7366122,12.0541379 C11.7366122,12.0541379 11.2449796,14.0758621 10.4851837,13.8472414 C10.2304286,13.7710345 10.3332245,13.1972414 10.2304286,12.8027586 C10.1276327,12.4082759 9.83265306,11.6551724 9.83265306,11.6551724 L11.7366122,12.0541379 Z" id="Path" fill="#EBEEF2"></path>
                                <path d="M15.4953673,11.2875862 C15.4953673,11.2875862 15.3389388,13.3631034 14.5523265,13.2644828 C14.2886327,13.2331034 14.2975714,12.6503448 14.1322041,12.2782759 C13.9668367,11.9062069 13.5601224,11.2068966 13.5601224,11.2068966 L15.4953673,11.2875862 Z" id="Path" fill="#EBEEF2"></path>
                                <path d="M16.3311429,9.46758621 C16.2328163,8.0062069 14.3109796,7.36517241 12.8986531,8.39172414 C11.745551,8.1362069 10.4673061,7.36517241 9.32314286,8.52172414 C8.85534729,8.91392846 8.71027503,9.57331132 8.97006122,10.1265517 C8.97006122,10.1265517 6.57446939,9.74103448 5.74763265,8.51724138 C4.92079592,7.29344828 3.83920408,5.65275862 2.68163265,5.5362069 C2.06485714,5.47793103 1.0234898,5.38827586 0.420122449,6.56724138 C-0.183244898,7.7462069 -0.473755102,9.87551724 3.99563265,13.2465517 C8.46502041,16.6175862 10.4226122,17.5275862 11.3969388,17.5231199 C12.6349592,17.5231199 12.7109388,17.0748276 14.1366735,16.8596552 C14.8651837,16.7565517 15.4193878,15.5148276 14.6193673,14.4389655 C13.950932,13.5955678 13.1401013,12.8763821 12.2237755,12.3141379 C12.1790816,12.3589655 13.957898,13.7889655 14.2886327,14.4837931 C14.6193673,15.1786207 13.6405714,15.617931 12.782449,15.8286207 C11.9243265,16.0393103 10.8203878,16.2768966 6.87391837,13.5872414 C2.92744898,10.8975862 2.50285714,8.17655172 2.50285714,8.17655172 C2.00228571,8.10034483 1.94418367,9.18965517 1.94418367,9.18965517 C1.94418367,9.18965517 1.36763265,7.93 2.14083673,7.17689655 C3.07493878,6.28034483 4.04032653,7.38758621 4.04032653,7.38758621 L3.98222449,7.38758621 C3.39673469,7.10517241 3.31628571,7.61172414 3.31628571,7.61172414 C4.87255606,9.62117142 6.92886147,11.184248 9.27844898,12.1437931 C10.9991633,12.7489655 11.9019796,12.0675862 11.9019796,12.0675862 C12.7191222,12.0617705 13.534739,11.9958465 14.3422653,11.8703448 C14.9590408,11.7044828 16.4696939,11.4444828 16.3311429,9.46758621 Z" id="Path" fill="#FFCF00"></path>
                                <path d="M10.6058571,9.31068966 C11.008102,9.18517241 11.3164898,9.72758621 10.789102,9.96068966 C10.7131224,10.1624138 10.8337959,10.382069 11.1555918,10.4582759 C10.8396399,10.610535 10.4604479,10.4770696 10.3086429,10.1601724 C10.1568378,9.84327523 10.2899052,9.46294885 10.6058571,9.31068966" id="Path" fill="#ECA93F"></path>
                                <path d="M15.1378163,9.14482759 C14.8070816,9.03724138 14.5523265,9.48551724 14.9903265,9.68275862 C15.0484286,9.84862069 14.950102,10.027931 14.6819388,10.0906897 C15.5311224,10.2655172 15.5758163,9.30172414 15.1288776,9.14482759" id="Path" fill="#ECA93F"></path>
                            </g>
                        </g>
                    </g>
                </g>
            </g>
        </g>
    </g>
</svg>