<svg xmlns="http://www.w3.org/2000/svg" viewBox="2.3 1.4 158 167.7">
  <clipPath id="a">
    <path d="M0 0h550v550H0z"/>
  </clipPath>
  <g clip-path="url(#a)" transform="translate(-252.1 -25.5)">
    <g display="block">
      <path fill="#2e93ee" d="M399.5 82.3S390.2 28 367.6 27c-14.8-.6-22.3 18.4-22.3 18.4s-12-.8-25.7 7.6c0 0-4.2-7.5-11.3-5.1-7 2.4-14.7 18.2-11.9 44.1 0 0-10.3 1-16.2 11.1 0 0 3 4.6 7.8 5 4.7.4 24.9-7 30.4-2.2 5.4 4.9 7.9 8.5 7.2 17.3 0 0 22.2-2.1 32.2-14.8 10-12.7 18.5-37.4 41.7-26"/>
      <path fill="#f1f1f2" d="M322.6 86.2S317 68 306.3 63c0 0-.5 14.7-2.8 26.4 0 0 7.7-1.9 19-3m48.4-37.6s-13.8 6.6-22.8 35c0 0 21.6-3.5 31.1-2.7 0 0-8.8-16.2-8.3-32.3"/>
      <path fill="#24578f" d="M360 64.5c-3.3 0-6 3.8-6 8.4 0 4.6 2.7 8.3 6 8.3 3.4 0 6.2-3.7 6.2-8.3 0-4.6-2.8-8.4-6.1-8.4m-49.7 9.9c-2.6 0-4.6 3-4.6 6.4s2 6.4 4.6 6.4c2.5 0 4.6-2.8 4.6-6.4s-2.1-6.4-4.6-6.4z"/>
      <path fill="#f47924" d="M394.2 93.4c-8.7-9-21.4 3.4-21.4 3.4l2.3 3.5c5.7-2.7 4.2-1.3 4.2-1.3-14.3 20-39.3 38-56 43.8-16.6 5.8-25.4-.8-25.4-.8s-21.3 17.3-24.5 24c-3.2 6.7 6.7 14.2 15 16.4 8.4 2.2 21.4 3 59.7-23 38.3-26.2 42.4-51 42.4-51 4.8-.7 3.4 10.3 3.4 10.3s9.5-15.7.3-25.3z"/>
      <path fill="#e05406" d="M385.7 123s-39-6.3-66.6 19.6l4.3-2.3s-19.7-1-22.4 1.8c-2.7 2.7-20 11.7-22 34.8-.7 6.7 18.7 15.3 54.2-2.4 22-11 51.5-40.8 51.5-40.8l1-10.7z"/>
      <path fill="#ffffff" d="M299 141.6s4.8 19.5 12.2 17.4c2.5-.8 1.5-6.3 2.5-10.1s3.8-11.1 3.8-11.1l-18.4 3.8zm-36.4-7.4s1.5 20 9.1 19c2.6-.2 2.5-5.9 4.1-9.5 1.6-3.5 5.6-10.3 5.6-10.3l-18.8.8z"/>
      <path fill="#ffcf00" d="M254.5 116.6c1-14.1 19.6-20.4 33.3-10.4 11.2-2.5 23.6-10 34.8 1.2 7.9 8 3.4 15.6 3.4 15.6s23.2-3.8 31.3-15.6c8-11.9 18.4-27.7 29.8-28.8 6-.6 16-1.5 22 10 5.8 11.3 8.7 32-34.6 64.7-43.3 32.6-62.4 41.3-71.8 41.3-12 0-12.7-4.5-26.6-6.4-7-1-12.4-13.1-4.7-23.5 7.8-10.4 26-23 26-23s-19.5 16.8-22.7 23.5c-3.2 6.7 6.2 11 14.6 13.2 8.3 2.2 19 4.5 57.3-21.6 38.3-26.2 42.4-52.5 42.4-52.5 4.9-.7 5.4 9.8 5.4 9.8s5.6-12.2-1.9-19.5c-9-8.7-18.4 2.1-18.4 2.1h.6C380.3 94 381 99 381 99a139.9 139.9 0 0 1-58.2 43.5c-16.7 5.9-25.4-.7-25.4-.7s-17.7-.3-23.7-1.9c-6-1.6-20.7-4.1-19.3-23.2"/>
      <path fill="#eca93e" d="M310 115c-3.9-1.2-6.9 4-1.7 6.4.7 1.9-.5 4-3.6 4.8 10 2 10.3-9.3 5.3-11.1m-44-1.6c3.3-1 5.7 3.3 1.5 5.1-.6 1.6.4 3.4 3 4-8.3 1.7-8.6-7.6-4.4-9.1"/>
      <path fill="#2e93ee" d="M305.1 53.2v8.2s9 6.4 11 9c2.1 2.5 8 16.3 8 16.3l5.9-4.2-25-29.3zM369 35.5l3.1 11s-12.4 11-16 16.9c-1.6 2.8-9 20.6-9 20.6l-5.1-2.6 27-45.9z"/>
    </g>
  </g>
</svg>