<?xml version="1.0" encoding="UTF-8"?><svg version="1.1" xmlns="http://www.w3.org/2000/svg" xmlns:xlink="http://www.w3.org/1999/xlink" viewBox="0 0 550 550" width="550px" height="550px"><defs><clipPath id="__lottie_element_3"><rect width="550" height="550" x="0" y="0"></rect></clipPath></defs><g clip-path="url(#__lottie_element_3)"><g transform="matrix(1.0625,0,0,1,254.5802001953125,275)" opacity="1" style="display: block;"><g opacity="1" transform="matrix(1,0,0,1,0.7609999775886536,0.968999981880188)"><path fill="rgb(235,239,243)" fill-opacity="1" d=" M66.9520034790039,140.48300170898438 C181.82699584960938,140.48300170898438 250.48199462890625,155.25799560546875 250.48199462890625,173.48300170898438 C250.48199462890625,191.70799255371094 181.82699584960938,206.48300170898438 66.9520034790039,206.48300170898438 C-47.92300033569336,206.48300170898438 -161.75399780273438,191.4669952392578 -161.75399780273438,173.24200439453125 C-161.75399780273438,155.01699829101562 -47.92300033569336,140.48300170898438 66.9520034790039,140.48300170898438z"></path></g></g><g transform="matrix(1,-0.00000839670974528417,0.00000839670974528417,1,275.0002136230469,275.0006103515625)" opacity="1" style="display: block;"><g opacity="1" transform="matrix(1,0,0,1,0,0)"><path fill="rgb(46,147,238)" fill-opacity="1" d=" M30.33099937438965,-10.704000473022461 C30.33099937438965,-10.704000473022461 0.75,-38.5 -8.612000465393066,-44.94599914550781 C-15.324000358581543,-49.56800079345703 -19.81399917602539,-55.54800033569336 -28.525999069213867,-51.50600051879883 C-37.23699951171875,-47.4630012512207 -41.49800109863281,-44.047000885009766 -41.49800109863281,-44.047000885009766 C-41.49800109863281,-44.047000885009766 -47.124000549316406,-30.507999420166016 -45.02199935913086,-23.774999618530273 C-45.02199935913086,-23.774999618530273 -41.14500045776367,-19.118000030517578 -20.871999740600586,-23.059999465942383 C-20.871999740600586,-23.059999465942383 14.12399959564209,30.447999954223633 25.874000549316406,30.58799934387207 C37.62200164794922,30.726999282836914 106.62699890136719,-13.152000427246094 85.61799621582031,-35.29899978637695 C79.00900268554688,-42.26599884033203 63.21500015258789,-48.11600112915039 30.33099937438965,-10.704000473022461z"></path></g><g opacity="1" transform="matrix(0,0,0,0,24.645000457763672,8.97700023651123)"><g opacity="1" transform="matrix(1,0,0,1,0,0)"><path fill="rgb(46,147,238)" fill-opacity="1" d=" M404.5,-366.52801513671875 C404.5,-366.52801513671875 367.5,-366.52801513671875 367.5,-366.52801513671875 C367.5,-366.52801513671875 367.5,-551.3319702148438 367.5,-551.3319702148438 C367.5,-551.3319702148438 404.5,-578.697998046875 404.5,-578.697998046875 C404.5,-578.697998046875 404.5,-366.52801513671875 404.5,-366.52801513671875z"></path></g><g opacity="1" transform="matrix(1,0,0,1,0,0)"><g opacity="1" transform="matrix(1,0,0,1,0,0)"><path fill="rgb(255,145,68)" fill-opacity="1" d=" M367.5,-549.5280151367188 C367.5,-549.5280151367188 367.5,-631.791015625 367.5,-631.791015625 C367.5,-631.791015625 817.5,-631.5280151367188 817.5,-631.5280151367188 C817.5,-631.5280151367188 817.5,-559.5280151367188 817.5,-559.5280151367188 C817.5,-559.5280151367188 404.5,-575.5280151367188 404.5,-575.5280151367188 C404.5,-575.5280151367188 367.5,-549.5280151367188 367.5,-549.5280151367188z"></path></g></g><g opacity="1" transform="matrix(1,0,0,1,0,0)"><g opacity="1" transform="matrix(1,0,0,1,0,0)"><path fill="rgb(255,213,76)" fill-opacity="1" d=" M367.5,-368.52801513671875 C367.5,-368.52801513671875 367.5,-368.52801513671875 367.5,-368.52801513671875 C367.5,-368.52801513671875 367.5,-368.52801513671875 367.5,-368.52801513671875 C367.5,-368.52801513671875 522.5,-491.52801513671875 522.5,-491.52801513671875 C522.5,-491.52801513671875 591.27099609375,-406.7909851074219 591.27099609375,-406.7909851074219 C591.27099609375,-406.7909851074219 570.3319702148438,-340.3599853515625 570.3319702148438,-340.3599853515625 C570.3319702148438,-340.3599853515625 396.1650085449219,-340.3599853515625 396.1650085449219,-340.3599853515625 C380.5270080566406,-340.3599853515625 367.77301025390625,-352.8919982910156 367.5,-368.52801513671875z"></path></g></g><g opacity="1" transform="matrix(1,0,0,1,0,0)"><g opacity="1" transform="matrix(1,0,0,1,0,0)"><path fill="rgb(31,32,68)" fill-opacity="1" d=" M817.5,-606.4299926757812 C817.5,-606.4299926757812 817.5,-340.52801513671875 817.5,-340.52801513671875 C817.5,-340.52801513671875 505.5,-340.52801513671875 505.5,-340.52801513671875 C505.5,-340.52801513671875 817.5,-606.4299926757812 817.5,-606.4299926757812z"></path></g></g><g class="45 16-PM" opacity="1" transform="matrix(1,0,0,1,0,0)"><g opacity="1" transform="matrix(1,0,0,1,0,0)"><g opacity="1" transform="matrix(1,0,0,1,0,0)"><path fill="rgb(255,255,255)" fill-opacity="1" d=" M404.385009765625,-575.5280151367188 C404.385009765625,-575.5280151367188 780.614990234375,-575.5280151367188 780.614990234375,-575.5280151367188 C780.614990234375,-575.5280151367188 780.614990234375,-376.52801513671875 780.614990234375,-376.52801513671875 C780.614990234375,-376.52801513671875 624.4669799804688,-376.52801513671875 624.4669799804688,-376.52801513671875 C624.4669799804688,-376.52801513671875 404.385009765625,-376.52801513671875 404.385009765625,-376.52801513671875 C404.385009765625,-376.52801513671875 404.385009765625,-575.5280151367188 404.385009765625,-575.5280151367188z"></path></g></g><g opacity="1" transform="matrix(1,0,0,1,0,0)"><g opacity="1" transform="matrix(1,0,0,1,0,0)"><path fill="rgb(31,32,68)" fill-opacity="1" d=" M720.5,-532.0280151367188 C720.5,-532.0280151367188 701.5,-516.0280151367188 701.5,-516.0280151367188 C701.5,-516.0280151367188 701.5,-532.0280151367188 701.5,-532.0280151367188 C701.5,-532.0280151367188 720.5,-532.0280151367188 720.5,-532.0280151367188z"></path></g></g><g opacity="1" transform="matrix(1,0,0,1,0,0)"><g opacity="1" transform="matrix(1,0,0,1,0,0)"><path fill="rgb(255,213,76)" fill-opacity="1" d=" M685.5,-532.0280151367188 C685.5,-532.0280151367188 666.5,-516.0280151367188 666.5,-516.0280151367188 C666.5,-516.0280151367188 666.5,-532.0280151367188 666.5,-532.0280151367188 C666.5,-532.0280151367188 685.5,-532.0280151367188 685.5,-532.0280151367188z"></path></g></g><g opacity="1" transform="matrix(1,0,0,1,0,0)"><g opacity="1" transform="matrix(1,0,0,1,0,0)"><path fill="rgb(255,145,68)" fill-opacity="1" d=" M694.5,-532.5280151367188 C694.5,-532.5280151367188 675.5,-515.5280151367188 675.5,-515.5280151367188 C675.5,-515.5280151367188 694.5,-515.5280151367188 694.5,-515.5280151367188 C694.5,-515.5280151367188 694.5,-532.5280151367188 694.5,-532.5280151367188z"></path></g></g><g opacity="1" transform="matrix(1,0,0,1,0,0)"><g opacity="1" transform="matrix(1,0,0,1,0,0)"><path fill="rgb(60,151,255)" fill-opacity="1" d=" M729.5,-532.5280151367188 C729.5,-532.5280151367188 710.5,-515.5280151367188 710.5,-515.5280151367188 C710.5,-515.5280151367188 729.5,-515.5280151367188 729.5,-515.5280151367188 C729.5,-515.5280151367188 729.5,-532.5280151367188 729.5,-532.5280151367188z"></path></g></g><g opacity="1" transform="matrix(1,0,0,1,0,0)"><g opacity="1" transform="matrix(1,0,0,1,0,0)"><path fill="rgb(255,213,76)" fill-opacity="1" d=" M466.5,-446.52801513671875 C466.5,-446.52801513671875 522.5,-446.52801513671875 522.5,-446.52801513671875 C522.5,-446.52801513671875 522.5,-421.52801513671875 522.5,-421.52801513671875 C522.5,-421.52801513671875 491.5,-421.52801513671875 491.5,-421.52801513671875 C477.6929931640625,-421.52801513671875 466.5,-432.72100830078125 466.5,-446.52801513671875 C466.5,-446.52801513671875 466.5,-446.52801513671875 466.5,-446.52801513671875 C466.5,-446.52801513671875 466.5,-446.52801513671875 466.5,-446.52801513671875z"></path></g></g><g opacity="1" transform="matrix(1,0,0,1,0,0)"><g opacity="1" transform="matrix(1,0,0,1,0,0)"><path fill="rgb(255,213,76)" fill-opacity="1" d=" M546.5,-446.52801513671875 C546.5,-446.52801513671875 602.5,-446.52801513671875 602.5,-446.52801513671875 C602.5,-446.52801513671875 602.5,-421.52801513671875 602.5,-421.52801513671875 C602.5,-421.52801513671875 571.5,-421.52801513671875 571.5,-421.52801513671875 C557.6929931640625,-421.52801513671875 546.5,-432.72100830078125 546.5,-446.52801513671875 C546.5,-446.52801513671875 546.5,-446.52801513671875 546.5,-446.52801513671875 C546.5,-446.52801513671875 546.5,-446.52801513671875 546.5,-446.52801513671875z"></path></g></g><g opacity="1" transform="matrix(1,0,0,1,0,0)"><g opacity="1" transform="matrix(1,0,0,1,0,0)"><path fill="rgb(255,213,76)" fill-opacity="1" d=" M626.5,-446.52801513671875 C626.5,-446.52801513671875 682.5,-446.52801513671875 682.5,-446.52801513671875 C682.5,-446.52801513671875 682.5,-421.52801513671875 682.5,-421.52801513671875 C682.5,-421.52801513671875 651.5,-421.52801513671875 651.5,-421.52801513671875 C637.6929931640625,-421.52801513671875 626.5,-432.72100830078125 626.5,-446.52801513671875 C626.5,-446.52801513671875 626.5,-446.52801513671875 626.5,-446.52801513671875 C626.5,-446.52801513671875 626.5,-446.52801513671875 626.5,-446.52801513671875z"></path></g></g><g opacity="1" transform="matrix(1,0,0,1,0,0)"><g opacity="1" transform="matrix(1,0,0,1,0,0)"><path fill="rgb(255,213,76)" fill-opacity="1" d=" M705.5,-446.52801513671875 C705.5,-446.52801513671875 761.5,-446.52801513671875 761.5,-446.52801513671875 C761.5,-446.52801513671875 761.5,-421.52801513671875 761.5,-421.52801513671875 C761.5,-421.52801513671875 730.5,-421.52801513671875 730.5,-421.52801513671875 C716.6929931640625,-421.52801513671875 705.5,-432.72100830078125 705.5,-446.52801513671875 C705.5,-446.52801513671875 705.5,-446.52801513671875 705.5,-446.52801513671875 C705.5,-446.52801513671875 705.5,-446.52801513671875 705.5,-446.52801513671875z"></path></g></g><g opacity="1" transform="matrix(1,0,0,1,0,0)"><g opacity="1" transform="matrix(1,0,0,1,0,0)"><path fill="rgb(255,213,76)" fill-opacity="1" d=" M404.5,-575.5280151367188 C404.5,-575.5280151367188 446.5,-575.5280151367188 446.5,-575.5280151367188 C446.5,-575.5280151367188 446.5,-376.52801513671875 446.5,-376.52801513671875 C446.5,-376.52801513671875 404.5,-376.52801513671875 404.5,-376.52801513671875 C404.5,-376.52801513671875 404.5,-575.5280151367188 404.5,-575.5280151367188z"></path></g></g><g opacity="1" transform="matrix(1,0,0,1,0,0)"><g opacity="1" transform="matrix(1,0,0,1,0,0)"><g opacity="1" transform="matrix(1,0,0,1,0,0)"><path fill="rgb(60,151,255)" fill-opacity="1" d=" M466.5,-491.52801513671875 C466.5,-491.52801513671875 522.5,-491.52801513671875 522.5,-491.52801513671875 C522.5,-491.52801513671875 522.5,-446.52801513671875 522.5,-446.52801513671875 C522.5,-446.52801513671875 466.5,-446.52801513671875 466.5,-446.52801513671875 C466.5,-446.52801513671875 466.5,-491.52801513671875 466.5,-491.52801513671875z"></path></g></g><g opacity="1" transform="matrix(1,0,0,1,0,0)"><g opacity="1" transform="matrix(1,0,0,1,0,0)"><path fill="rgb(31,32,68)" fill-opacity="1" d=" M466.5,-491.52801513671875 C466.5,-491.52801513671875 522.5,-491.52801513671875 522.5,-491.52801513671875 C522.5,-491.52801513671875 466.5,-446.52801513671875 466.5,-446.52801513671875 C466.5,-446.52801513671875 466.5,-491.52801513671875 466.5,-491.52801513671875z"></path></g></g></g><g opacity="1" transform="matrix(1,0,0,1,0,0)"><g opacity="1" transform="matrix(1,0,0,1,0,0)"><g opacity="1" transform="matrix(1,0,0,1,0,0)"><path fill="rgb(31,32,68)" fill-opacity="1" d=" M466.5,-421.52801513671875 C466.5,-421.52801513671875 522.5,-421.52801513671875 522.5,-421.52801513671875 C522.5,-421.52801513671875 522.5,-376.52801513671875 522.5,-376.52801513671875 C522.5,-376.52801513671875 466.5,-376.52801513671875 466.5,-376.52801513671875 C466.5,-376.52801513671875 466.5,-421.52801513671875 466.5,-421.52801513671875z"></path></g></g><g opacity="1" transform="matrix(1,0,0,1,0,0)"><g opacity="1" transform="matrix(1,0,0,1,0,0)"><path fill="rgb(60,151,255)" fill-opacity="1" d=" M466.5,-421.52801513671875 C466.5,-421.52801513671875 522.5,-421.52801513671875 522.5,-421.52801513671875 C522.5,-421.52801513671875 466.5,-376.52801513671875 466.5,-376.52801513671875 C466.5,-376.52801513671875 466.5,-421.52801513671875 466.5,-421.52801513671875z"></path></g></g></g><g opacity="1" transform="matrix(1,0,0,1,0,0)"><g opacity="1" transform="matrix(1,0,0,1,0,0)"><g opacity="1" transform="matrix(1,0,0,1,0,0)"><path fill="rgb(31,32,68)" fill-opacity="1" d=" M546.5,-491.52801513671875 C546.5,-491.52801513671875 602.5,-491.52801513671875 602.5,-491.52801513671875 C602.5,-491.52801513671875 602.5,-446.52801513671875 602.5,-446.52801513671875 C602.5,-446.52801513671875 546.5,-446.52801513671875 546.5,-446.52801513671875 C546.5,-446.52801513671875 546.5,-491.52801513671875 546.5,-491.52801513671875z"></path></g></g><g opacity="1" transform="matrix(1,0,0,1,0,0)"><g opacity="1" transform="matrix(1,0,0,1,0,0)"><path fill="rgb(60,151,255)" fill-opacity="1" d=" M546.5,-491.52801513671875 C546.5,-491.52801513671875 602.5,-491.52801513671875 602.5,-491.52801513671875 C602.5,-491.52801513671875 546.5,-446.52801513671875 546.5,-446.52801513671875 C546.5,-446.52801513671875 546.5,-491.52801513671875 546.5,-491.52801513671875z"></path></g></g></g><g opacity="1" transform="matrix(1,0,0,1,0,0)"><g opacity="1" transform="matrix(1,0,0,1,0,0)"><g opacity="1" transform="matrix(1,0,0,1,0,0)"><path fill="rgb(60,151,255)" fill-opacity="1" d=" M546.5,-421.52801513671875 C546.5,-421.52801513671875 602.5,-421.52801513671875 602.5,-421.52801513671875 C602.5,-421.52801513671875 602.5,-376.52801513671875 602.5,-376.52801513671875 C602.5,-376.52801513671875 546.5,-376.52801513671875 546.5,-376.52801513671875 C546.5,-376.52801513671875 546.5,-421.52801513671875 546.5,-421.52801513671875z"></path></g></g><g opacity="1" transform="matrix(1,0,0,1,0,0)"><g opacity="1" transform="matrix(1,0,0,1,0,0)"><path fill="rgb(31,32,68)" fill-opacity="1" d=" M546.5,-421.52801513671875 C546.5,-421.52801513671875 602.5,-421.52801513671875 602.5,-421.52801513671875 C602.5,-421.52801513671875 546.5,-376.52801513671875 546.5,-376.52801513671875 C546.5,-376.52801513671875 546.5,-421.52801513671875 546.5,-421.52801513671875z"></path></g></g></g><g opacity="1" transform="matrix(1,0,0,1,0,0)"><g opacity="1" transform="matrix(1,0,0,1,0,0)"><g opacity="1" transform="matrix(1,0,0,1,0,0)"><path fill="rgb(60,151,255)" fill-opacity="1" d=" M626.5,-491.52801513671875 C626.5,-491.52801513671875 682.5,-491.52801513671875 682.5,-491.52801513671875 C682.5,-491.52801513671875 682.5,-446.52801513671875 682.5,-446.52801513671875 C682.5,-446.52801513671875 626.5,-446.52801513671875 626.5,-446.52801513671875 C626.5,-446.52801513671875 626.5,-491.52801513671875 626.5,-491.52801513671875z"></path></g></g><g opacity="1" transform="matrix(1,0,0,1,0,0)"><g opacity="1" transform="matrix(1,0,0,1,0,0)"><path fill="rgb(31,32,68)" fill-opacity="1" d=" M626.5,-491.52801513671875 C626.5,-491.52801513671875 682.5,-491.52801513671875 682.5,-491.52801513671875 C682.5,-491.52801513671875 626.5,-446.52801513671875 626.5,-446.52801513671875 C626.5,-446.52801513671875 626.5,-491.52801513671875 626.5,-491.52801513671875z"></path></g></g></g><g opacity="1" transform="matrix(1,0,0,1,0,0)"><g opacity="1" transform="matrix(1,0,0,1,0,0)"><g opacity="1" transform="matrix(1,0,0,1,0,0)"><path fill="rgb(31,32,68)" fill-opacity="1" d=" M626.5,-421.52801513671875 C626.5,-421.52801513671875 682.5,-421.52801513671875 682.5,-421.52801513671875 C682.5,-421.52801513671875 682.5,-376.52801513671875 682.5,-376.52801513671875 C682.5,-376.52801513671875 626.5,-376.52801513671875 626.5,-376.52801513671875 C626.5,-376.52801513671875 626.5,-421.52801513671875 626.5,-421.52801513671875z"></path></g></g><g opacity="1" transform="matrix(1,0,0,1,0,0)"><g opacity="1" transform="matrix(1,0,0,1,0,0)"><path fill="rgb(60,151,255)" fill-opacity="1" d=" M626.5,-421.52801513671875 C626.5,-421.52801513671875 682.5,-421.52801513671875 682.5,-421.52801513671875 C682.5,-421.52801513671875 626.5,-376.52801513671875 626.5,-376.52801513671875 C626.5,-376.52801513671875 626.5,-421.52801513671875 626.5,-421.52801513671875z"></path></g></g></g><g opacity="1" transform="matrix(1,0,0,1,0,0)"><g opacity="1" transform="matrix(1,0,0,1,0,0)"><g opacity="1" transform="matrix(1,0,0,1,0,0)"><path fill="rgb(31,32,68)" fill-opacity="1" d=" M705.5,-491.52801513671875 C705.5,-491.52801513671875 761.5,-491.52801513671875 761.5,-491.52801513671875 C761.5,-491.52801513671875 761.5,-446.52801513671875 761.5,-446.52801513671875 C761.5,-446.52801513671875 705.5,-446.52801513671875 705.5,-446.52801513671875 C705.5,-446.52801513671875 705.5,-491.52801513671875 705.5,-491.52801513671875z"></path></g></g><g opacity="1" transform="matrix(1,0,0,1,0,0)"><g opacity="1" transform="matrix(1,0,0,1,0,0)"><path fill="rgb(60,151,255)" fill-opacity="1" d=" M705.5,-491.52801513671875 C705.5,-491.52801513671875 761.5,-491.52801513671875 761.5,-491.52801513671875 C761.5,-491.52801513671875 705.5,-446.52801513671875 705.5,-446.52801513671875 C705.5,-446.52801513671875 705.5,-491.52801513671875 705.5,-491.52801513671875z"></path></g></g></g><g opacity="1" transform="matrix(1,0,0,1,0,0)"><g opacity="1" transform="matrix(1,0,0,1,0,0)"><g opacity="1" transform="matrix(1,0,0,1,0,0)"><path fill="rgb(60,151,255)" fill-opacity="1" d=" M705.5,-421.52801513671875 C705.5,-421.52801513671875 761.5,-421.52801513671875 761.5,-421.52801513671875 C761.5,-421.52801513671875 761.5,-376.52801513671875 761.5,-376.52801513671875 C761.5,-376.52801513671875 705.5,-376.52801513671875 705.5,-376.52801513671875 C705.5,-376.52801513671875 705.5,-421.52801513671875 705.5,-421.52801513671875z"></path></g></g><g opacity="1" transform="matrix(1,0,0,1,0,0)"><g opacity="1" transform="matrix(1,0,0,1,0,0)"><path fill="rgb(31,32,68)" fill-opacity="1" d=" M705.5,-421.52801513671875 C705.5,-421.52801513671875 761.5,-421.52801513671875 761.5,-421.52801513671875 C761.5,-421.52801513671875 705.5,-376.52801513671875 705.5,-376.52801513671875 C705.5,-376.52801513671875 705.5,-421.52801513671875 705.5,-421.52801513671875z"></path></g></g></g><g opacity="1" transform="matrix(1,0,0,1,0,0)"><g opacity="1" transform="matrix(1,0,0,1,0,0)"></g></g><g opacity="1" transform="matrix(1,0,0,1,0,0)"><g opacity="1" transform="matrix(1,0,0,1,0,0)"><g opacity="1" transform="matrix(1,0,0,1,0,0)"><path fill="rgb(31,32,68)" fill-opacity="1" d=" M418.385009765625,-552.4329833984375 C418.385009765625,-552.4329833984375 432.7850036621094,-552.4329833984375 432.7850036621094,-552.4329833984375 C432.7850036621094,-552.4329833984375 432.7850036621094,-550.0330200195312 432.7850036621094,-550.0330200195312 C432.7850036621094,-550.0330200195312 418.385009765625,-550.0330200195312 418.385009765625,-550.0330200195312 C418.385009765625,-550.0330200195312 418.385009765625,-552.4329833984375 418.385009765625,-552.4329833984375z"></path></g></g><g opacity="1" transform="matrix(1,0,0,1,0,0)"><g opacity="1" transform="matrix(1,0,0,1,0,0)"><path fill="rgb(31,32,68)" fill-opacity="1" d=" M418.385009765625,-557.8330078125 C418.385009765625,-557.8330078125 432.7850036621094,-557.8330078125 432.7850036621094,-557.8330078125 C432.7850036621094,-557.8330078125 432.7850036621094,-555.4329833984375 432.7850036621094,-555.4329833984375 C432.7850036621094,-555.4329833984375 418.385009765625,-555.4329833984375 418.385009765625,-555.4329833984375 C418.385009765625,-555.4329833984375 418.385009765625,-557.8330078125 418.385009765625,-557.8330078125z"></path></g></g><g opacity="1" transform="matrix(1,0,0,1,0,0)"><g opacity="1" transform="matrix(1,0,0,1,0,0)"><path fill="rgb(31,32,68)" fill-opacity="1" d=" M418.385009765625,-563.2329711914062 C418.385009765625,-563.2329711914062 432.7850036621094,-563.2329711914062 432.7850036621094,-563.2329711914062 C432.7850036621094,-563.2329711914062 432.7850036621094,-560.8330078125 432.7850036621094,-560.8330078125 C432.7850036621094,-560.8330078125 418.385009765625,-560.8330078125 418.385009765625,-560.8330078125 C418.385009765625,-560.8330078125 418.385009765625,-563.2329711914062 418.385009765625,-563.2329711914062z"></path></g></g></g></g><g opacity="1" transform="matrix(1,0,0,1,0,0)"><g opacity="1" transform="matrix(1,0,0,1,0,0)"><path fill="rgb(31,32,68)" fill-opacity="1" d=" M780.614013671875,-601.052978515625 C780.614013671875,-601.052978515625 404.385009765625,-601.052978515625 404.385009765625,-601.052978515625 C404.385009765625,-601.052978515625 404.385009765625,-662.5280151367188 404.385009765625,-662.5280151367188 C404.385009765625,-662.5280151367188 780.614013671875,-662.5280151367188 780.614013671875,-662.5280151367188 C780.614013671875,-662.5280151367188 780.614013671875,-601.052978515625 780.614013671875,-601.052978515625z M411.385009765625,-608.052978515625 C411.385009765625,-608.052978515625 773.614013671875,-608.052978515625 773.614013671875,-608.052978515625 C773.614013671875,-608.052978515625 773.614013671875,-655.5280151367188 773.614013671875,-655.5280151367188 C773.614013671875,-655.5280151367188 411.385009765625,-655.5280151367188 411.385009765625,-655.5280151367188 C411.385009765625,-655.5280151367188 411.385009765625,-608.052978515625 411.385009765625,-608.052978515625z"></path></g></g><g opacity="1" transform="matrix(1,0,0,1,0,0)"><g opacity="1" transform="matrix(1,0,0,1,0,0)"><path fill="rgb(31,32,68)" fill-opacity="1" d=" M433.89300537109375,-634.47900390625 C433.89300537109375,-634.47900390625 451.10699462890625,-634.47900390625 451.10699462890625,-634.47900390625 C451.10699462890625,-634.47900390625 451.10699462890625,-627.47900390625 451.10699462890625,-627.47900390625 C451.10699462890625,-627.47900390625 433.89300537109375,-627.47900390625 433.89300537109375,-627.47900390625 C433.89300537109375,-627.47900390625 433.89300537109375,-634.47900390625 433.89300537109375,-634.47900390625z"></path></g></g><g opacity="1" transform="matrix(1,0,0,1,0,0)"><g opacity="1" transform="matrix(1,0,0,1,0,0)"><path fill="rgb(31,32,68)" fill-opacity="1" d=" M467.0899963378906,-634.47900390625 C467.0899963378906,-634.47900390625 496.5979919433594,-634.47900390625 496.5979919433594,-634.47900390625 C496.5979919433594,-634.47900390625 496.5979919433594,-627.47900390625 496.5979919433594,-627.47900390625 C496.5979919433594,-627.47900390625 467.0899963378906,-627.47900390625 467.0899963378906,-627.47900390625 C467.0899963378906,-627.47900390625 467.0899963378906,-634.47900390625 467.0899963378906,-634.47900390625z"></path></g></g><g opacity="1" transform="matrix(1,0,0,1,552.0880126953125,-528.5770263671875)"><path fill="rgb(235,239,243)" fill-opacity="1" d=" M85.6709976196289,-13.353500366210938 C85.6709976196289,-13.353500366210938 85.6709976196289,13.353500366210938 85.6709976196289,13.353500366210938 C85.6709976196289,13.353500366210938 -85.6709976196289,13.353500366210938 -85.6709976196289,13.353500366210938 C-85.6709976196289,13.353500366210938 -85.6709976196289,-13.353500366210938 -85.6709976196289,-13.353500366210938 C-85.6709976196289,-13.353500366210938 85.6709976196289,-13.353500366210938 85.6709976196289,-13.353500366210938z"></path></g></g><g opacity="1" transform="matrix(0,0,0,0,-23.354999542236328,8.97700023651123)"><g opacity="1" transform="matrix(1,0,0,1,0,0)"><g opacity="1" transform="matrix(1,0,0,1,0,0)"><path fill="rgb(60,151,255)" fill-opacity="1" d=" M4.86899995803833,-454.20001220703125 C4.86899995803833,-454.20001220703125 218.26199340820312,-628.791015625 218.26199340820312,-628.791015625 C218.26199340820312,-628.791015625 324,-628.791015625 324,-628.791015625 C324,-628.791015625 323.07501220703125,-403.7139892578125 323.07501220703125,-403.7139892578125 C323.07501220703125,-403.7139892578125 4.86899995803833,-454.20001220703125 4.86899995803833,-454.20001220703125z"></path></g></g><g opacity="1" transform="matrix(1,0,0,1,0,0)"><g opacity="1" transform="matrix(1,0,0,1,0,0)"><path fill="rgb(255,145,68)" fill-opacity="1" d=" M-126,-454.20001220703125 C-126,-454.20001220703125 -126,-628.791015625 -126,-628.791015625 C-126,-628.791015625 218.26199340820312,-628.791015625 218.26199340820312,-628.791015625 C218.26199340820312,-628.791015625 -90.34400177001953,-350.9219970703125 -90.34400177001953,-350.9219970703125 C-90.34400177001953,-350.9219970703125 -126,-454.20001220703125 -126,-454.20001220703125z"></path></g></g><g opacity="1" transform="matrix(1,0,0,1,0,0)"><g opacity="1" transform="matrix(1,0,0,1,0,0)"><path fill="rgb(255,213,76)" fill-opacity="1" d=" M-125.6449966430664,-372.0790100097656 C-125.6449966430664,-372.0790100097656 -126,-461.5769958496094 -126,-461.5769958496094 C-126,-461.5769958496094 -126,-461.5769958496094 -126,-461.5769958496094 C-126,-461.5769958496094 -30.19099998474121,-543.698974609375 -30.19099998474121,-543.698974609375 C-30.19099998474121,-543.698974609375 97.7699966430664,-403.7909851074219 97.7699966430664,-403.7909851074219 C97.7699966430664,-403.7909851074219 76.83200073242188,-337.3599853515625 76.83200073242188,-337.3599853515625 C76.83200073242188,-337.3599853515625 -90.78900146484375,-337.3599853515625 -90.78900146484375,-337.3599853515625 C-109.98600006103516,-337.3599853515625 -125.56900024414062,-352.8819885253906 -125.6449966430664,-372.0790100097656z"></path></g></g><g opacity="1" transform="matrix(1,0,0,1,0,0)"><g opacity="1" transform="matrix(1,0,0,1,0,0)"><path fill="rgb(31,32,68)" fill-opacity="1" d=" M324,-605.4299926757812 C324,-605.4299926757812 322.77099609375,-337.3970031738281 322.77099609375,-337.3970031738281 C322.77099609375,-337.3970031738281 26.458999633789062,-337.3970031738281 26.458999633789062,-337.3970031738281 C26.458999633789062,-337.3970031738281 324,-605.4299926757812 324,-605.4299926757812z"></path></g></g><g class="45 16-PM" opacity="1" transform="matrix(1,0,0,1,1.1080000400543213,0.6800000071525574)"><g opacity="1" transform="matrix(1,0,0,1,0,0)"><g opacity="1" transform="matrix(1,0,0,1,0,0)"><path fill="rgb(255,255,255)" fill-opacity="1" d=" M-89.11499786376953,-572.2329711914062 C-89.11499786376953,-572.2329711914062 287.114990234375,-572.2329711914062 287.114990234375,-572.2329711914062 C287.114990234375,-572.2329711914062 287.114990234375,-366.9049987792969 287.114990234375,-366.9049987792969 C287.114990234375,-366.9049987792969 130.9669952392578,-366.9049987792969 130.9669952392578,-366.9049987792969 C130.9669952392578,-366.9049987792969 -89.11499786376953,-366.9049987792969 -89.11499786376953,-366.9049987792969 C-89.11499786376953,-366.9049987792969 -89.11499786376953,-572.2329711914062 -89.11499786376953,-572.2329711914062z"></path></g></g><g opacity="1" transform="matrix(1,0,0,1,0,0)"><g opacity="1" transform="matrix(1,0,0,1,0,0)"><path fill="rgb(31,32,68)" fill-opacity="1" d=" M151.86900329589844,-551.3319702148438 C151.86900329589844,-551.3319702148438 262.5249938964844,-551.3319702148438 262.5249938964844,-551.3319702148438 C262.5249938964844,-551.3319702148438 262.5249938964844,-509.52801513671875 262.5249938964844,-509.52801513671875 C262.5249938964844,-509.52801513671875 151.86900329589844,-509.52801513671875 151.86900329589844,-509.52801513671875 C151.86900329589844,-509.52801513671875 151.86900329589844,-551.3319702148438 151.86900329589844,-551.3319702148438z"></path></g></g><g opacity="1" transform="matrix(1,0,0,1,0,0)"><g opacity="1" transform="matrix(1,0,0,1,0,0)"><path fill="rgb(255,213,76)" fill-opacity="1" d=" M151,-451.52801513671875 C151,-451.52801513671875 199,-451.52801513671875 199,-451.52801513671875 C199,-451.52801513671875 199,-431.52801513671875 199,-431.52801513671875 C199,-431.52801513671875 171,-431.52801513671875 171,-431.52801513671875 C159.95399475097656,-431.52801513671875 151,-440.48199462890625 151,-451.52801513671875 C151,-451.52801513671875 151,-451.52801513671875 151,-451.52801513671875 C151,-451.52801513671875 151,-451.52801513671875 151,-451.52801513671875z"></path></g></g><g opacity="1" transform="matrix(1,0,0,1,0,0)"><g opacity="1" transform="matrix(1,0,0,1,0,0)"><path fill="rgb(255,213,76)" fill-opacity="1" d=" M151,-389.52801513671875 C151,-389.52801513671875 199,-389.52801513671875 199,-389.52801513671875 C199,-389.52801513671875 199,-366.52801513671875 199,-366.52801513671875 C199,-366.52801513671875 174,-366.52801513671875 174,-366.52801513671875 C161.2969970703125,-366.52801513671875 151,-376.82501220703125 151,-389.52801513671875 C151,-389.52801513671875 151,-389.52801513671875 151,-389.52801513671875 C151,-389.52801513671875 151,-389.52801513671875 151,-389.52801513671875z"></path></g></g><g opacity="1" transform="matrix(1,0,0,1,0,0)"><g opacity="1" transform="matrix(1,0,0,1,0,0)"><path fill="rgb(255,213,76)" fill-opacity="1" d=" M216,-451.52801513671875 C216,-451.52801513671875 263,-451.52801513671875 263,-451.52801513671875 C263,-451.52801513671875 263,-431.52801513671875 263,-431.52801513671875 C263,-431.52801513671875 236,-431.52801513671875 236,-431.52801513671875 C224.95399475097656,-431.52801513671875 216,-440.48199462890625 216,-451.52801513671875 C216,-451.52801513671875 216,-451.52801513671875 216,-451.52801513671875 C216,-451.52801513671875 216,-451.52801513671875 216,-451.52801513671875z"></path></g></g><g opacity="1" transform="matrix(1,0,0,1,0,0)"><g opacity="1" transform="matrix(1,0,0,1,0,0)"><path fill="rgb(255,213,76)" fill-opacity="1" d=" M216,-389.52801513671875 C216,-389.52801513671875 263,-389.52801513671875 263,-389.52801513671875 C263,-389.52801513671875 263,-366.52801513671875 263,-366.52801513671875 C263,-366.52801513671875 239,-366.52801513671875 239,-366.52801513671875 C226.2969970703125,-366.52801513671875 216,-376.82501220703125 216,-389.52801513671875 C216,-389.52801513671875 216,-389.52801513671875 216,-389.52801513671875 C216,-389.52801513671875 216,-389.52801513671875 216,-389.52801513671875z"></path></g></g><g opacity="1" transform="matrix(1,0,0,1,0,0)"><g opacity="1" transform="matrix(1,0,0,1,0,0)"><path fill="rgb(31,32,68)" fill-opacity="1" d=" M151.86900329589844,-492.31500244140625 C151.86900329589844,-492.31500244140625 198.58999633789062,-492.31500244140625 198.58999633789062,-492.31500244140625 C198.58999633789062,-492.31500244140625 198.58999633789062,-450.5119934082031 198.58999633789062,-450.5119934082031 C198.58999633789062,-450.5119934082031 151.86900329589844,-450.5119934082031 151.86900329589844,-450.5119934082031 C151.86900329589844,-450.5119934082031 151.86900329589844,-492.31500244140625 151.86900329589844,-492.31500244140625z"></path></g></g><g opacity="1" transform="matrix(1,0,0,1,0,0)"><g opacity="1" transform="matrix(1,0,0,1,0,0)"><path fill="rgb(31,32,68)" fill-opacity="1" d=" M151.86900329589844,-431.52801513671875 C151.86900329589844,-431.52801513671875 198.58999633789062,-431.52801513671875 198.58999633789062,-431.52801513671875 C198.58999633789062,-431.52801513671875 198.58999633789062,-389.7250061035156 198.58999633789062,-389.7250061035156 C198.58999633789062,-389.7250061035156 151.86900329589844,-389.7250061035156 151.86900329589844,-389.7250061035156 C151.86900329589844,-389.7250061035156 151.86900329589844,-431.52801513671875 151.86900329589844,-431.52801513671875z"></path></g></g><g opacity="1" transform="matrix(1,0,0,1,0,0)"><g opacity="1" transform="matrix(1,0,0,1,0,0)"><path fill="rgb(31,32,68)" fill-opacity="1" d=" M216,-492.31500244140625 C216,-492.31500244140625 262.72100830078125,-492.31500244140625 262.72100830078125,-492.31500244140625 C262.72100830078125,-492.31500244140625 262.72100830078125,-450.5119934082031 262.72100830078125,-450.5119934082031 C262.72100830078125,-450.5119934082031 216,-450.5119934082031 216,-450.5119934082031 C216,-450.5119934082031 216,-492.31500244140625 216,-492.31500244140625z"></path></g></g><g opacity="1" transform="matrix(1,0,0,1,0,0)"><g opacity="1" transform="matrix(1,0,0,1,0,0)"><path fill="rgb(31,32,68)" fill-opacity="1" d=" M216,-431.52801513671875 C216,-431.52801513671875 262.72100830078125,-431.52801513671875 262.72100830078125,-431.52801513671875 C262.72100830078125,-431.52801513671875 262.72100830078125,-389.7250061035156 262.72100830078125,-389.7250061035156 C262.72100830078125,-389.7250061035156 216,-389.7250061035156 216,-389.7250061035156 C216,-389.7250061035156 216,-431.52801513671875 216,-431.52801513671875z"></path></g></g><g opacity="1" transform="matrix(1,0,0,1,0,0)"><g opacity="1" transform="matrix(1,0,0,1,0,0)"><path fill="rgb(60,151,255)" fill-opacity="1" d=" M151.86900329589844,-492.31500244140625 C151.86900329589844,-492.31500244140625 198.58999633789062,-492.31500244140625 198.58999633789062,-492.31500244140625 C198.58999633789062,-492.31500244140625 151.86900329589844,-450.5119934082031 151.86900329589844,-450.5119934082031 C151.86900329589844,-450.5119934082031 151.86900329589844,-492.31500244140625 151.86900329589844,-492.31500244140625z"></path></g></g><g opacity="1" transform="matrix(1,0,0,1,0,0)"><g opacity="1" transform="matrix(1,0,0,1,0,0)"><path fill="rgb(60,151,255)" fill-opacity="1" d=" M151.86900329589844,-431.52801513671875 C151.86900329589844,-431.52801513671875 198.58999633789062,-431.52801513671875 198.58999633789062,-431.52801513671875 C198.58999633789062,-431.52801513671875 151.86900329589844,-389.7250061035156 151.86900329589844,-389.7250061035156 C151.86900329589844,-389.7250061035156 151.86900329589844,-431.52801513671875 151.86900329589844,-431.52801513671875z"></path></g></g><g opacity="1" transform="matrix(1,0,0,1,0,0)"><g opacity="1" transform="matrix(1,0,0,1,0,0)"><path fill="rgb(60,151,255)" fill-opacity="1" d=" M216,-492.31500244140625 C216,-492.31500244140625 262.72100830078125,-492.31500244140625 262.72100830078125,-492.31500244140625 C262.72100830078125,-492.31500244140625 216,-450.5119934082031 216,-450.5119934082031 C216,-450.5119934082031 216,-492.31500244140625 216,-492.31500244140625z"></path></g></g><g opacity="1" transform="matrix(1,0,0,1,0,0)"><g opacity="1" transform="matrix(1,0,0,1,0,0)"><path fill="rgb(60,151,255)" fill-opacity="1" d=" M216,-431.52801513671875 C216,-431.52801513671875 262.72100830078125,-431.52801513671875 262.72100830078125,-431.52801513671875 C262.72100830078125,-431.52801513671875 216,-389.7250061035156 216,-389.7250061035156 C216,-389.7250061035156 216,-431.52801513671875 216,-431.52801513671875z"></path></g></g><g opacity="1" transform="matrix(1,0,0,1,0,0)"><g opacity="1" transform="matrix(1,0,0,1,0,0)"><path fill="rgb(31,32,68)" fill-opacity="1" d=" M-81.73799896240234,-358.29901123046875 C-81.73799896240234,-358.29901123046875 287.114990234375,-358.29901123046875 287.114990234375,-358.29901123046875 C287.114990234375,-358.29901123046875 287.114990234375,-366.9049987792969 287.114990234375,-366.9049987792969 C287.114990234375,-366.9049987792969 -71.9020004272461,-366.9049987792969 -71.9020004272461,-366.9049987792969 C-71.9020004272461,-366.9049987792969 -81.73799896240234,-358.29901123046875 -81.73799896240234,-358.29901123046875z"></path></g></g></g><g opacity="1" transform="matrix(1,0,0,1,0.1860000044107437,1.25600004196167)"><g opacity="1" transform="matrix(1,0,0,1,0,0)"><path fill="rgb(31,32,68)" fill-opacity="1" d=" M287.114013671875,-598.052978515625 C287.114013671875,-598.052978515625 -89.11499786376953,-598.052978515625 -89.11499786376953,-598.052978515625 C-89.11499786376953,-598.052978515625 -89.11499786376953,-659.5280151367188 -89.11499786376953,-659.5280151367188 C-89.11499786376953,-659.5280151367188 287.114013671875,-659.5280151367188 287.114013671875,-659.5280151367188 C287.114013671875,-659.5280151367188 287.114013671875,-598.052978515625 287.114013671875,-598.052978515625z M-82.11499786376953,-605.052978515625 C-82.11499786376953,-605.052978515625 280.114013671875,-605.052978515625 280.114013671875,-605.052978515625 C280.114013671875,-605.052978515625 280.114013671875,-652.5280151367188 280.114013671875,-652.5280151367188 C280.114013671875,-652.5280151367188 -82.11499786376953,-652.5280151367188 -82.11499786376953,-652.5280151367188 C-82.11499786376953,-652.5280151367188 -82.11499786376953,-605.052978515625 -82.11499786376953,-605.052978515625z"></path></g></g><g opacity="1" transform="matrix(1,0,0,1,0,0)"><g opacity="1" transform="matrix(1,0,0,1,0,0)"><path fill="rgb(31,32,68)" fill-opacity="1" d=" M130.9669952392578,-450.5119934082031 C130.9669952392578,-450.5119934082031 19.082000732421875,-450.5119934082031 19.082000732421875,-450.5119934082031 C19.082000732421875,-450.5119934082031 19.082000732421875,-551.3319702148438 19.082000732421875,-551.3319702148438 C19.082000732421875,-551.3319702148438 130.9669952392578,-551.3319702148438 130.9669952392578,-551.3319702148438 C130.9669952392578,-551.3319702148438 130.9669952392578,-450.5119934082031 130.9669952392578,-450.5119934082031z"></path></g></g><g opacity="1" transform="matrix(1,0,0,1,0,0)"><g opacity="1" transform="matrix(1,0,0,1,0,0)"><path fill="rgb(60,151,255)" fill-opacity="1" d=" M130.9669952392578,-551.3319702148438 C130.9669952392578,-551.3319702148438 130.9669952392578,-450.5119934082031 130.9669952392578,-450.5119934082031 C130.9669952392578,-450.5119934082031 19.082000732421875,-450.5119934082031 19.082000732421875,-450.5119934082031 C19.082000732421875,-450.5119934082031 130.9669952392578,-551.3319702148438 130.9669952392578,-551.3319702148438z"></path></g></g><g opacity="1" transform="matrix(1,0,0,1,0,0)"><g opacity="1" transform="matrix(1,0,0,1,0,0)"><path fill="rgb(60,151,255)" fill-opacity="1" d=" M130.9669952392578,-366.9049987792969 C130.9669952392578,-366.9049987792969 19.082000732421875,-366.9049987792969 19.082000732421875,-366.9049987792969 C19.082000732421875,-366.9049987792969 19.082000732421875,-432.0690002441406 19.082000732421875,-432.0690002441406 C19.082000732421875,-432.0690002441406 130.9669952392578,-432.0690002441406 130.9669952392578,-432.0690002441406 C130.9669952392578,-432.0690002441406 130.9669952392578,-366.9049987792969 130.9669952392578,-366.9049987792969z"></path></g></g><g opacity="1" transform="matrix(1,0,0,1,0,0)"><g opacity="1" transform="matrix(1,0,0,1,0,0)"><path fill="rgb(31,32,68)" fill-opacity="1" d=" M130.9669952392578,-432.0690002441406 C130.9669952392578,-432.0690002441406 130.9669952392578,-366.9049987792969 130.9669952392578,-366.9049987792969 C130.9669952392578,-366.9049987792969 58.42599868774414,-366.9049987792969 58.42599868774414,-366.9049987792969 C58.42599868774414,-366.9049987792969 130.9669952392578,-432.0690002441406 130.9669952392578,-432.0690002441406z"></path></g></g><g opacity="1" transform="matrix(1,0,0,1,0.1860000044107437,1.25600004196167)"><g opacity="1" transform="matrix(1,0,0,1,0,0)"><path fill="rgb(31,32,68)" fill-opacity="1" d=" M-59.606998443603516,-631.47900390625 C-59.606998443603516,-631.47900390625 -42.393001556396484,-631.47900390625 -42.393001556396484,-631.47900390625 C-42.393001556396484,-631.47900390625 -42.393001556396484,-624.47900390625 -42.393001556396484,-624.47900390625 C-42.393001556396484,-624.47900390625 -59.606998443603516,-624.47900390625 -59.606998443603516,-624.47900390625 C-59.606998443603516,-624.47900390625 -59.606998443603516,-631.47900390625 -59.606998443603516,-631.47900390625z"></path></g></g><g opacity="1" transform="matrix(1,0,0,1,0.1860000044107437,0)"><g opacity="1" transform="matrix(1,0,0,1,0,0)"><path fill="rgb(31,32,68)" fill-opacity="1" d=" M-26.40999984741211,-631.47900390625 C-26.40999984741211,-631.47900390625 3.0980000495910645,-631.47900390625 3.0980000495910645,-631.47900390625 C3.0980000495910645,-631.47900390625 3.0980000495910645,-624.47900390625 3.0980000495910645,-624.47900390625 C3.0980000495910645,-624.47900390625 -26.40999984741211,-624.47900390625 -26.40999984741211,-624.47900390625 C-26.40999984741211,-624.47900390625 -26.40999984741211,-631.47900390625 -26.40999984741211,-631.47900390625z"></path></g></g><g opacity="1" transform="matrix(1,0,0,1,0,0)"><g opacity="1" transform="matrix(1,0,0,1,0,0)"><path fill="rgb(31,32,68)" fill-opacity="1" d=" M219.49200439453125,-631.47900390625 C219.49200439453125,-631.47900390625 256.37701416015625,-631.47900390625 256.37701416015625,-631.47900390625 C256.37701416015625,-631.47900390625 256.37701416015625,-624.47900390625 256.37701416015625,-624.47900390625 C256.37701416015625,-624.47900390625 219.49200439453125,-624.47900390625 219.49200439453125,-624.47900390625 C219.49200439453125,-624.47900390625 219.49200439453125,-631.47900390625 219.49200439453125,-631.47900390625z"></path></g></g><g opacity="1" transform="matrix(1,0,0,1,-45.553001403808594,-535.4210205078125)"><path fill="rgb(60,151,255)" fill-opacity="1" d=" M18.967500686645508,-13.456000328063965 C18.967500686645508,-13.456000328063965 18.967500686645508,13.456000328063965 18.967500686645508,13.456000328063965 C18.967500686645508,13.456000328063965 -18.967500686645508,13.456000328063965 -18.967500686645508,13.456000328063965 C-18.967500686645508,13.456000328063965 -18.967500686645508,-13.456000328063965 -18.967500686645508,-13.456000328063965 C-18.967500686645508,-13.456000328063965 18.967500686645508,-13.456000328063965 18.967500686645508,-13.456000328063965z"></path></g><g opacity="1" transform="matrix(1.4381728172302246,0.011647049337625504,-0.003971133381128311,0.49035391211509705,-38.88999938964844,-497.40301513671875)"><path fill="rgb(235,239,243)" fill-opacity="1" d=" M18.967500686645508,-13.456000328063965 C18.967500686645508,-13.456000328063965 18.967500686645508,13.456000328063965 18.967500686645508,13.456000328063965 C18.967500686645508,13.456000328063965 -18.967500686645508,13.456000328063965 -18.967500686645508,13.456000328063965 C-18.967500686645508,13.456000328063965 -18.967500686645508,-13.456000328063965 -18.967500686645508,-13.456000328063965 C-18.967500686645508,-13.456000328063965 18.967500686645508,-13.456000328063965 18.967500686645508,-13.456000328063965z"></path></g><g opacity="1" transform="matrix(1.4381728172302246,0.011647049337625504,-0.003971133381128311,0.49035391211509705,-38.65999984741211,-472.07000732421875)"><path fill="rgb(235,239,243)" fill-opacity="1" d=" M18.967500686645508,-13.456000328063965 C18.967500686645508,-13.456000328063965 18.967500686645508,13.456000328063965 18.967500686645508,13.456000328063965 C18.967500686645508,13.456000328063965 -18.967500686645508,13.456000328063965 -18.967500686645508,13.456000328063965 C-18.967500686645508,13.456000328063965 -18.967500686645508,-13.456000328063965 -18.967500686645508,-13.456000328063965 C-18.967500686645508,-13.456000328063965 18.967500686645508,-13.456000328063965 18.967500686645508,-13.456000328063965z"></path></g><g opacity="1" transform="matrix(1.4381728172302246,0.011647049337625504,-0.003971133381128311,0.49035391211509705,-39.316001892089844,-446.5740051269531)"><path fill="rgb(235,239,243)" fill-opacity="1" d=" M18.967500686645508,-13.456000328063965 C18.967500686645508,-13.456000328063965 18.967500686645508,13.456000328063965 18.967500686645508,13.456000328063965 C18.967500686645508,13.456000328063965 -18.967500686645508,13.456000328063965 -18.967500686645508,13.456000328063965 C-18.967500686645508,13.456000328063965 -18.967500686645508,-13.456000328063965 -18.967500686645508,-13.456000328063965 C-18.967500686645508,-13.456000328063965 18.967500686645508,-13.456000328063965 18.967500686645508,-13.456000328063965z"></path></g><g opacity="1" transform="matrix(1,0,0,1,0,0)"><path fill="rgb(31,32,68)" fill-opacity="1" d=" M-64.3489990234375,-548.9249877929688 C-64.3489990234375,-548.9249877929688 -64.49500274658203,-522.8060302734375 -64.49500274658203,-522.8060302734375 C-64.49500274658203,-522.8060302734375 -27.291000366210938,-548.364990234375 -27.291000366210938,-548.364990234375 C-27.291000366210938,-548.364990234375 -64.3489990234375,-548.9249877929688 -64.3489990234375,-548.9249877929688z"></path></g></g><g opacity="1" transform="matrix(0.5144103765487671,-0.06001977622509003,0.06001977622509003,0.5144103765487671,94.42776489257812,197.64324951171875)"><g opacity="1" transform="matrix(1,0,0,1,1.0199999809265137,0.38100001215934753)"><g opacity="1" transform="matrix(1,0,0,1,0,0)"><path fill="rgb(60,151,255)" fill-opacity="1" d=" M-617.06298828125,-377.6940002441406 C-617.06298828125,-377.6940002441406 -617.06298828125,-632.9569702148438 -617.06298828125,-632.9569702148438 C-617.06298828125,-632.9569702148438 -189.06300354003906,-632.7069702148438 -189.06300354003906,-632.7069702148438 C-176.91099548339844,-632.7000122070312 -167.06300354003906,-622.8460083007812 -167.06300354003906,-610.6939697265625 C-167.06300354003906,-610.6939697265625 -167.06300354003906,-610.6939697265625 -167.06300354003906,-610.6939697265625 C-167.06300354003906,-610.6939697265625 -167.06300354003906,-610.6939697265625 -167.06300354003906,-610.6939697265625 C-167.06300354003906,-610.6939697265625 -273.06298828125,-511.6940002441406 -273.06298828125,-511.6940002441406 C-353.27899169921875,-454.0639953613281 -399.6130065917969,-422.39801025390625 -412.06298828125,-416.6940002441406 C-424.51300048828125,-410.989990234375 -492.84698486328125,-397.989990234375 -617.06298828125,-377.6940002441406z"></path></g></g><g opacity="1" transform="matrix(1,0,0,1,0,0)"><g opacity="1" transform="matrix(1,0,0,1,0,0)"><path fill="rgb(255,213,76)" fill-opacity="1" d=" M-616.5700073242188,-341.5260009765625 C-616.5700073242188,-341.5260009765625 -617.06298828125,-408.6940002441406 -617.06298828125,-408.6940002441406 C-617.06298828125,-408.6940002441406 -383.06298828125,-559.6939697265625 -383.06298828125,-559.6939697265625 C-383.06298828125,-559.6939697265625 -219.06300354003906,-435.6940002441406 -219.06300354003906,-435.6940002441406 C-219.06300354003906,-435.6940002441406 -325.06298828125,-341.6940002441406 -325.06298828125,-341.6940002441406 C-325.06298828125,-341.6940002441406 -616.5700073242188,-341.5260009765625 -616.5700073242188,-341.5260009765625z"></path></g></g><g opacity="1" transform="matrix(1,0,0,1,0,0)"><g opacity="1" transform="matrix(1,0,0,1,0,0)"><path fill="rgb(255,145,68)" fill-opacity="1" d=" M-167.06300354003906,-476.6940002441406 C-167.06300354003906,-476.6940002441406 -168.29200744628906,-341.56298828125 -168.29200744628906,-341.56298828125 C-168.29200744628906,-341.56298828125 -360.06298828125,-341.6940002441406 -360.06298828125,-341.6940002441406 C-360.06298828125,-341.6940002441406 -167.06300354003906,-476.6940002441406 -167.06300354003906,-476.6940002441406z"></path></g></g><g opacity="1" transform="matrix(1,0,0,1,0,0)"><g opacity="1" transform="matrix(1,0,0,1,0,0)"><path fill="rgb(31,32,68)" fill-opacity="1" d=" M-167.06300354003906,-610.760009765625 C-167.06300354003906,-610.760009765625 -168.06300354003906,-476.6940002441406 -168.06300354003906,-476.6940002441406 C-168.06300354003906,-476.6940002441406 -272.06298828125,-402.6940002441406 -272.06298828125,-402.6940002441406 C-272.06298828125,-402.6940002441406 -325.06298828125,-466.760009765625 -325.06298828125,-466.760009765625 C-325.06298828125,-466.760009765625 -167.06300354003906,-610.760009765625 -167.06300354003906,-610.760009765625z"></path></g></g><g class="45 16-PM" opacity="1" transform="matrix(1,0,0,1,0,0)"><g opacity="1" transform="matrix(1,0,0,1,0,0)"><g opacity="1" transform="matrix(1,0,0,1,0,0)"><path fill="rgb(255,255,255)" fill-opacity="1" d=" M-580.177001953125,-576.6939697265625 C-580.177001953125,-576.6939697265625 -203.947998046875,-576.6939697265625 -203.947998046875,-576.6939697265625 C-203.947998046875,-576.6939697265625 -203.947998046875,-377.6940002441406 -203.947998046875,-377.6940002441406 C-203.947998046875,-377.6940002441406 -360.0950012207031,-377.6940002441406 -360.0950012207031,-377.6940002441406 C-360.0950012207031,-377.6940002441406 -580.177001953125,-377.6940002441406 -580.177001953125,-377.6940002441406 C-580.177001953125,-377.6940002441406 -580.177001953125,-576.6939697265625 -580.177001953125,-576.6939697265625z"></path></g></g><g opacity="1" transform="matrix(1,0,0,1,0,0)"><g opacity="1" transform="matrix(1,0,0,1,0,0)"><path fill="rgb(255,213,76)" fill-opacity="1" d=" M-310.06298828125,-576.6939697265625 C-310.06298828125,-576.6939697265625 -204.06300354003906,-576.6939697265625 -204.06300354003906,-576.6939697265625 C-204.06300354003906,-576.6939697265625 -204.06300354003906,-377.6940002441406 -204.06300354003906,-377.6940002441406 C-204.06300354003906,-377.6940002441406 -310.06298828125,-377.6940002441406 -310.06298828125,-377.6940002441406 C-310.06298828125,-377.6940002441406 -310.06298828125,-576.6939697265625 -310.06298828125,-576.6939697265625z"></path></g></g><g opacity="1" transform="matrix(1,0,0,1,0,0)"><g opacity="1" transform="matrix(1,0,0,1,0,0)"><path fill="rgb(60,151,255)" fill-opacity="1" d=" M-290.06298828125,-558.6939697265625 C-290.06298828125,-558.6939697265625 -224.06300354003906,-558.6939697265625 -224.06300354003906,-558.6939697265625 C-224.06300354003906,-558.6939697265625 -224.06300354003906,-513.6939697265625 -224.06300354003906,-513.6939697265625 C-224.06300354003906,-513.6939697265625 -290.06298828125,-513.6939697265625 -290.06298828125,-513.6939697265625 C-290.06298828125,-513.6939697265625 -290.06298828125,-558.6939697265625 -290.06298828125,-558.6939697265625z"></path></g></g><g opacity="1" transform="matrix(1,0,0,1,0,0)"><g opacity="1" transform="matrix(1,0,0,1,0,0)"><path fill="rgb(31,32,68)" fill-opacity="1" d=" M-290.06298828125,-496.6940002441406 C-290.06298828125,-496.6940002441406 -224.06300354003906,-496.6940002441406 -224.06300354003906,-496.6940002441406 C-224.06300354003906,-496.6940002441406 -224.06300354003906,-451.6940002441406 -224.06300354003906,-451.6940002441406 C-224.06300354003906,-451.6940002441406 -290.06298828125,-451.6940002441406 -290.06298828125,-451.6940002441406 C-290.06298828125,-451.6940002441406 -290.06298828125,-496.6940002441406 -290.06298828125,-496.6940002441406z"></path></g></g><g opacity="1" transform="matrix(1,0,0,1,0,0)"><g opacity="1" transform="matrix(1,0,0,1,0,0)"><path fill="rgb(255,255,255)" fill-opacity="1" d=" M-290.06298828125,-436.6940002441406 C-290.06298828125,-436.6940002441406 -224.06300354003906,-436.6940002441406 -224.06300354003906,-436.6940002441406 C-224.06300354003906,-436.6940002441406 -224.06300354003906,-391.6940002441406 -224.06300354003906,-391.6940002441406 C-224.06300354003906,-391.6940002441406 -290.06298828125,-391.6940002441406 -290.06298828125,-391.6940002441406 C-290.06298828125,-391.6940002441406 -290.06298828125,-436.6940002441406 -290.06298828125,-436.6940002441406z"></path></g></g><g opacity="1" transform="matrix(1,0,0,1,0,0)"><g opacity="1" transform="matrix(1,0,0,1,0,0)"><path fill="rgb(31,32,68)" fill-opacity="1" d=" M-290.06298828125,-558.6939697265625 C-290.06298828125,-558.6939697265625 -224.06300354003906,-558.6939697265625 -224.06300354003906,-558.6939697265625 C-224.06300354003906,-558.6939697265625 -290.06298828125,-513.6939697265625 -290.06298828125,-513.6939697265625 C-290.06298828125,-513.6939697265625 -290.06298828125,-558.6939697265625 -290.06298828125,-558.6939697265625z"></path></g></g><g opacity="1" transform="matrix(1,0,0,1,0,0)"><g opacity="1" transform="matrix(1,0,0,1,0,0)"><path fill="rgb(60,151,255)" fill-opacity="1" d=" M-290.06298828125,-496.6940002441406 C-290.06298828125,-496.6940002441406 -224.06300354003906,-496.6940002441406 -224.06300354003906,-496.6940002441406 C-224.06300354003906,-496.6940002441406 -290.06298828125,-451.6940002441406 -290.06298828125,-451.6940002441406 C-290.06298828125,-451.6940002441406 -290.06298828125,-496.6940002441406 -290.06298828125,-496.6940002441406z"></path></g></g><g opacity="1" transform="matrix(1,0,0,1,0,0)"><g opacity="1" transform="matrix(1,0,0,1,0,0)"><path fill="rgb(31,32,68)" fill-opacity="1" d=" M-290.06298828125,-436.6940002441406 C-290.06298828125,-436.6940002441406 -224.06300354003906,-436.6940002441406 -224.06300354003906,-436.6940002441406 C-224.06300354003906,-436.6940002441406 -290.06298828125,-391.6940002441406 -290.06298828125,-391.6940002441406 C-290.06298828125,-391.6940002441406 -290.06298828125,-436.6940002441406 -290.06298828125,-436.6940002441406z"></path></g></g></g><g opacity="1" transform="matrix(1,0,0,1,0,0)"><g opacity="1" transform="matrix(1,0,0,1,0,0.45500001311302185)"><path fill="rgb(31,32,68)" fill-opacity="1" d=" M-203.947998046875,-602.218994140625 C-203.947998046875,-602.218994140625 -580.177001953125,-602.218994140625 -580.177001953125,-602.218994140625 C-580.177001953125,-602.218994140625 -580.177001953125,-663.6939697265625 -580.177001953125,-663.6939697265625 C-580.177001953125,-663.6939697265625 -203.947998046875,-663.6939697265625 -203.947998046875,-663.6939697265625 C-203.947998046875,-663.6939697265625 -203.947998046875,-602.218994140625 -203.947998046875,-602.218994140625z M-573.177001953125,-609.218994140625 C-573.177001953125,-609.218994140625 -210.947998046875,-609.218994140625 -210.947998046875,-609.218994140625 C-210.947998046875,-609.218994140625 -210.947998046875,-656.6939697265625 -210.947998046875,-656.6939697265625 C-210.947998046875,-656.6939697265625 -573.177001953125,-656.6939697265625 -573.177001953125,-656.6939697265625 C-573.177001953125,-656.6939697265625 -573.177001953125,-609.218994140625 -573.177001953125,-609.218994140625z"></path></g></g><g opacity="1" transform="matrix(1,0,0,1,0,0)"><g opacity="1" transform="matrix(1,0,0,1,0,0)"><path fill="rgb(31,32,68)" fill-opacity="1" d=" M-309.06298828125,-377.6940002441406 C-309.06298828125,-377.6940002441406 -580.06298828125,-377.6940002441406 -580.06298828125,-377.6940002441406 C-580.06298828125,-377.6940002441406 -580.06298828125,-499.6940002441406 -580.06298828125,-499.6940002441406 C-580.06298828125,-499.6940002441406 -309.06298828125,-499.6940002441406 -309.06298828125,-499.6940002441406 C-309.06298828125,-499.6940002441406 -309.06298828125,-377.6940002441406 -309.06298828125,-377.6940002441406z"></path></g></g><g opacity="1" transform="matrix(1,0,0,1,0,0)"><g opacity="1" transform="matrix(1,0,0,1,0,0)"><path fill="rgb(60,151,255)" fill-opacity="1" d=" M-383.06298828125,-499.6940002441406 C-383.06298828125,-499.6940002441406 -309.06298828125,-499.6940002441406 -309.06298828125,-499.6940002441406 C-309.06298828125,-499.6940002441406 -309.06298828125,-439.0979919433594 -309.06298828125,-439.0979919433594 C-309.06298828125,-439.0979919433594 -399.06298828125,-377.6940002441406 -399.06298828125,-377.6940002441406 C-399.06298828125,-377.6940002441406 -580.06298828125,-377.6940002441406 -580.06298828125,-377.6940002441406 C-580.06298828125,-377.6940002441406 -383.06298828125,-499.6940002441406 -383.06298828125,-499.6940002441406z"></path></g></g><g opacity="1" transform="matrix(1,0,0,1,0,0)"><g opacity="1" transform="matrix(1,0,0,1,0,0)"><path fill="rgb(31,32,68)" fill-opacity="1" d=" M-383.06298828125,-515.6939697265625 C-383.06298828125,-515.6939697265625 -453.06298828125,-515.6939697265625 -453.06298828125,-515.6939697265625 C-453.06298828125,-515.6939697265625 -383.06298828125,-560.6939697265625 -383.06298828125,-560.6939697265625 C-383.06298828125,-560.6939697265625 -383.06298828125,-515.6939697265625 -383.06298828125,-515.6939697265625z"></path></g></g><g opacity="1" transform="matrix(1,0,0,1,0,0)"><g opacity="1" transform="matrix(1,0,0,1,0,0)"><path fill="rgb(60,151,255)" fill-opacity="1" d=" M-453.06298828125,-560.6939697265625 C-453.06298828125,-560.6939697265625 -383.06298828125,-560.6939697265625 -383.06298828125,-560.6939697265625 C-383.06298828125,-560.6939697265625 -453.06298828125,-515.6939697265625 -453.06298828125,-515.6939697265625 C-453.06298828125,-515.6939697265625 -453.06298828125,-560.6939697265625 -453.06298828125,-560.6939697265625z"></path></g></g><g opacity="1" transform="matrix(1,0,0,1,0,0)"><g opacity="1" transform="matrix(1,0,0,1,0,0.45500001311302185)"><path fill="rgb(31,32,68)" fill-opacity="1" d=" M-550.6690063476562,-635.64501953125 C-550.6690063476562,-635.64501953125 -533.4559936523438,-635.64501953125 -533.4559936523438,-635.64501953125 C-533.4559936523438,-635.64501953125 -533.4559936523438,-628.64501953125 -533.4559936523438,-628.64501953125 C-533.4559936523438,-628.64501953125 -550.6690063476562,-628.64501953125 -550.6690063476562,-628.64501953125 C-550.6690063476562,-628.64501953125 -550.6690063476562,-635.64501953125 -550.6690063476562,-635.64501953125z"></path></g></g><g opacity="1" transform="matrix(1,0,0,1,0,0)"><g opacity="1" transform="matrix(1,0,0,1,0,0.45500001311302185)"><path fill="rgb(31,32,68)" fill-opacity="1" d=" M-517.4719848632812,-635.64501953125 C-517.4719848632812,-635.64501953125 -487.9639892578125,-635.64501953125 -487.9639892578125,-635.64501953125 C-487.9639892578125,-635.64501953125 -487.9639892578125,-628.64501953125 -487.9639892578125,-628.64501953125 C-487.9639892578125,-628.64501953125 -517.4719848632812,-628.64501953125 -517.4719848632812,-628.64501953125 C-517.4719848632812,-628.64501953125 -517.4719848632812,-635.64501953125 -517.4719848632812,-635.64501953125z"></path></g></g><g opacity="1" transform="matrix(1,0,0,1,0,0)"><g opacity="1" transform="matrix(1,0,0,1,0,0)"><path fill="rgb(31,32,68)" fill-opacity="1" d=" M-271.5710144042969,-635.64501953125 C-271.5710144042969,-635.64501953125 -234.68600463867188,-635.64501953125 -234.68600463867188,-635.64501953125 C-234.68600463867188,-635.64501953125 -234.68600463867188,-628.64501953125 -234.68600463867188,-628.64501953125 C-234.68600463867188,-628.64501953125 -271.5710144042969,-628.64501953125 -271.5710144042969,-628.64501953125 C-271.5710144042969,-628.64501953125 -271.5710144042969,-635.64501953125 -271.5710144042969,-635.64501953125z"></path></g></g><g opacity="1" transform="matrix(1,0,0,1,-512.9349975585938,-535.989013671875)"><path fill="rgb(235,239,243)" fill-opacity="1" d=" M46.313499450683594,-21.68400001525879 C46.313499450683594,-21.68400001525879 46.313499450683594,21.68400001525879 46.313499450683594,21.68400001525879 C46.313499450683594,21.68400001525879 -46.313499450683594,21.68400001525879 -46.313499450683594,21.68400001525879 C-46.313499450683594,21.68400001525879 -46.313499450683594,-21.68400001525879 -46.313499450683594,-21.68400001525879 C-46.313499450683594,-21.68400001525879 46.313499450683594,-21.68400001525879 46.313499450683594,-21.68400001525879z"></path></g><g opacity="1" transform="matrix(1,0,0,0.6568999886512756,-343.97100830078125,-553.0130004882812)"><path fill="rgb(235,239,243)" fill-opacity="1" d=" M25.513999938964844,-5.670499801635742 C25.513999938964844,-5.670499801635742 25.513999938964844,5.670499801635742 25.513999938964844,5.670499801635742 C25.513999938964844,5.670499801635742 -25.513999938964844,5.670499801635742 -25.513999938964844,5.670499801635742 C-25.513999938964844,5.670499801635742 -25.513999938964844,-5.670499801635742 -25.513999938964844,-5.670499801635742 C-25.513999938964844,-5.670499801635742 25.513999938964844,-5.670499801635742 25.513999938964844,-5.670499801635742z"></path></g><g opacity="1" transform="matrix(1,0,0,0.6568999886512756,-343.4429931640625,-536.9710083007812)"><path fill="rgb(235,239,243)" fill-opacity="1" d=" M25.513999938964844,-5.670499801635742 C25.513999938964844,-5.670499801635742 25.513999938964844,5.670499801635742 25.513999938964844,5.670499801635742 C25.513999938964844,5.670499801635742 -25.513999938964844,5.670499801635742 -25.513999938964844,5.670499801635742 C-25.513999938964844,5.670499801635742 -25.513999938964844,-5.670499801635742 -25.513999938964844,-5.670499801635742 C-25.513999938964844,-5.670499801635742 25.513999938964844,-5.670499801635742 25.513999938964844,-5.670499801635742z"></path></g><g opacity="1" transform="matrix(1,0,0,0.6568999886512756,-343.32000732421875,-522.2009887695312)"><path fill="rgb(235,239,243)" fill-opacity="1" d=" M25.513999938964844,-5.670499801635742 C25.513999938964844,-5.670499801635742 25.513999938964844,5.670499801635742 25.513999938964844,5.670499801635742 C25.513999938964844,5.670499801635742 -25.513999938964844,5.670499801635742 -25.513999938964844,5.670499801635742 C-25.513999938964844,5.670499801635742 -25.513999938964844,-5.670499801635742 -25.513999938964844,-5.670499801635742 C-25.513999938964844,-5.670499801635742 25.513999938964844,-5.670499801635742 25.513999938964844,-5.670499801635742z"></path></g></g><g opacity="1" transform="matrix(1,0,0,1,-1.3970003128051758,-7.654003143310547)"><path fill="rgb(46,147,238)" fill-opacity="1" d=" M-7.480999946594238,-44.52399826049805 C-9.182000160217285,-55.154998779296875 -12.493000030517578,-61.32600021362305 -14.913999557495117,-62.99300003051758 C-18.545000076293945,-65.49400329589844 -34.01300048828125,-64.99400329589844 -35.90999984741211,-65.4469985961914 C-37.80699920654297,-65.9000015258789 -40.81700134277344,-60.2400016784668 -38.49800109863281,-57.77399826049805 C-36.17900085449219,-55.30799865722656 -24.267000198364258,-54.707000732421875 -23.850000381469727,-50.73500061035156 C-23.433000564575195,-46.76300048828125 -27.93899917602539,-35.96699905395508 -14.885000228881836,-27.29599952697754 C-6.182000160217285,-21.514999389648438 -4.208000183105469,-27.600000381469727 -7.480999946594238,-44.52399826049805z"></path></g></g><g transform="matrix(1,0,0,1,275,275)" opacity="1" style="display: block;"><g opacity="1" transform="matrix(1,0,0,1,0.35199999809265137,0.023000000044703484)"><g opacity="1" transform="matrix(1,0,0,1,0,0)"><path fill="rgb(46,147,238)" fill-opacity="1" d=" M59.6349983215332,67.7760009765625 C70.20500183105469,77.99500274658203 80.7750015258789,92.93900299072266 91.34500122070312,103.15699768066406 C86.27300262451172,129.802001953125 95.2020034790039,152.53900146484375 83.23500061035156,162.08900451660156 C78.91200256347656,165.53500366210938 52.638999938964844,172.86199951171875 37.917999267578125,164.36900329589844 C37.58399963378906,150.5399932861328 45.1609992980957,146.42999267578125 53.237998962402344,141.23699951171875 C61.400001525878906,123.69999694824219 58.47100067138672,97.052001953125 58.6349983215332,79.7760009765625"></path></g><g opacity="1" transform="matrix(1,0,0,1,0,0)"><path fill="rgb(36,87,143)" fill-opacity="1" d=" M52.57600021362305,168.22999572753906 C54.46200180053711,160.8520050048828 58.426998138427734,154.51199340820312 67.46700286865234,150.70799255371094 C60.316001892089844,156.07200622558594 57.69599914550781,161.97799682617188 58.1870002746582,168.25999450683594 C56.31800079345703,168.33799743652344 54.4379997253418,168.33599853515625 52.57600021362305,168.22999572753906"></path></g><g opacity="1" transform="matrix(1,0,0,1,0,0)"><path fill="rgb(36,87,143)" fill-opacity="1" d=" M39.957000732421875,165.39999389648438 C41.874000549316406,158.1479949951172 45.85300064086914,151.92599487304688 54.770999908447266,148.17100524902344 C47.02799987792969,153.97999572753906 44.5880012512207,160.42799377441406 45.672000885009766,167.2949981689453 C43.66699981689453,166.8419952392578 41.749000549316406,166.21400451660156 39.957000732421875,165.39999389648438"></path></g></g><g opacity="1" transform="matrix(1,0.00013233332720119506,-0.00013233332720119506,1,-0.00457763671875,-0.028629302978515625)"><g opacity="1" transform="matrix(1,0,0,1,0.18299999833106995,0.2029999941587448)"><path fill="rgb(46,147,238)" fill-opacity="1" d=" M181.21099853515625,29.275999069213867 C181.3070068359375,31.968000411987305 182.0850067138672,34.62799835205078 183.73199462890625,37.24399948120117 C186.22999572753906,41.2130012512207 187.677001953125,40.737998962402344 181.43699645996094,44.14699935913086 C177.49099731445312,46.30400085449219 172.4720001220703,47.792999267578125 166.59800720214844,48.75 C157.80999755859375,50.185001373291016 159.86399841308594,49.20199966430664 163.74200439453125,40.99300003051758 C165.61199951171875,37.02000045776367 167.593994140625,33.430999755859375 169.73699951171875,30.43000030517578 C178.23300170898438,18.52899932861328 180.85800170898438,19.339000701904297 181.21099853515625,29.275999069213867"></path></g><g opacity="1" transform="matrix(1,0,0,1,0.13699999451637268,0)"><path fill="rgb(46,147,238)" fill-opacity="1" d=" M212.35899353027344,25.17099952697754 C215.5489959716797,31.114999771118164 210.656005859375,32.047000885009766 204.3419952392578,34.25299835205078 C202.0070037841797,35.06700134277344 199.58799743652344,35.60599899291992 197.08900451660156,35.87099838256836 C189.98599243164062,36.637001037597656 191.82899475097656,35.61000061035156 194.9320068359375,29.8700008392334 C196.77099609375,26.46500015258789 198.8419952392578,23.058000564575195 201.21400451660156,19.65399932861328 C213.625,1.8200000524520874 207.6959991455078,16.47100067138672 212.35899353027344,25.17099952697754"></path></g><g opacity="1" transform="matrix(1,0,0,1,0.13699999451637268,0)"><path fill="rgb(46,147,238)" fill-opacity="1" d=" M239.23599243164062,22.503999710083008 C239.19900512695312,23.80699920654297 239.2469940185547,25.17099952697754 239.38400268554688,26.597000122070312 C239.85400390625,31.545000076293945 240.40699768066406,30.709999084472656 234.27499389648438,31.256999969482422 C231.35000610351562,31.520000457763672 228.4929962158203,31.5310001373291 226.0970001220703,31.173999786376953 C218.27699279785156,30.003000259399414 221.12899780273438,27.280000686645508 225.19900512695312,22.738000869750977 C226.57000732421875,21.214000701904297 228.10000610351562,19.775999069213867 229.81700134277344,18.45400047302246 C245.26699829101562,6.563000202178955 239.44400024414062,14.927000045776367 239.23599243164062,22.503999710083008"></path></g><g opacity="1" transform="matrix(1,0,0,1,0,0)"><path fill="rgb(46,147,238)" fill-opacity="1" d=" M135.79100036621094,-151.6300048828125 C135.79100036621094,-151.6300048828125 180.052001953125,-128.8350067138672 179.66200256347656,-121.6259994506836 C179.2729949951172,-114.41699981689453 167.1820068359375,-115.39199829101562 162.3090057373047,-105.6500015258789 C162.3090057373047,-105.6500015258789 189.41099548339844,-86.9469985961914 187.656005859375,-78.3740005493164 C185.90199279785156,-69.8010025024414 168.5489959716797,-72.91899871826172 164.06300354003906,-66.0989990234375 C164.06300354003906,-66.0989990234375 168.3489990234375,-49.0369987487793 164.4499969482422,-42.803001403808594 C160.5500030517578,-36.56700134277344 161.13900756835938,-41.941001892089844 155.67999267578125,-33.95199966430664 C155.67999267578125,-33.95199966430664 158.60400390625,-97.66300201416016 135.79100036621094,-151.6300048828125"></path></g><g opacity="1" transform="matrix(1,0,0,1,1.0429999828338623,0.3050000071525574)"><path fill="rgb(46,147,238)" fill-opacity="1" d=" M145.08200073242188,-130.91400146484375 C129.56500244140625,-116.1050033569336 109.75199890136719,-106.78500366210938 91.8270034790039,-95.34400177001953 C79.58699798583984,-87.53299713134766 68.44599914550781,-78.78099822998047 59.69599914550781,-67.06900024414062 C48.946998596191406,-52.68899917602539 55.11899948120117,-35.74599838256836 52.66699981689453,-18.107999801635742 C51.832000732421875,-12.109000205993652 51.42399978637695,-6.0370001792907715 51.18000030517578,0.014000000432133675 C50.736000061035156,11.027999877929688 51.018001556396484,22.094999313354492 52.143001556396484,33.069000244140625 C54.84600067138672,59.36600112915039 56.20899963378906,80.76000213623047 74.75299835205078,100.43199920654297 C97.93699645996094,125.02999877929688 122.93399810791016,126.75199890136719 151.85800170898438,105.51899719238281 C163.0659942626953,97.28900146484375 170.9980010986328,96.1760025024414 180.0050048828125,85.67900085449219 C185.91799926757812,78.78600311279297 193.9080047607422,72.93900299072266 199.9429931640625,66.14800262451172 C206.69700622558594,58.54899978637695 214.13499450683594,50.39400100708008 228.11599731445312,47.388999938964844 C239.8249969482422,44.87200164794922 247.0290069580078,48.948001861572266 252.52000427246094,51.45199966430664 C255.36900329589844,52.75299835205078 259.25201416015625,55.266998291015625 262.4100036621094,52.757999420166016 C263.7460021972656,51.70000076293945 264.07501220703125,50.19599914550781 263.4939880371094,48.803001403808594 C261.9079895019531,44.99399948120117 259.5199890136719,41.47600173950195 256.2019958496094,38.446998596191406 C239.13099670410156,22.849000930786133 211.60699462890625,22.496999740600586 191.0189971923828,33.4739990234375 C183.2429962158203,37.62300109863281 174.7760009765625,42.35100173950195 165.81199645996094,42.939998626708984 C159.4739990234375,43.356998443603516 153.03700256347656,42.165000915527344 148.11500549316406,37.91400146484375 C144.072998046875,34.42300033569336 141.8560028076172,29.555999755859375 140.85499572753906,24.38800048828125 C139.4040069580078,16.892000198364258 139.96299743652344,9.890999794006348 142.36900329589844,2.6610000133514404 C145.71499633789062,-7.377999782562256 151.7259979248047,-16.492000579833984 155.60499572753906,-26.389999389648438 C168.84300231933594,-60.15700149536133 173.1320037841797,-98.62999725341797 151.85800170898438,-130.18099975585938 C151.85800170898438,-130.18099975585938 148.9040069580078,-134.55999755859375 148.9040069580078,-134.55999755859375 C148.9040069580078,-134.55999755859375 145.08200073242188,-130.91400146484375 145.08200073242188,-130.91400146484375z"></path></g><g opacity="1" transform="matrix(1,0,0,1,0.37700000405311584,0.574999988079071)"><path fill="rgb(255,207,0)" fill-opacity="1" d=" M224.46200561523438,48.88999938964844 C209.54299926757812,56.34400177001953 193.71200561523438,73.03299713134766 178.46200561523438,91.12699890136719 C158.57000732421875,114.7300033569336 108.84100341796875,149.51199340820312 67.81400299072266,94.85299682617188 C29.172000885009766,43.369998931884766 47.3650016784668,-28.78499984741211 49.61199951171875,-37 C49.696998596191406,-37.277000427246094 49.784000396728516,-37.55500030517578 49.87099838256836,-37.832000732421875 C51.17399978637695,-39.50400161743164 85.63200378417969,-83.43800354003906 117.19599914550781,-89.90399932861328 C125.61299896240234,-82.59700012207031 127.24800109863281,-69.73699951171875 116.03800201416016,-47.560001373291016 C97.18099975585938,-10.258999824523926 82.1050033569336,44.13800048828125 115.625,77.55500030517578 C120.65899658203125,82.56999969482422 126.5979995727539,86.54299926757812 133.47799682617188,88.80999755859375 C157.31199645996094,96.66600036621094 169.93099975585938,82.21900177001953 184.8350067138672,68.29000091552734 C197.11599731445312,56.8129997253418 210.41700744628906,50.97600173950195 224.46200561523438,48.88999938964844"></path></g><g opacity="1" transform="matrix(1,0,0,1,0,0)"><path fill="rgb(236,169,62)" fill-opacity="1" d=" M180.91299438476562,88.25299835205078 C180.0919952392578,89.20600128173828 179.27499389648438,90.16300201416016 178.46200561523438,91.12699890136719 C178.093994140625,91.56400299072266 177.71200561523438,92.00700378417969 177.322998046875,92.44999694824219 C177.91400146484375,88.49099731445312 177.8280029296875,84.64199829101562 176.25,81.97100067138672 C176.25,81.97100067138672 178.68899536132812,84.73999786376953 180.91299438476562,88.25299835205078"></path></g><g opacity="1" transform="matrix(1,0,0,1,0,0)"><path fill="rgb(236,169,62)" fill-opacity="1" d=" M164.36599731445312,104.93000030517578 C162.6479949951172,106.33100128173828 160.8509979248047,107.70500183105469 158.99000549316406,109.03700256347656 C160.26400756835938,103.06700134277344 160.8070068359375,96.8550033569336 158.7989959716797,93.36900329589844 C161.41200256347656,97.90399932861328 163.39500427246094,101.60800170898438 164.36599731445312,104.93000030517578"></path></g><g opacity="1" transform="matrix(1,0,0,1,0,0)"><path fill="rgb(236,169,62)" fill-opacity="1" d=" M196.8350067138672,70.96700286865234 C195.56199645996094,72.25599670410156 194.28700256347656,73.57099914550781 193.00999450683594,74.90599822998047 C193.04400634765625,72.28600311279297 192.8070068359375,69.50199890136719 192.12600708007812,66.6500015258789 C192.12600708007812,66.6500015258789 194.4600067138672,68.40899658203125 196.8350067138672,70.96700286865234"></path></g><g opacity="1" transform="matrix(1,0,0,1,0,0.32899999618530273)"><path fill="rgb(236,169,62)" fill-opacity="1" d=" M130.25,91.49099731445312 C130.25,91.49099731445312 122.8479995727539,108.86900329589844 106.2229995727539,122.64700317382812 C103.08100128173828,121.91999816894531 99.92500305175781,120.87200164794922 96.76699829101562,119.46800231933594 C105.85600280761719,115.29199981689453 121.22799682617188,106.46299743652344 130.25,91.49099731445312"></path></g><g opacity="1" transform="matrix(1,0,0,1,0.3370000123977661,0.32899999618530273)"><path fill="rgb(236,169,62)" fill-opacity="1" d=" M63.202999114990234,88.18399810791016 C72.76699829101562,86.96800231933594 89.16000366210938,83.26000213623047 103.0199966430664,71.91400146484375 C103.0199966430664,71.91400146484375 93.18900299072266,89.125 67.81300354003906,94.85099792480469 C66.1719970703125,92.66500091552734 64.64399719238281,90.43900299072266 63.202999114990234,88.18399810791016"></path></g><g opacity="1" transform="matrix(1,0,0,1,0.5860000252723694,0.32899999618530273)"><path fill="rgb(236,169,62)" fill-opacity="1" d=" M92.33999633789062,43.32600021362305 C72.69100189208984,37.0359992980957 54.19900131225586,40.75899887084961 46.051998138427734,43.27000045776367 C45.65800094604492,41.11800003051758 45.310001373291016,38.97700119018555 45.012001037597656,36.847999572753906 C75.34400177001953,29.73900032043457 92.33999633789062,43.32600021362305 92.33999633789062,43.32600021362305"></path></g><g opacity="1" transform="matrix(1,0,0,1,0.5860000252723694,0.32899999618530273)"><path fill="rgb(236,169,62)" fill-opacity="1" d=" M44.09299850463867,-4.031000137329102 C44.31100082397461,-6.630000114440918 44.569000244140625,-9.121000289916992 44.854000091552734,-11.491999626159668 C44.854000091552734,-11.493000030517578 44.854000091552734,-11.494000434875488 44.854000091552734,-11.494999885559082 C76.97799682617188,-12.276000022888184 93.53399658203125,3.322000026702881 93.53399658203125,3.322000026702881 C74.3270034790039,-7.150000095367432 53.95399856567383,-5.666999816894531 44.09299850463867,-4.031000137329102"></path></g><g opacity="1" transform="matrix(1,0,0,1,0,0)"><path fill="rgb(236,169,62)" fill-opacity="1" d=" M56.7859992980957,-46.0880012512207 C58.03799819946289,-47.512001037597656 59.43899917602539,-49.06999969482422 60.96900177001953,-50.724998474121094 C95.11399841308594,-50.715999603271484 104.3290023803711,-34.87799835205078 104.3290023803711,-34.87799835205078 C84.61499786376953,-47.33700180053711 64.91600036621094,-46.948001861572266 56.7859992980957,-46.0880012512207"></path></g><g opacity="1" transform="matrix(1,0,0,1,0.5920000076293945,0.2919999957084656)"><path fill="rgb(236,169,62)" fill-opacity="1" d=" M48.33700180053711,-31.85099983215332 C49.1609992980957,-32.345001220703125 49.98099899291992,-32.8489990234375 50.77899932861328,-33.36800003051758 C61.691001892089844,-40.47200012207031 109.6458740234375,-69.51206970214844 123.72386932373047,-77.84906768798828 C124.03784942626953,-75.91624450683594 124.17671966552734,-73.87596130371094 123.87387084960938,-71.4250717163086 C108.94987487792969,-50.914066314697266 75.84037780761719,-15.98363208770752 44.55837631225586,-8.901632308959961"></path></g><g opacity="1" transform="matrix(0.9979671239852905,-0.0637311115860939,0.0637311115860939,0.9979671239852905,-2.0077362060546875,12.409637451171875)"><g opacity="1" transform="matrix(1,0,0,1,-16,-3.999000072479248)"><path fill="rgb(36,87,143)" fill-opacity="1" d=" M116.59500122070312,60.95899963378906 C108.0250015258789,54.51900100708008 96.71399688720703,50.30500030517578 114.16699981689453,39.0629997253418 C114.4800033569336,38.861000061035156 118.71700286865234,37.31999969482422 119.02300262451172,37.117000579833984 C138.6699981689453,24.08099937438965 138.0449981689453,12.401000022888184 151.3719940185547,-0.3630000054836273 C155.41799926757812,-4.23799991607666 163.51499938964844,19.986000061035156 163.53399658203125,37.01599884033203 C165.96200561523438,39.935001373291016 167.79600524902344,42.167999267578125 172.71800231933594,44.03799819946289 C160.281005859375,50.70100021362305 142.01400756835938,58.34400177001953 116.59500122070312,60.95899963378906z"></path></g><g opacity="1" transform="matrix(1,0,0,1,-16,-3.999000072479248)"><path fill="rgb(36,87,143)" fill-opacity="1" d=" M168.99000549316406,-16.33099937438965 C170.6840057373047,13.368000030517578 153.04100036621094,16.051000595092773 152.8719940185547,16.839000701904297 C152.8719940185547,16.839000701904297 144.23500061035156,-35.145999908447266 153.01600646972656,-44.62799835205078 C157.8070068359375,-49.80099868774414 165.95700073242188,-25.27199935913086 168.99000549316406,-16.27400016784668"></path></g><g opacity="1" transform="matrix(0.9999998807907104,0.0005235987482592463,-0.0005235987482592463,0.9999998807907104,-16,-3.999000072479248)"><path fill="rgb(46,147,238)" fill-opacity="1" d=" M157.8719940185547,-2.2960000038146973 C153.8470001220703,0.40700000524520874 153.01600646972656,2.569000005722046 145.24600219726562,13.27400016784668 C137.4759979248047,23.979000091552734 127.76399993896484,33.709999084472656 105.4260025024414,43.44200134277344 C83.08799743652344,53.17399978637695 110.28199768066406,64.85099792480469 110.28199768066406,64.85099792480469 C110.28199768066406,64.85099792480469 198.3730010986328,33.63100051879883 198.1790008544922,11.814000129699707 C198.1790008544922,9.111000061035156 190.61300659179688,-38.30400085449219 184.09500122070312,-60.19900131225586 C180.6199951171875,-71.8740005493164 162.88800048828125,-78.39099884033203 150.83700561523438,-66.75800323486328 C140.38999938964844,-51.441001892089844 157.8719940185547,-2.2960000038146973 157.8719940185547,-2.2960000038146973z"></path></g><g opacity="1" transform="matrix(1,0,0,1,-15.906999588012695,-3.9779999256134033)"><path fill="rgb(46,147,238)" fill-opacity="1" d=" M122.86599731445312,42.840999603271484 C122.86599731445312,42.840999603271484 124.2490005493164,55.91299819946289 111.12200164794922,63.540000915527344 C97.99500274658203,71.16699981689453 88.7300033569336,72.69200134277344 75.60299682617188,68.11599731445312 C75.60299682617188,68.11599731445312 66.33599853515625,65.8290023803711 64.0199966430664,59.72700119018555 C63.35499954223633,57.75600051879883 63.65999984741211,54.98400115966797 64.59400177001953,53.986000061035156 C64.93499755859375,53.62099838256836 65.63099670410156,53.64899826049805 66.68000030517578,54.06999969482422 C65.73899841308594,52.60499954223633 65.21700286865234,51.270999908447266 65.11399841308594,50.069000244140625 C65.03199768066406,49.112998962402344 65.13400268554688,46.915000915527344 65.58200073242188,46.125 C65.927001953125,45.51599884033203 67.84400177001953,45.3120002746582 68.39600372314453,45.0099983215332 C68.59600067138672,44.900001525878906 68.93900299072266,44.72100067138672 69.42500305175781,44.472999572753906 C69.08100128173828,43.45399856567383 69.0270004272461,42.4119987487793 69.18800354003906,41.430999755859375 C69.26699829101562,40.948001861572266 69.65299987792969,38.26300048828125 70.02999877929688,37.77299880981445 C70.2959976196289,37.428001403808594 72.0270004272461,36.9739990234375 72.37300109863281,36.803001403808594 C73.4000015258789,36.29600143432617 74.54199981689453,36.23699951171875 75.60299682617188,36.84600067138672 C77.20999908447266,37.768001556396484 81.00800323486328,39.89699935913086 85.64099884033203,41.422000885009766 C88.7300033569336,41.422000885009766 94.13400268554688,40.659000396728516 98.76699829101562,38.37099838256836 C94.64900207519531,29.726999282836914 94.39199829101562,24.388999938964844 97.99500274658203,22.354999542236328 C99.18800354003906,21.68199920654297 100.13999938964844,21.47800064086914 100.91100311279297,21.589000701904297 C101.10399627685547,21.617000579833984 101.16300201416016,21.069000244140625 102.64600372314453,20.086000442504883 C104.62300109863281,22.54199981689453 104.38099670410156,26.76799964904785 104.94400024414062,27.694000244140625 C107.26000213623047,31.506999969482422 109.23500061035156,31.062000274658203 111.12200164794922,33.03200149536133 C119.6259994506836,41.90800094604492 122.86599731445312,42.840999603271484 122.86599731445312,42.840999603271484z"></path></g></g><g opacity="1" transform="matrix(1,0,0,1,0.3409999907016754,0.4959999918937683)"><g opacity="1" transform="matrix(1,0,0,1,0,0)"><path fill="rgb(46,147,238)" fill-opacity="1" d=" M141.9929962158203,-137.73199462890625 C141.9929962158203,-137.73199462890625 132.75900268554688,-192.15899658203125 110.14099884033203,-193.093994140625 C95.27799987792969,-193.70899963378906 87.79299926757812,-174.7740020751953 87.79299926757812,-174.7740020751953 C87.79299926757812,-174.7740020751953 75.74800109863281,-175.5749969482422 62.09700012207031,-167.1510009765625 C62.09700012207031,-167.1510009765625 57.94900131225586,-174.63999938964844 50.85599899291992,-172.23199462890625 C43.76300048828125,-169.8260040283203 36.1349983215332,-154.0469970703125 38.94499969482422,-128.10499572753906 C38.94499969482422,-128.10499572753906 28.639999389648438,-127.16799926757812 22.750999450683594,-117.00499725341797 C22.750999450683594,-117.00499725341797 25.82900047302246,-112.45800018310547 30.513999938964844,-112.05699920654297 C35.196998596191406,-111.65599822998047 55.40700149536133,-119.01200103759766 60.893001556396484,-114.197998046875 C66.38099670410156,-109.38300323486328 68.78900146484375,-105.77200317382812 68.12000274658203,-96.94599914550781 C68.12000274658203,-96.94599914550781 90.33499908447266,-99.08699798583984 100.37200164794922,-111.79000091552734 C110.41000366210938,-124.49299621582031 118.83999633789062,-149.0989990234375 141.9929962158203,-137.73199462890625"></path></g><g opacity="1" transform="matrix(1,0,0,1,0,0)"><path fill="rgb(241,241,242)" fill-opacity="1" d=" M65.0999984741211,-133.80299377441406 C65.0999984741211,-133.80299377441406 59.542999267578125,-152.0679931640625 48.867000579833984,-157.1820068359375 C48.867000579833984,-157.1820068359375 48.33100128173828,-142.47300720214844 45.99100112915039,-130.7830047607422 C45.99100112915039,-130.7830047607422 53.69300079345703,-132.63400268554688 65.0999984741211,-133.80299377441406"></path></g><g opacity="1" transform="matrix(1,0,0,1,0,0)"><path fill="rgb(241,241,242)" fill-opacity="1" d=" M113.40699768066406,-171.25900268554688 C113.40699768066406,-171.25900268554688 99.66000366210938,-164.6840057373047 90.59300231933594,-136.19000244140625 C90.59300231933594,-136.19000244140625 112.23699951171875,-139.6959991455078 121.74299621582031,-138.96600341796875 C121.74299621582031,-138.96600341796875 112.96800231933594,-155.18499755859375 113.40699768066406,-171.25900268554688"></path></g><g opacity="1" transform="matrix(1,0,0,1,-3.0120010375976562,2.983001708984375)"><path fill="rgb(36,87,143)" fill-opacity="1" d=" M105.62699890136719,-158.51199340820312 C102.2760009765625,-158.51199340820312 99.55799865722656,-154.7740020751953 99.55799865722656,-150.15899658203125 C99.55799865722656,-145.54600524902344 102.2760009765625,-141.8070068359375 105.62699890136719,-141.8070068359375 C108.97799682617188,-141.8070068359375 111.69400024414062,-145.54600524902344 111.69400024414062,-150.15899658203125 C111.69400024414062,-154.7740020751953 108.97799682617188,-158.51199340820312 105.62699890136719,-158.51199340820312"></path></g><g opacity="1" transform="matrix(1,0,0,1,-3.0120010375976562,2.9829864501953125)"><path fill="rgb(36,87,143)" fill-opacity="1" d=" M55.9010009765625,-148.5709991455078 C53.35599899291992,-148.5709991455078 51.29399871826172,-145.70599365234375 51.29399871826172,-142.1719970703125 C51.29399871826172,-138.63800048828125 53.35599899291992,-135.7729949951172 55.9010009765625,-135.7729949951172 C58.44599914550781,-135.7729949951172 60.507999420166016,-138.63800048828125 60.507999420166016,-142.1719970703125 C60.507999420166016,-145.70599365234375 58.44599914550781,-148.5709991455078 55.9010009765625,-148.5709991455078z"></path></g><g opacity="1" transform="matrix(1,0,0,1,0.4729999899864197,0.32899999618530273)"><path fill="rgb(244,121,36)" fill-opacity="1" d=" M136.3000030517578,-126.9432601928711 C127.54977416992188,-136.02711486816406 114.86054992675781,-123.56755065917969 114.86054992675781,-123.56755065917969 C114.86054992675781,-123.56755065917969 117.14864349365234,-120.07463073730469 117.14864349365234,-120.07463073730469 C122.8316421508789,-122.80963134765625 121.36609649658203,-121.38899993896484 121.36609649658203,-121.38899993896484 C107.03509521484375,-101.37100219726562 82.11199951171875,-83.44000244140625 65.44100189208984,-77.59500122070312 C48.76900100708008,-71.75 39.99599838256836,-78.32499694824219 39.99599838256836,-78.32499694824219 C39.99599838256836,-78.32499694824219 18.703807830810547,-61.09973907470703 15.486807823181152,-54.37874221801758 C12.269807815551758,-47.656742095947266 22.200822830200195,-40.1293830871582 30.53582191467285,-37.93638610839844 C38.871822357177734,-35.745384216308594 51.823726654052734,-34.8804817199707 90.13772583007812,-61.03647994995117 C128.45172119140625,-87.1924819946289 132.5332794189453,-111.96855163574219 132.5332794189453,-111.96855163574219 C137.4032745361328,-112.6845474243164 135.99807739257812,-101.7121810913086 135.99807739257812,-101.7121810913086 C135.99807739257812,-101.7121810913086 145.5,-117.39298248291016 136.3000030517578,-126.9432601928711z"></path></g><g opacity="1" transform="matrix(1,0,0,1,0,0)"><path fill="rgb(224,84,6)" fill-opacity="1" d=" M128.1881866455078,-96.99701690673828 C128.1881866455078,-96.99701690673828 89.18099975585938,-103.31300354003906 61.6879997253418,-77.39900207519531 C61.6879997253418,-77.39900207519531 65.97699737548828,-79.73699951171875 65.97699737548828,-79.73699951171875 C65.97699737548828,-79.73699951171875 46.284000396728516,-80.71099853515625 43.55400085449219,-77.98400115966797 C40.82500076293945,-75.25599670410156 23.510629653930664,-66.21209716796875 21.462629318237305,-43.12509536743164 C20.865629196166992,-36.39909744262695 40.284000396728516,-27.881999969482422 75.72200012207031,-45.51300048828125 C97.81199645996094,-56.505001068115234 127.24199676513672,-86.32099914550781 127.24199676513672,-86.32099914550781 C127.24199676513672,-86.32099914550781 128.1881866455078,-96.99701690673828 128.1881866455078,-96.99701690673828z"></path></g><g opacity="1" transform="matrix(1,0,0,1,0,0)"><path fill="rgb(255,255,255)" fill-opacity="1" d=" M41.60499954223633,-78.47100067138672 C41.60499954223633,-78.47100067138672 46.37699890136719,-58.917999267578125 53.742000579833984,-61.082000732421875 C56.22800064086914,-61.8120002746582 55.20500183105469,-67.36599731445312 56.229000091552734,-71.16600036621094 C57.25199890136719,-74.96499633789062 60.029998779296875,-82.2699966430664 60.029998779296875,-82.2699966430664 C60.029998779296875,-82.2699966430664 41.60499954223633,-78.47100067138672 41.60499954223633,-78.47100067138672z"></path></g><g opacity="1" transform="matrix(1,0,0,1,0,0)"><path fill="rgb(255,255,255)" fill-opacity="1" d=" M5.110000133514404,-85.86100006103516 C5.110000133514404,-85.86100006103516 6.6539998054504395,-65.79499816894531 14.27299976348877,-66.73899841308594 C16.8439998626709,-67.05899810791016 16.732999801635742,-72.7040023803711 18.357999801635742,-76.28700256347656 C19.982999801635742,-79.87100219726562 23.909000396728516,-86.63200378417969 23.909000396728516,-86.63200378417969 C23.909000396728516,-86.63200378417969 5.110000133514404,-85.86100006103516 5.110000133514404,-85.86100006103516z"></path></g><g opacity="1" transform="matrix(1,0,0,1,0,0)"><path fill="rgb(255,207,0)" fill-opacity="1" d=" M-2.997999906539917,-103.45800018310547 C-2.01200008392334,-117.572998046875 16.63599967956543,-123.78399658203125 30.312000274658203,-113.84600067138672 C41.500999450683594,-116.33100128173828 53.93299865722656,-123.78299713134766 65.12200164794922,-112.60299682617188 C73.03800201416016,-104.69499969482422 68.51200103759766,-97.0780029296875 68.51200103759766,-97.0780029296875 C68.51200103759766,-97.0780029296875 91.76399993896484,-100.8280029296875 99.80599975585938,-112.66400146484375 C107.8499984741211,-124.4990005493164 118.23300170898438,-140.32899475097656 129.63999938964844,-141.4499969482422 C135.63099670410156,-142.03900146484375 145.7239990234375,-142.91099548339844 151.5749969482422,-131.51300048828125 C157.4239959716797,-120.11699676513672 160.36245727539062,-99.3572998046875 117.07545471191406,-66.77330017089844 C73.7894515991211,-34.18730163574219 54.688453674316406,-25.40830421447754 45.27345275878906,-25.420303344726562 C33.232452392578125,-25.43730354309082 32.500450134277344,-29.909303665161133 18.658451080322266,-31.84930419921875 C11.590452194213867,-32.83930206298828 6.263996124267578,-44.970558166503906 13.986177444458008,-55.316741943359375 C21.73103904724121,-65.69450378417969 39.99599838256836,-78.32599639892578 39.99599838256836,-78.32599639892578 C39.99599838256836,-78.32599639892578 20.446081161499023,-61.57956314086914 17.23008155822754,-54.85756301879883 C14.013081550598145,-48.13656234741211 23.484451293945312,-43.831302642822266 31.8194522857666,-41.64030456542969 C40.155452728271484,-39.449302673339844 50.83045196533203,-37.10930252075195 89.14445495605469,-63.26630401611328 C127.45845031738281,-89.42230224609375 131.5457305908203,-115.70609283447266 131.5457305908203,-115.70609283447266 C136.4157257080078,-116.4220962524414 136.98463439941406,-105.94200134277344 136.98463439941406,-105.94200134277344 C136.98463439941406,-105.94200134277344 142.5617218017578,-118.15262603759766 135.05673217773438,-125.40962982177734 C125.9897232055664,-134.17762756347656 116.6240005493164,-123.33200073242188 116.6240005493164,-123.33200073242188 C116.6240005493164,-123.33200073242188 117.18800354003906,-123.29100036621094 117.18800354003906,-123.29100036621094 C122.87200164794922,-126.02799987792969 123.64399719238281,-121.13899993896484 123.64399719238281,-121.13899993896484 C109.31199645996094,-101.12000274658203 82.11199951171875,-83.43900299072266 65.44000244140625,-77.59400177001953 C48.76900100708008,-71.7490005493164 39.99599838256836,-78.32599639892578 39.99599838256836,-78.32599639892578 C39.99599838256836,-78.32599639892578 22.301000595092773,-78.61799621582031 16.30500030517578,-80.2239990234375 C10.309000015258789,-81.83100128173828 -4.334000110626221,-84.3280029296875 -2.997999906539917,-103.45800018310547"></path></g><g opacity="1" transform="matrix(1,0,0,1,0,0)"><path fill="rgb(236,169,62)" fill-opacity="1" d=" M52.5629997253418,-104.9540023803711 C48.672000885009766,-106.20600128173828 45.67599868774414,-100.96399688720703 50.808998107910156,-98.6719970703125 C51.529998779296875,-96.74199676513672 50.36899948120117,-94.62999725341797 47.21900177001953,-93.88300323486328 C57.17900085449219,-91.83100128173828 57.577999114990234,-103.14399719238281 52.5629997253418,-104.9540023803711"></path></g><g opacity="1" transform="matrix(1,0,0,1,0,0)"><path fill="rgb(236,169,62)" fill-opacity="1" d=" M8.58899974822998,-106.56400299072266 C11.800000190734863,-107.5989990234375 14.272000312805176,-103.27300262451172 10.03600025177002,-101.38099670410156 C9.4399995803833,-99.78800201416016 10.39799976348877,-98.04499816894531 12.99899959564209,-97.42900085449219 C4.7789998054504395,-95.73699951171875 4.448999881744385,-105.0719985961914 8.58899974822998,-106.56400299072266"></path></g><g opacity="1" transform="matrix(1,0,0,1,0,0)"><path fill="rgb(46,147,238)" fill-opacity="1" d=" M47.625,-166.875 C47.625,-166.875 47.625,-158.625 47.625,-158.625 C47.625,-158.625 56.67599868774414,-152.2270050048828 58.7130012512207,-149.67599487304688 C60.75,-147.125 66.625,-133.375 66.625,-133.375 C66.625,-133.375 72.5,-137.5 72.5,-137.5 C72.5,-137.5 47.625,-166.875 47.625,-166.875z"></path></g><g opacity="1" transform="matrix(1,0,0,1,0,0)"><path fill="rgb(46,147,238)" fill-opacity="1" d=" M111.5,-184.5 C111.5,-184.5 114.625,-173.5 114.625,-173.5 C114.625,-173.5 102.25,-162.5 98.71299743652344,-156.67599487304688 C97.01899719238281,-153.88600158691406 89.625,-136 89.625,-136 C89.625,-136 84.5,-138.625 84.5,-138.625 C84.5,-138.625 111.5,-184.5 111.5,-184.5z"></path></g></g></g><g opacity="1" transform="matrix(1,0,0,1,0,0)"><g opacity="1" transform="matrix(1,0,0,1,0,0)"><path fill="rgb(46,147,238)" fill-opacity="1" d=" M119.49500274658203,77.49800109863281 C117.25,85.5 120.34300231933594,99.01899719238281 123.7969970703125,109.03099822998047 C127.93199920654297,121.02100372314453 130.04100036621094,136.17300415039062 130.0189971923828,143.1060028076172 C129.9770050048828,158.19000244140625 124.25399780273438,162.73199462890625 131.27999877929688,168.62399291992188 C137.3769989013672,173.73599243164062 154.81100463867188,181.06900024414062 169.60400390625,179.3000030517578 C181.79400634765625,176.5449981689453 182.1300048828125,151.48899841308594 162.69900512695312,145.0959930419922 C157.2969970703125,133.39500427246094 157.54100036621094,121.44599914550781 157.96200561523438,108.95800018310547 C158.2429962158203,100.50900268554688 161.48199462890625,90.01499938964844 155.8300018310547,81.6760025024414 C155.8300018310547,81.6760025024414 150.3300018310547,85.4260025024414 150.3300018310547,85.4260025024414 C143.75,86 141.41299438476562,83.63099670410156 135.2899932861328,84.43399810791016 C127.72000122070312,85.4219970703125 120.97599792480469,72.21900177001953 119.49500274658203,77.49800109863281z"></path></g><g opacity="1" transform="matrix(1,0,0,1,0,0.0860000029206276)"><path fill="rgb(36,87,143)" fill-opacity="1" d=" M158.0189971923828,179.06500244140625 C156.28799438476562,178.822998046875 154.57200622558594,178.49899291992188 152.88499450683594,178.11300659179688 C154.19500732421875,170.84800720214844 152.61599731445312,164.01800537109375 146.8280029296875,157.82699584960938 C154.77499389648438,162.3719940185547 157.3990020751953,170.11599731445312 158.0189971923828,179.06500244140625"></path></g><g opacity="1" transform="matrix(1,0,0,1,0,0.0860000029206276)"><path fill="rgb(36,87,143)" fill-opacity="1" d=" M169.8090057373047,179.24200439453125 C171.30799865722656,171.63800048828125 169.86599731445312,163.0019989013672 163.9250030517578,156.64999389648438 C171.32699584960938,160.88400268554688 174.11199951171875,167.89100646972656 174.96200561523438,176.06399536132812 C173.6269989013672,177.6009979248047 171.8979949951172,178.7239990234375 169.8090057373047,179.24200439453125"></path></g></g></g></g></svg>