<svg xmlns="http://www.w3.org/2000/svg" viewBox="0 0 158 167.7">
  <path fill="black" d="M116 65.1c2.8-26-4.9-41.7-12-44.1-7-2.4-11.2 5-11.2 5-13.6-8.4-25.7-7.6-25.7-7.6S59.6-.5 44.8.1c-19.4.8-29 41-31.3 52.4a17.4 17.4 0 0 0-10.2 9.2c-5.8 11.4-8.8 32.2 34.5 64.7 43.3 32.6 62.4 41.4 71.8 41.4 12 0 12.8-4.5 26.6-6.4 7.1-1 12.4-13.2 4.8-23.6-7.7-10.4-26-23-26-23s12.2-.2 19.8-1.2l.1.4a39 39 0 0 0 1.3 3c.8 1.8 1.1 4 1.7 6 .2 1 .5 1.8 1 2.5.3.7 1 1.2 1.8 1.4 2 .2 3.8-1 5-2.6 1.3-1.7 2.3-4 3-6.3a53 53 0 0 0 1.6-9.2v-.4c4.7-3.1 8.3-8.6 7.7-18.6-.8-11.8-13.8-18-26-14.1-6-9.7-16-10.6-16-10.6Zm-13.7 23.2c4-1.3 7 4 1.8 6.2-.7 2 .4 4 3.6 4.8-10 2-10.4-9.2-5.4-11Zm39.7 7.5c2.6-.6 3.6-2.4 3-4-4.3-1.9-1.8-6.2 1.4-5.2 4.1 1.5 3.7 10.9-4.4 9.2ZM41.6 22s13.7 6.5 22.8 35c0 0-21.6-3.5-31.1-2.8 0 0 8.7-16.2 8.3-32.2Zm4.7 24c0 4.6 2.7 8.4 6 8.4 3.4 0 6.2-3.8 6.2-8.4 0-4.6-2.8-8.3-6.1-8.3-3.4 0-6 3.7-6 8.3Zm43.6 13.4s5.6-18.3 16.2-23.4c0 0 .6 14.7 3 26.4 0 0-7.8-1.8-19.2-3Zm7.6-5.4c0 3.6 2 6.4 4.6 6.4 2.6 0 4.6-2.8 4.6-6.4 0-3.5-2-6.4-4.6-6.4-2.5 0-4.6 2.9-4.6 6.4Zm15.8 60.8s-4.8 19.6-12.1 17.4c-2.5-.7-1.5-6.3-2.5-10-1-3.9-3.8-11.2-3.8-11.2Zm36.5-6s-1.5 18.7-9.2 17.8c-2.5-.3-2.4-6-4-9.6-1.7-3.6-1.4-3.3-1.4-3.3a50 50 0 0 0 14.6-4.9Z"/>
</svg>