<svg xmlns="http://www.w3.org/2000/svg" aria-label="HostGator Logo" viewBox="0 0 39 39">
  <g fill="none" fill-rule="evenodd">
    <path fill="#2E93EE" d="M21.15 28.42c-1.09 1.06-2.17 2.51-3.27 3.56.52 2.76-.5 3.97.73 4.96.45.35 3.13 1.11 4.67.23.03-1.43-.75-1.85-1.58-2.39-.84-1.8-.54-4.57-.56-6.36"/>
    <path fill="#2E578B" d="M21.78 37.57a2.49 2.49 0 0 0-1.54-1.79c.62.38.99 1.07.96 1.8h.58Zm1.3-.29a2.47 2.47 0 0 0-1.53-1.8c.8.62 1.05 1.28.94 2 .2-.05.4-.12.59-.2Z"/>
    <path fill="#2E93EE" d="M19.88 14.15c-.56.82-.81 2.54 3.66 5.06 0 0-1.88 3.26-2.47 3.86-.6.6-.96 2.18-.38 2.98.3.42.65.8 1.03 1.15 0 0 1.49.28 2.12-.08a2.9 2.9 0 0 0 .45-3.19s3.77-3.96 3.53-5.15c-.24-1.2-6.16-7.23-7.94-4.63Z"/>
    <path fill="#2E578B" d="M24.26 23.93s-1.52 1.27-1.9 1.48c.3-.1.6-.22.89-.38 0 0 .67.83.18 1.53 0 0 .9-.52.3-1.73.2-.26.4-.53.56-.82l-.03-.08Z"/>
    <path fill="#2E93EE" d="M8.52 23.2c0 .3-.1.58-.26.82-.26.41-.4.37.24.72.48.24 1 .4 1.53.47.9.15.7.05.3-.8a7.26 7.26 0 0 0-.63-1.1c-.9-1.23-1.14-1.15-1.18-.12m-3.21-.42c-.33.62.18.72.83.94.24.09.5.14.75.17.73.08.54-.03.22-.62-.2-.36-.41-.72-.65-1.06-1.28-1.84-.67-.32-1.15.57m-2.77-.27v.42c-.04.51-.1.43.53.48.28.04.56.04.85 0 .8-.12.5-.4.08-.87-.14-.16-.3-.31-.47-.45-1.59-1.23-1-.36-.97.42M13.2 4.48s-4.56 2.36-4.52 3.1c.04.76 1.29.65 1.79 1.66 0 0-2.8 1.94-2.62 2.82.18.9 1.98.57 2.43 1.27 0 0-.45 1.77-.04 2.41.4.65.34.1.9.9.03.02-.29-6.57 2.06-12.16Z"/>
    <path fill="#2E93EE" d="M12.25 6.63c1.6 1.53 3.63 2.5 5.48 3.68a12.1 12.1 0 0 1 3.32 2.93c1.1 1.49.44 3.24.72 5.06a24.28 24.28 0 0 1 .05 5.3c-.28 2.71-.42 4.93-2.33 6.96-2.39 2.55-5.01 3.14-8 .93a14.5 14.5 0 0 1-2.84-2.45c-.61-.72-1.37-1.18-2.03-1.84a9.58 9.58 0 0 0-2.93-2.12c-1.16-.45-1.95.16-2.52.42-.29.13-.7.4-1.02.13a.35.35 0 0 1-.11-.4 3 3 0 0 1 .76-1.08c1.75-1.61 4.59-1.65 6.7-.51.8.45 1.67.92 2.6.97.65.08 1.3-.1 1.82-.52.4-.36.66-.86.75-1.4.15-.74.1-1.52-.16-2.24-.34-1.04-.96-1.98-1.36-3-1.34-3.5-1.8-7.48.39-10.74l.3-.45.4.37Z"/>
    <path fill="#FFCF00" d="M4.06 25.23c1.54.77 3.18 2.5 4.74 4.36 2.06 2.44 7.16 6.04 11.4.38 3.99-5.32 2.12-12.79 1.88-13.63l-.02-.1c-.14-.16-3.69-4.71-6.94-5.37-.87.75-1.04 2.08.12 4.38 1.94 3.86 3.5 9.48.04 12.94a4.7 4.7 0 0 1-1.84 1.16c-2.45.81-3.75-.68-5.3-2.12a7.4 7.4 0 0 0-4.08-2Z"/>
    <path fill="#ECA93F" d="M20.68 29.29a8.15 8.15 0 0 1-4.1-1.68 5.67 5.67 0 0 0 3.63 2.37c.17-.22.35-.46.47-.69Zm-6.91.35a9.5 9.5 0 0 0 2.48 3.22c.34-.08.66-.2.98-.33a7.9 7.9 0 0 1-3.46-2.9Zm-5.22-.34.25.3.12.13c-.08-.36-.04-.74.11-1.08-.17.2-.33.42-.48.65Zm1.73 1.73.55.44c-.13-.62-.18-1.26.03-1.62-.24.37-.43.76-.58 1.18Z"/>
    <path fill="#FF9144" d="m6.91 27.51.4.4c0-.28.02-.57.09-.85-.18.14-.34.29-.49.45Z"/>
    <path fill="#ECA93F" d="M17.68 24.66a8.23 8.23 0 0 1 4.77 0c.04-.23.08-.45.1-.67-3.12-.74-4.87.67-4.87.67Zm4.97-4.91a30.1 30.1 0 0 0-.08-.77c-3.3-.08-5.01 1.53-5.01 1.53a8.08 8.08 0 0 1 5.1-.76Zm-1.3-4.35a8.2 8.2 0 0 0-.45-.48c-3.52 0-4.47 1.64-4.47 1.64a7.76 7.76 0 0 1 4.92-1.16Z"/>
    <path fill="#ECA93F" d="M22.6 19.24c-.08-.8-.21-1.58-.38-2.37l-.26-.15c-1.12-.74-6.06-3.72-7.51-4.62a2.5 2.5 0 0 0 0 .67c1.52 2.13 4.93 5.74 8.16 6.47Z"/>
    <path fill="#2E93EE" d="M11.4 27.87a2.23 2.23 0 0 1 2.03-.97c2.27.3 1.55 2.98 1.01 4.56-.38 1.13-.6 2.31-.64 3.5 0 1.57.6 2.04-.13 2.65a6.14 6.14 0 0 1-3.95 1.1c-1.26-.29-1.3-2.88.71-3.54.56-1.2.53-2.45.49-3.74-.03-.9-.1-2.69.48-3.58"/>
    <path fill="#2E578B" d="m10.91 38.7.53-.1c-.16-.77.08-1.56.63-2.1-.83.46-1.1 1.27-1.16 2.2Zm-1.21.01c-.19-.83.04-1.7.6-2.34a2.4 2.4 0 0 0-1.13 2.01 1 1 0 0 0 .53.33Zm1.16-14.12s-.26 1.5.76 2c.86.45 1.91.45 2.44-.2.73-.89 1.79-2.68-1.11-4.44-1.79-1.1-1.9 2.6-1.9 2.6l-.19.04Zm.25-7.2c.38.83.72 1.47.74 1.53.02.06 2.36-2.94 1.92-3.42-.43-.49-2.29 1.24-2.66 1.89Z"/>
    <path fill="#2E93EE" d="M13.4 13.1c2.54 2.45-2.72 5.7-2.72 5.7.57.35 1.3 1.6 1.84 2.5.54.9.75.76 1.42 1.51.66.76-1.23 1.88-1.23 1.88s-6.33-3.43-6.31-5.62c0-.28 1.47-2.72 2.95-4.24.75-.76 2.85-2.9 4.06-1.74Z"/>
    <path fill="#2E93EE" d="M10.95 23.47s-.45 2.34.92 3.02c0 0 1.13.07 1.7-.34 0 0 1.43-2.2.37-3.34-1.07-1.14-2.99.66-2.99.66Z"/>
    <path fill="#2E578B" d="M10.92 23.64s1.83.98 2.15 1.07c-.32.04-.64 0-.94-.14 0 0-.44.9.08 1.45 0 0-.84-.15-.54-1.55l-.76-.8.01-.03Z"/>
    <path fill="#2E93EE" d="M12.56 5.92S13.52.3 15.84.2c1.54-.07 2.31 1.89 2.31 1.89.94 0 1.86.28 2.65.79 0 0 .44-.78 1.15-.53s1.52 1.89 1.23 4.57c.7.1 1.32.53 1.67 1.15-.18.27-.47.46-.8.51-.48.04-2.56-.72-3.12-.22a1.8 1.8 0 0 0-.75 1.8s-2.3-.24-3.33-1.55c-1.02-1.32-1.9-3.86-4.29-2.69Z"/>
    <path fill="#F1F1F2" fill-rule="nonzero" d="M20.49 6.33s.57-1.9 1.67-2.42c.04.91.14 1.83.3 2.73-.65-.14-1.31-.25-1.97-.31ZM15.5 2.45s1.43.69 2.38 3.63a20.17 20.17 0 0 0-3.21-.28 7.8 7.8 0 0 0 .84-3.35Z"/>
    <path fill="#2E578B" d="M16.09 3.76c.34 0 .63.39.63.87s-.29.86-.63.86-.63-.39-.63-.86c0-.48.28-.87.63-.87m5.29 2.3c.27 0 .5-.3.5-.66 0-.36-.23-.65-.5-.65l-.15.03c-.15.18-.26.38-.34.6v.04c0 .34.22.64.5.64Z"/>
    <path fill="#FF9144" d="M15.64 7.32s-1.7-1.34-2.56-.38c-1.03 1.16 0 2.95 0 2.95s.13-.77.51-1.02c0 0 .15 2.43 4.1 5.14 3.96 2.7 5.68 2.41 6.54 2.18.86-.23 1.74-.85 1.4-1.54-.32-.7-2.55-2.58-2.55-2.58s-.85.1-2.57-.5c-1.72-.61-4.02-1.8-5.5-3.86.21-.12.43-.25.63-.39"/>
    <path fill="#FF6B17" d="M14.65 10.49c2.21-.53 4.54.1 6.2 1.67l-.46-.24s2.03-.1 2.31.18a4.83 4.83 0 0 1 2.1 3.59c.06.7-1.58 1.09-5.23-.74-2.27-1.14-4.92-4.46-4.92-4.46Z"/>
    <path fill="#FF9144" d="m19.1 10.95.08.05-.09-.05Z"/>
    <path fill="#EBEEF2" d="M22.91 12.05s-.5 2.03-1.25 1.8c-.26-.08-.15-.65-.26-1.05-.1-.4-.4-1.14-.4-1.14l1.91.4Zm3.76-.76s-.16 2.07-.94 1.97c-.27-.03-.26-.61-.42-.98-.17-.37-.58-1.07-.58-1.07l1.94.08Z"/>
    <path fill="#FFCF00" d="M27.5 9.47c-.1-1.46-2.02-2.1-3.43-1.08-1.15-.25-2.43-1.02-3.57.13-.47.4-.62 1.05-.36 1.6 0 0-2.4-.38-3.22-1.6-.83-1.23-1.9-2.87-3.06-2.98-.62-.06-1.66-.15-2.27 1.03-.6 1.18-.89 3.3 3.58 6.68 4.47 3.37 6.43 4.28 7.4 4.27 1.24 0 1.31-.45 2.74-.66.73-.1 1.28-1.35.48-2.42a9.19 9.19 0 0 0-2.4-2.13c-.04.05 1.74 1.48 2.07 2.17.33.7-.65 1.14-1.5 1.35-.86.2-1.97.45-5.91-2.24-3.95-2.7-4.37-5.41-4.37-5.41-.5-.08-.56 1.01-.56 1.01s-.58-1.26.2-2.01c.93-.9 1.9.2 1.9.2h-.06c-.59-.27-.67.23-.67.23a14.46 14.46 0 0 0 5.96 4.53c1.72.6 2.63-.07 2.63-.07.81 0 1.63-.07 2.44-.2.61-.17 2.12-.43 1.98-2.4Z"/>
    <path fill="#ECA93F" d="M21.78 9.31c.4-.12.71.42.18.65-.07.2.05.42.37.5a.64.64 0 0 1-.55-1.15m4.53-.17c-.33-.1-.58.35-.15.54.06.17-.04.35-.3.41.84.18.89-.79.44-.95"/>
  </g>
</svg>